<svg xmlns="http://www.w3.org/2000/svg" viewBox="0 0 2515.35 2000"><defs><style>.cls-1{isolation:isolate;}.cls-2,.cls-3{fill:#dcf4ff;}.cls-16,.cls-2,.cls-3,.cls-9{mix-blend-mode:multiply;}.cls-3,.cls-5{opacity:0.5;}.cls-4{fill:#93ab3f;}.cls-17,.cls-5,.cls-9{fill:#488c6c;}.cls-6,.cls-7{fill:#fff;}.cls-7{opacity:0.3;}.cls-8{fill:#1d1d1b;}.cls-16,.cls-9{opacity:0.2;}.cls-10{fill:#fe9f73;}.cls-11{fill:#21111d;}.cls-12{fill:#f07162;}.cls-13{fill:#ef3a4c;}.cls-14{fill:#f1f8f0;}.cls-15{fill:#5b3150;}.cls-18{fill:#e2f2f1;}.cls-19{fill:#223749;}.cls-20{fill:#0b2a3f;}.cls-21{fill:#265e77;}.cls-22{fill:#1d4c66;}.cls-23{fill:#fbfdfc;}.cls-24{fill:#4c222e;}.cls-25{fill:#f9b498;}.cls-26{fill:#fecc86;}</style></defs><g class="cls-1"><g id="Layer_1"><rect class="cls-2" width="2514.28" height="1520.81"/><path class="cls-2" d="M0,584.81s297.11-78.54,567.33-24.95,750.23,218.72,1148.45,127.26S2513.6,559.86,2513.6,559.86v866H0Z" transform="translate(0)"/><path class="cls-2" d="M0,777.65l.76.14a7332.65,7332.65,0,0,0,2514.58,14.36h0v866.18H0Z" transform="translate(0)"/><path class="cls-3" d="M2513.6,218.78a2393,2393,0,0,1-217.39,105L2266.56,292l.34-.12L2102.72,117.55,1702,253.33l164.18,174.32,1.22-.42,25.43,25.8a2357.07,2357.07,0,0,1-361.23,52.18q-30.75,2-61.53,3.59V403.67h-.3l-.59-145.79H1046.06l.59,145.79h-.59V508.9q-31.72-1.61-63.43-3.68a2361.65,2361.65,0,0,1-377.45-55.81l21.87-22.18,1.22.42L792.45,253.33,391.71,117.55,227.53,291.86l.35.12-24.19,25.9q-102.43-44-200.83-97.54L0,218.78V1356.93H2513.6V218.78ZM251.34,299.93l352,119.27L578.17,443A2377.58,2377.58,0,0,1,223.78,326.39ZM1069.41,510V475.66h377.3v34.27Q1258.16,518.52,1069.41,510Zm821.7-90.83,352-119.27,33.35,32a2378.35,2378.35,0,0,1-356.24,114.75Z" transform="translate(0)"/><path class="cls-4" d="M2515.35,1276.56V2000H0V1261.68q164.25-49.87,331.22-86.18a4243,4243,0,0,1,537.95-81.35q103.62-8.94,207.5-12.78,182.32-6.75,364.74,2.19,109.35,5.34,218.41,16.35a4244.24,4244.24,0,0,1,545.31,91.2q154.14,36.23,306,84.12Z" transform="translate(0)"/><path class="cls-5" d="M1566,2000H951.78l124.89-918.63q182.32-6.75,364.74,2.19Z" transform="translate(0)"/><path class="cls-5" d="M869.17,1094.15,529.5,2000H0V1718.5l331.22-543A4243,4243,0,0,1,869.17,1094.15Z" transform="translate(0)"/><path class="cls-5" d="M2515.35,1699.68V2000h-518l-337.51-900.09a4244.24,4244.24,0,0,1,545.31,91.2Z" transform="translate(0)"/><path class="cls-6" d="M1193.36,128.79c-28.33-5-37.66,23.77-37.66,23.77.45-19.13-45.69-55.12-72.23-17.44-14.6,19.4-13,43.4,7.52,53.92h137.68c8.28-12.78-13.69-15-17-13.31C1211.67,175.73,1221.69,133.84,1193.36,128.79Z" transform="translate(0)"/><path class="cls-6" d="M767.67,86.21c-42-3.68-42.53,44-42.53,44S706,112,692.27,135c.86-1.06-29.25-12.56-36.14,14.05H818.75c-.62-7.82-7.27-10-17.14-11.16C801.61,137.92,804.31,89.43,767.67,86.21Z" transform="translate(0)"/><path class="cls-6" d="M1621.23,91.17c-57.41-5-58.11,60.06-58.11,60.06s-26.09-24.76-44.91,6.64c1.17-1.44-40-17.16-49.38,19.2H1691c-.84-10.68-9.93-13.61-23.41-15.25C1667.61,161.82,1671.29,95.56,1621.23,91.17Z" transform="translate(0)"/><path class="cls-7" d="M2066.15,1968.6c-46.28-42.8-112.33-81.17-196.31-114-83.57-32.7-180.82-58.36-289-76.26-111.91-18.52-230.77-27.91-353.29-27.91s-241.38,9.39-353.29,27.91c-108.23,17.9-205.48,43.56-289,76.26-84,32.85-150,71.22-196.32,114A304.17,304.17,0,0,0,359.2,2000h21.06q8.92-9.9,19.46-19.65c44.81-41.45,109.16-78.75,191.27-110.87,169.89-66.47,395.94-103.07,636.51-103.07S1694.12,1803,1864,1869.48c82.11,32.12,146.47,69.42,191.28,110.87q10.53,9.75,19.46,19.65h21.06A305.39,305.39,0,0,0,2066.15,1968.6Z" transform="translate(0)"/><path class="cls-6" d="M1790.62,1211.45,1662.77,767.06a9.09,9.09,0,0,0-1.66-3.28,8.09,8.09,0,0,0-.84-.91,8.92,8.92,0,0,0-4.65-2.33h0a9.51,9.51,0,0,0-1.51-.12H876.77a9.66,9.66,0,0,0-1.62.14h0a8.91,8.91,0,0,0-4.5,2.27,8.72,8.72,0,0,0-.92,1,9,9,0,0,0-1.62,3.23L740.25,1211.45a9,9,0,0,0,8.62,11.45,8.84,8.84,0,0,0,3.52-.72l205.71-87.7h614.66l205.72,87.7a8.82,8.82,0,0,0,3.51.72,9,9,0,0,0,8.63-11.45ZM1257.73,869.78V922.1H1196.4V869.78Zm145.33,0V922.1h-69.61V869.78ZM1040.7,926H1119v45.94l-80.42,0Zm-6,46-60.38,0L977,926h59.81Zm88.23-46h69.6v45.9l-69.6,0Zm73.51,0h61.33v45.86l-61.33,0Zm61.33,49.76V1026l-61.33,0V975.8Zm3.9,0,67.92,0v50.2l-67.92,0Zm0-3.9V926h67.92v45.82ZM1333.45,926h69.61v45.78l-69.61,0Zm73.51,0h78.29l2.13,45.73-80.42,0Zm82.19,0h64.73l2.69,45.7-65.29,0Zm-.18-3.9-2.44-52.32h64l3.08,52.32Zm-6.34-52.32,2.43,52.32H1407V869.78ZM1329.55,922.1h-67.92V869.78h67.92Zm-137.06,0h-69.6V869.78h69.6Zm-73.51,0h-78.1l2.44-52.32H1119Zm-82,0H977.22l3.07-52.32h59.13ZM953.1,1026.55l-67.78,3.07,15.3-63.21L956.14,975Zm20.95-50.63,60.42,0-2.33,50.19-61,0Zm64.33,0,80.6,0V1026l-82.94,0Zm84.51,0,69.6,0V1026l-69.6,0Zm69.6,54.05V1074l-69.6,0v-44.14Zm3.91,0,61.33,0V1074l-61.33,0Zm65.23,0,67.92,0V1074l-67.92,0Zm71.82,0,69.61,0v44.14l-69.61,0Zm0-3.9V975.72l69.61,0v50.19ZM1407,975.68l80.6,0,2.33,50.19-82.93,0Zm84.5,0,65.34,0,3,50.19-66,0Zm83.24-1.15,47.65-7.33,11.7,61.65-56.3-2.55Zm51.51-7.92,72.09-11.09,22.23,77.25-82.47-3.73Zm-.73-3.84-11.43-60.2,60.83-28.45,22.33,77.62Zm-3.86.59-47.15,7.25-2.83-48.2,38.77-18.13Zm-50.23-45.14-3.16-53.76,29.28-28.15,12.15,64Zm-16-66.33h-63l23.47-28.48H1585Zm-68.09,0h-74.41l20.34-28.48h77.53Zm-51.28-32.38,29.36-41.11h82.47L1514,819.46Zm-4.8,0h-75.77l22.69-41.11h82.45Zm-2.78,3.9-20.35,28.48H1337.6l15.73-28.48Zm-95.32,28.48h-71.52V823.36h87.24Zm-75.42,0H1192.8l-15.72-28.48h80.65Zm-69.39,0h-70.52l-20.34-28.48h75.14Zm-93.65-32.38-29.36-41.11h82.45l22.69,41.11Zm-4.79,0h-78l-33.88-41.11h82.48Zm2.79,3.9L1113,851.84h-74.41l-23.47-28.48Zm-59.12,28.48H975.45l-29.61-28.48h64.26Zm-70.94,12.57-3.2,54.51L916.92,899l15.42-63.76Zm-3.45,58.7L956.37,971l-54.83-8.43L916,902.9ZM897.67,962l-64.15-9.86,22.27-77.4,56.59,26.47Zm-.92,3.81-15.49,64-71,3.21,22.18-77.09ZM809.12,1037l71.19-3.22-16.95,70.07-80.93,25.92Zm75.25-3.41,68.5-3.1L950.2,1076l-82.49,26.43Zm86.5-3.55,61.08,0-2,44.14-61.62,0Zm65,0,83.12,0v44.14l-85.18,0Zm83.12,48v38.56h-87.15l1.79-38.51Zm3.91,0,69.6,0v38.6h-69.6Zm73.51,0,61.33,0v38.63H1196.4Zm65.23,0,67.92,0v38.67h-67.92Zm71.82,0,69.61,0v38.71h-69.61Zm73.51,0,85.35,0,1.81,38.76H1407Zm0-3.9v-44.15l83.12,0,2.05,44.14Zm87-44.2,66,0,2.6,44.14-66.53,0Zm84,.45,56.82,2.57,12.24,64.49L1580.67,1076Zm60.82,2.75,82.86,3.76,26.77,93-97.17-31.13Zm35-162.65-60.49,28.3L1600.86,833l48.73-46.87Zm-84.7-50.81h-70l33.88-41.11h78.89Zm-323.66-41.11h108.29L1351,819.46h-89.39V778.35Zm-7.7,41.11h-82.81l-22.69-41.11h105.5ZM973,778.35l33.87,41.11h-65.1L899,778.35Zm-91.73,7.81,47.81,46-15.78,65.2L856.88,871Zm-100.15,348.1,81.15-26-12.83,53-86.74,37Zm72.8,25.13,12.7-52.51L950,1080.19l-2.31,39.24Zm114.12-81.33,61.67,0-1.8,38.51H965.79Zm530,38.47-1.8-38.76,66.58,0,2.28,38.8Zm82.9-36.39,66.94,21.45,9.38,49.4-74-31.56Zm80.64,72.69-9.47-49.89,97.64,31.28,18.43,64.06Z" transform="translate(0)"/><path class="cls-8" d="M1788.15,1206.48c-1.21-4.17-121.27-417.11-124.86-434-2.52-11.85-11.52-11-11.9-11h-.11l-771-.09c-9.62,0-11.17,5.65-11.23,5.89L758.71,1150.89l-1.92-.56L867.14,766.78c.06-.25,1.89-7.37,13.17-7.37l770.93.09c1-.07,11.22-.51,14,12.57,3.57,16.82,123.61,429.69,124.82,433.85Z" transform="translate(0)"/><ellipse class="cls-9" cx="591.83" cy="1872.49" rx="394.14" ry="53.33"/><ellipse class="cls-9" cx="1828.2" cy="1702.46" rx="492.33" ry="32.55"/><ellipse class="cls-9" cx="1146.64" cy="1204.34" rx="86.92" ry="11.13"/><path class="cls-10" d="M979.25,1239.58l-21.48-23.86a1.44,1.44,0,0,1,.13-2l1.14-1a1.42,1.42,0,0,1,1.87-.07l22.74,19.28a6,6,0,0,0,8.13-.39,5.88,5.88,0,0,0-.28-8.56s-33-31.32-37.81-36.65l16.76-2.63a6.06,6.06,0,0,0,6.2-5.68h0a5.62,5.62,0,0,0-5.45-6l-37-5.6c-2.09-.07-5.26,2.82-7.28,5.73-27.54,21.71-31.61,25.27-38.53,31.79L913.64,1230a84.44,84.44,0,0,1,17.16,26.14l1,2.45a5.69,5.69,0,0,0,8,2.76,6.15,6.15,0,0,0,2.74-7.77l-7.4-17.74a1.46,1.46,0,0,1,.38-1.63,1.4,1.4,0,0,1,2.16.29L952,1258.87a4.65,4.65,0,0,0,7.46,1,7.74,7.74,0,0,0,1.48-9.18l-14.61-24.87a1.47,1.47,0,0,1,.29-1.8l.36-.33a1.42,1.42,0,0,1,2,.07l21.35,23.71a5.94,5.94,0,0,0,8.9-7.88Z" transform="translate(0)"/><path class="cls-10" d="M292.13,1249.33l9.81-30.57A1.43,1.43,0,0,0,301,1217l-1.47-.49a1.44,1.44,0,0,0-1.74.71L285,1244.11a6,6,0,0,1-7.57,3,5.88,5.88,0,0,1-3.26-7.92s17.3-42.12,19.45-48.93l-16.36,4.47a6.07,6.07,0,0,1-8-2.63h0a5.63,5.63,0,0,1,2.49-7.76L303.17,1164c1.89-.92,6,.41,9,2.24,34,8.5,39.19,10.09,48.17,13.2l-12.3,34.2a84.55,84.55,0,0,0-4.94,30.88l.08,2.65A5.68,5.68,0,0,1,337,1253a6.15,6.15,0,0,1-5.68-6l-.53-19.21a1.47,1.47,0,0,0-1-1.33,1.41,1.41,0,0,0-1.86,1.15l-3.06,28.13a4.64,4.64,0,0,1-6.4,4,7.74,7.74,0,0,1-5.12-7.76l3.13-28.68a1.45,1.45,0,0,0-1-1.51l-.47-.16a1.4,1.4,0,0,0-1.79.88l-9.76,30.39a5.95,5.95,0,0,1-11.35-3.55Z" transform="translate(0)"/><path class="cls-10" d="M618.23,595.24v68s.95,23-19.18,25.88l3.76,30.69a24,24,0,0,1-16.38,25.8,62.77,62.77,0,0,1-19,2.94c-23,0-35.47-17.26-37.38-25.88s3.83-49.85,3.83-49.85l-.7-20.25,2.62-78.47Z" transform="translate(0)"/><path class="cls-11" d="M538.47,577.93l16,22.72s48.62,18.88,73.54-3.48,17.25-33.11,10-44.31c-3.6-5.52-20.8-16.76-41.89-7.39-11.51,5.11-20-10.14-33.44-2.47s-29.25,20.94-27.48,26.2S538.47,577.93,538.47,577.93Z" transform="translate(0)"/><path class="cls-11" d="M539.44,568.34s-22.13-1.06-28.31,20.24,2.13,32.45,2.34,38.8-4.09,49.17,26,46l8.12-70.71-10.47-28.16Z" transform="translate(0)"/><path class="cls-11" d="M603.4,601.89s1.82,20,0,25.45-23.63,20-23.63,20-1.82,38.18-5.45,40-35.88-5.2-46.12-15.32.67-90.1.67-90.1S538,571,547.05,569.17s52.72-5.45,50.9,0S603.4,601.89,603.4,601.89Z" transform="translate(0)"/><ellipse class="cls-10" cx="581.06" cy="636.76" rx="16.9" ry="17.25"/><path class="cls-12" d="M579.8,647.34a7.07,7.07,0,0,1-6.62-5.39,6.81,6.81,0,0,1,2.66-7.88,7.8,7.8,0,0,1,8.87.31,7.74,7.74,0,0,0-3.41-4.24c-3.33-1.88-7.46-.51-7.5-.5a.46.46,0,0,1-.59-.3.49.49,0,0,1,.3-.61c.18-.06,4.55-1.51,8.24.56a9.34,9.34,0,0,1,4.31,6.29l.41,1.67-1.2-1.22c-.17-.17-4.18-4.16-8.93-1.15a5.93,5.93,0,0,0-2.26,6.8,6.09,6.09,0,0,0,5.72,4.7h.1a.48.48,0,0,1,0,1Z" transform="translate(0)"/><path class="cls-10" d="M723.51,1401.67s22.31,79.91,28.63,111.49,30.91,84,58,325.8l-68.79,5.72s-65.15-192.75-94.52-300.45C633.68,1496.06,608,1408,608,1408Z" transform="translate(0)"/><path class="cls-13" d="M760.3,1544.27C771.19,1583.9,790,1658.94,810.12,1839l-68.79,5.72s-58.3-172.46-89.45-282.27C700.94,1563.21,736.39,1554.19,760.3,1544.27Z" transform="translate(0)"/><path class="cls-14" d="M662.46,1598.69c-3.76-12.6-7.32-24.79-10.58-36.28,49.06.8,84.51-8.22,108.42-18.14,2.74,10,6,22.24,9.63,37.84C745,1591.09,708.85,1599.59,662.46,1598.69Z" transform="translate(0)"/><path class="cls-15" d="M864.21,1842.72l-58.28-25.84c-23.24,23.06-49,3.76-49,3.76-17.43-8-28.88,7.69-28.88,7.69V1861H885.4C885.4,1849.92,864.21,1842.72,864.21,1842.72Z" transform="translate(0)"/><path class="cls-14" d="M889.2,1861H728v11.45H889.2a3,3,0,0,0,3-3v-5.38A3,3,0,0,0,889.2,1861Z" transform="translate(0)"/><path class="cls-10" d="M400.22,1401.67s-22.31,79.91-28.63,111.49-30.91,84-58,325.8l68.79,5.72s65.15-192.75,94.51-300.45C490,1496.06,515.71,1408,515.71,1408Z" transform="translate(0)"/><path class="cls-15" d="M434.51,1200.69l-60.18,254.06s102.38,46.45,145,27.5l32.91-141.49h16.92l48.72,146s91.6,10.79,139.65-32.52l-60.47-257.65Z" transform="translate(0)"/><path class="cls-13" d="M423.34,989.33c9.48,44.66,1.69,216.09,1.69,216.09s176,59.55,282.87,8.12V929.33s70.37,150.23,93.38,180S894,1215.41,894,1215.41l53.44-47.88s-112.37-227.1-134-288.28C796.63,831.61,744,726.15,662.8,715.32S452.1,697.89,407.44,748s-90.68,242.26-104.21,326.17-14.89,93.39-14.89,93.39,42,24.87,75.81,18.1l47.35-181.87,9.92-32.93Z" transform="translate(0)"/><path class="cls-13" d="M363.43,1544.27c-10.89,39.63-29.67,114.67-49.82,294.69l68.79,5.72s58.29-172.46,89.45-282.27C422.79,1563.21,387.34,1554.19,363.43,1544.27Z" transform="translate(0)"/><path class="cls-14" d="M461.27,1598.69c3.76-12.6,7.32-24.79,10.58-36.28-49.06.8-84.51-8.22-108.42-18.14-2.75,10-6,22.24-9.64,37.84C378.72,1591.09,414.88,1599.59,461.27,1598.69Z" transform="translate(0)"/><path class="cls-15" d="M449.82,1842.72l-58.28-25.84c-23.24,23.06-49.05,3.76-49.05,3.76-17.43-8-28.88,7.69-28.88,7.69V1861H471C471,1849.92,449.82,1842.72,449.82,1842.72Z" transform="translate(0)"/><path class="cls-14" d="M474.81,1861H313.61v11.45h161.2a3,3,0,0,0,3-3v-5.38A3,3,0,0,0,474.81,1861Z" transform="translate(0)"/><path class="cls-8" d="M600.62,1234.84a515.9,515.9,0,0,1-72.84-5.59,691.12,691.12,0,0,1-103-23.1l-.58-.19.06-.61c5.76-58.36,4-170.1-3.61-234.43-7.32-61.53,1.28-141.2,1.37-142l1.51.17c-.09.8-8.67,80.3-1.37,141.65,7.63,64.19,9.37,175.53,3.67,234.14,11.38,3.61,183.19,56.53,281.71,8l.67,1.37C676.76,1229.74,638,1234.84,600.62,1234.84Z" transform="translate(0)"/><path class="cls-8" d="M782.67,1080.62c-.47-.91-46.91-91.48-75.46-151C678.57,870,687.44,801.17,687.54,800.48l1.5.21c-.09.68-8.89,69,19.54,128.31,28.54,59.46,75,150,75.44,150.92Z" transform="translate(0)"/><rect class="cls-8" x="707.14" y="929.33" width="1.52" height="154.12"/><path class="cls-8" d="M491,1486.71c-53.15,0-116.22-30.9-117-31.28l-.54-.27.14-.58,58.49-246.95,1.48.35-58.35,246.35c7.54,3.64,91.09,42.86,143.91,27.19l.44,1.46A100.82,100.82,0,0,1,491,1486.71Z" transform="translate(0)"/><path class="cls-8" d="M642.1,1488.77a211.21,211.21,0,0,1-24.3-1.22L618,1486c.85.11,85.3,10.63,139.07-32.35l1,1.19C721.68,1483.92,671.54,1488.77,642.1,1488.77Z" transform="translate(0)"/><path class="cls-8" d="M329,1723.81l-1.5-.24c.12-.78,12.74-79,17.79-105.45s38.3-157.53,38.63-158.85l1.48.38C385,1461,351.77,1592,346.73,1618.41S329.08,1723,329,1723.81Z" transform="translate(0)"/><path class="cls-8" d="M687,1680.88c-14.7-38.61-56.24-191.07-56.66-192.61l1.47-.39c.42,1.53,41.94,153.92,56.61,192.46Z" transform="translate(0)"/><g class="cls-16"><path class="cls-17" d="M1189.29,1699.64c-68.56,4.22-121.26,24.12-120.07,28,1,4.31,54.6-1.13,119.15,3.5,64.34,4.14,117.08,9.5,120.07-3.5C1311.58,1715.07,1258.06,1695.09,1189.29,1699.64Z" transform="translate(0)"/></g><path class="cls-18" d="M1186.92,1591.22c-47.19,1.83-83.83,29-101.39,53.27-18.37,24.92-17.67,46.86-9,54,9.25,8,26.87,5.54,45.28,6.16,18.62-.06,38,3,56,6.31a251.63,251.63,0,0,0,53.56,4.85c18.58-.59,40.26-2.88,56.36-15.94,15.64-12.07,19.43-40,.75-65.15C1271,1609.79,1231.07,1587.54,1186.92,1591.22Z" transform="translate(0)"/><path class="cls-19" d="M1132.81,1654a98.92,98.92,0,0,1,28.28,21.19,123,123,0,0,1,52.64,2.2,247.16,247.16,0,0,1,25.34-27.79,137.9,137.9,0,0,0-57-26.05A182.07,182.07,0,0,0,1132.81,1654Z" transform="translate(0)"/><path class="cls-19" d="M1300.8,1662.58a185.27,185.27,0,0,0-34.33,4,124,124,0,0,1,12.17,35.65c1.07.64,2.13,1.29,3.19,2a48.9,48.9,0,0,0,5.91-4.3c10-8.45,15.53-21.35,13.51-36.89Z" transform="translate(0)"/><path class="cls-19" d="M1072.69,1670.08c-3.93,13.53-2.06,23.29,3.85,28.45a17.9,17.9,0,0,0,3.68,2.49c1-.74,2-1.46,3-2.16a173,173,0,0,1,17.29-31.06,100.36,100.36,0,0,0-27.36,1.83Z" transform="translate(0)"/><path class="cls-19" d="M1202.53,1714.67a220.69,220.69,0,0,0,33.54,1,95.22,95.22,0,0,0-21.55-14.25A171.12,171.12,0,0,0,1202.53,1714.67Z" transform="translate(0)"/><path class="cls-19" d="M1117.27,1704.47v.12a265.65,265.65,0,0,1,40.34,3,115.64,115.64,0,0,0-9.79-14.55A102.1,102.1,0,0,0,1117.27,1704.47Z" transform="translate(0)"/><path class="cls-19" d="M1140.14,1602.25a161.55,161.55,0,0,1,46.59,3.59,215.77,215.77,0,0,1,44.24-9.78,132.08,132.08,0,0,0-44-4.84A143,143,0,0,0,1140.14,1602.25Z" transform="translate(0)"/><path class="cls-8" d="M1177.3,1711.51c-25.09-4.57-46.47-6.3-61.54-6.24-16.91-.42-33.09,1.19-40.65-5.1-9-7.24-9.8-27.57,8.77-54.53,17.1-25.2,54.18-50.34,96.27-54.43,31.62-5.19,86.65,8.92,110.12,44.92,18.52,27.21,13.15,51.48-2.31,64-16.27,13.14-38.18,15.4-56.89,16A253.64,253.64,0,0,1,1177.3,1711.51Zm6.37-119.45c-1.17.09-2.33.19-3.46.32-44.75,4-78.82,30.66-95.23,54.06-17.11,24-16.55,44.85-8.21,51.82,6.54,6.27,21.76,5.32,39.65,6a380.57,380.57,0,0,1,61,6.11,249.75,249.75,0,0,0,53.38,4.33c18.46-.78,39.87-3.3,55.54-16.39,14.89-12.51,19.76-36.17,1.5-62.45C1267.09,1604.43,1217.3,1588,1183.67,1592.06Z" transform="translate(0)"/><polygon class="cls-10" points="1543.52 1050.82 1535.1 980.18 1496.77 986.2 1489.13 1072.17 1543.52 1050.82"/><polygon class="cls-10" points="1308.02 1050.82 1316.44 980.18 1354.77 986.2 1362.41 1072.17 1308.02 1050.82"/><polygon class="cls-10" points="1505.15 1260.35 1514.01 1491.37 1480.14 1493.46 1442.85 1270.94 1505.15 1260.35"/><path class="cls-20" d="M1457.25,1356.9l3.26,19.46,19.63,117.1,33.86-2.09-4.77-124.51-.76-19.77C1499.86,1351,1483.25,1356.38,1457.25,1356.9Z" transform="translate(0)"/><path class="cls-21" d="M1541.69,1495.62l-28.06-12.45c-11.19,11.11-23.61,1.82-23.61,1.82-8.39-3.86-13.91,3.7-13.91,3.7v15.75h75.78C1551.89,1499.08,1541.69,1495.62,1541.69,1495.62Z" transform="translate(0)"/><path class="cls-14" d="M1553.72,1504.44h-77.61V1510h77.61a1.46,1.46,0,0,0,1.46-1.46v-2.59A1.46,1.46,0,0,0,1553.72,1504.44Z" transform="translate(0)"/><path class="cls-14" d="M1457.25,1356.9l3.26,19.46c15.16-1.14,33.1-3.77,48.72-9.5l-.76-19.77c-8.61,3.86-25.22,9.29-51.22,9.81Z" transform="translate(0)"/><polygon class="cls-10" points="1346.08 1260.35 1337.22 1491.37 1371.08 1493.46 1408.38 1270.94 1346.08 1260.35"/><path class="cls-20" d="M1394,1356.9l-3.26,19.46-19.63,117.1-33.86-2.09,4.77-124.51.76-19.77C1351.36,1351,1368,1356.38,1394,1356.9Z" transform="translate(0)"/><path class="cls-21" d="M1492.8,1115.78H1356.17l-19,146.47c31.79,28,75.66,15.26,75.66,15.26l4.45-53.4h14.41l4.45,53.4s43.87,12.72,75.66-15.26Z" transform="translate(0)"/><path class="cls-21" d="M1309.53,1495.62l28.06-12.45c11.19,11.11,23.61,1.82,23.61,1.82,8.39-3.86,13.91,3.7,13.91,3.7v15.75h-75.78C1299.33,1499.08,1309.53,1495.62,1309.53,1495.62Z" transform="translate(0)"/><path class="cls-14" d="M1297.5,1504.44h77.61V1510H1297.5a1.46,1.46,0,0,1-1.46-1.46v-2.59A1.46,1.46,0,0,1,1297.5,1504.44Z" transform="translate(0)"/><path class="cls-14" d="M1394,1356.9l-3.26,19.46c-15.16-1.14-33.1-3.77-48.72-9.5l.76-19.77c8.61,3.86,25.23,9.29,51.22,9.81Z" transform="translate(0)"/><path class="cls-20" d="M1502.05,998l7.18,159.62s-59.74,15.86-84.74,14.16c-25,1.7-85.06-15.8-85.06-15.8l7.49-158c-33.91-1.27-36.87-11.87-36.87-11.87s11.44-69.51,27.55-85.61c8-8,24-11.51,37.85-13,2.39-.25,4.71-.45,6.91-.6,4-.27,7.06,1.22,10.1,1.19a25.18,25.18,0,0,0,8.44-1.43l22.66,3.37,21.33.65s5.06-3.86,10.35-3.78c2,0,4.4.09,7,.2,15.66.66,39,3.22,49.18,13.4,16.1,16.1,27.55,85.61,27.55,85.61S1536,996.71,1502.05,998Z" transform="translate(0)"/><path class="cls-10" d="M1344.18,1046.62c-23-24.24-24-10.26-24-10.26-18,9.43-13.48,27.53-3.24,37.68,9,9,68.38,50.45,68.38,50.45l16.14-22S1367.22,1070.86,1344.18,1046.62Z" transform="translate(0)"/><path class="cls-10" d="M1429.05,1129.46s8,7.55,6.76,1.48a3.38,3.38,0,0,0,2.39-3.59c-.19-2.92-3.41-8.92-4.27-9.73s-14.75-9.09-14.75-9.09-18.72-6.89-19.64-7.48l-17.18,21.27c.94.68,1.84,1.39,3,2.17,5.4,3.64,12.76,8,16.16,9.22h0a5.56,5.56,0,0,0,1,.29h0l.22,0a22,22,0,0,1,4.09.72c4.7.57,9.66.54,11.1,1s5.66-3.6,6.69-2c.86,1.31-.07,8.35,1.39,7.77a2.92,2.92,0,0,0,1.83-2.43A90.74,90.74,0,0,0,1429.05,1129.46Z" transform="translate(0)"/><path class="cls-12" d="M1436.14,1130.78c-.16-.31-3.86-7.45-4.91-8.66a29,29,0,0,0-4.58-3.44.37.37,0,0,0-.52.12.39.39,0,0,0,0,.3.44.44,0,0,0,.17.22,30.54,30.54,0,0,1,4.41,3.28,91.33,91.33,0,0,1,4.8,8.51.38.38,0,0,0,.51.17A.37.37,0,0,0,1436.14,1130.78Z" transform="translate(0)"/><path class="cls-12" d="M1432.68,1135.87c-.16-.26-4-6.28-5.37-7.7a27,27,0,0,0-4.26-3.12.37.37,0,0,0-.51.13.34.34,0,0,0,0,.29.36.36,0,0,0,.17.23,27.05,27.05,0,0,1,4.11,3c1.35,1.36,5.22,7.5,5.26,7.56a.38.38,0,0,0,.52.13A.37.37,0,0,0,1432.68,1135.87Z" transform="translate(0)"/><path class="cls-12" d="M1428.23,1138.93c-.14-.23-3.29-5.54-4.79-7a18.86,18.86,0,0,0-3.46-2.48.38.38,0,0,0-.51.15.39.39,0,0,0,0,.28.36.36,0,0,0,.19.23,18,18,0,0,1,3.3,2.37c1.42,1.33,4.62,6.72,4.65,6.77a.38.38,0,0,0,.52.14A.37.37,0,0,0,1428.23,1138.93Z" transform="translate(0)"/><path class="cls-10" d="M1507.35,1046.62c23-24.24,24-10.26,24-10.26,18,9.43,13.48,27.53,3.24,37.68-9,9-68.38,50.45-68.38,50.45l-16.14-22S1484.31,1070.86,1507.35,1046.62Z" transform="translate(0)"/><path class="cls-10" d="M1419.18,1136.06s-4.74,1-3.45-5.12a3.38,3.38,0,0,1-2.39-3.59c.18-2.92,3.41-8.92,4.27-9.73s14.75-9.09,14.75-9.09,18.72-6.89,19.63-7.48l17.19,21.27c-.92.66-1.88,1.41-3,2.17-5.41,3.65-12.75,8-16.16,9.22h0a5.63,5.63,0,0,1-1,.29h0l-.23,0a22,22,0,0,0-4.08.72c-4.71.57-9.66.54-11.11,1s-3.06,2.82-4.09,4.39a3.35,3.35,0,0,1-4,1.35,2.91,2.91,0,0,1-1.84-2.43S1419.32,1139.93,1419.18,1136.06Z" transform="translate(0)"/><path class="cls-12" d="M1415.4,1130.78c.15-.31,3.85-7.45,4.9-8.66a29,29,0,0,1,4.59-3.44.36.36,0,0,1,.51.12.4.4,0,0,1,0,.3.51.51,0,0,1-.17.22,29.47,29.47,0,0,0-4.41,3.28,91.33,91.33,0,0,0-4.8,8.51.38.38,0,0,1-.51.17A.36.36,0,0,1,1415.4,1130.78Z" transform="translate(0)"/><path class="cls-12" d="M1418.86,1135.87c.16-.26,4-6.28,5.37-7.7a27,27,0,0,1,4.26-3.12.37.37,0,0,1,.51.13.42.42,0,0,1,0,.29.38.38,0,0,1-.18.23,27.69,27.69,0,0,0-4.1,3c-1.35,1.36-5.23,7.5-5.26,7.56a.38.38,0,0,1-.52.13A.37.37,0,0,1,1418.86,1135.87Z" transform="translate(0)"/><path class="cls-12" d="M1423.31,1138.93c.13-.23,3.29-5.54,4.78-7a18.77,18.77,0,0,1,3.47-2.48.36.36,0,0,1,.5.15.38.38,0,0,1-.15.51,18.23,18.23,0,0,0-3.31,2.37c-1.41,1.33-4.61,6.72-4.64,6.77a.38.38,0,0,1-.52.14A.36.36,0,0,1,1423.31,1138.93Z" transform="translate(0)"/><path class="cls-12" d="M1426.6,1142.27a3.5,3.5,0,0,1-1.31-.25,3.37,3.37,0,0,1-2-2.35,4.86,4.86,0,0,1-3.33-.83,3.37,3.37,0,0,1-1.2-2.23,3.62,3.62,0,0,1-2.74-.94c-.9-.92-1.18-2.39-.82-4.4a3.87,3.87,0,0,1-2.32-4c.19-3,3.42-9.11,4.42-10.07s13.42-8.3,14.84-9.15c7.56-2.79,18.93-7,19.62-7.47l.55.83c-.94.62-17.82,6.83-19.74,7.54-5.48,3.27-14,8.41-14.58,9-.77.73-3.94,6.59-4.11,9.4a2.87,2.87,0,0,0,2,3.08l.45.13-.09.46c-.4,1.87-.24,3.19.47,3.91a2.88,2.88,0,0,0,2.39.61l.58-.11,0,.58a2.55,2.55,0,0,0,.86,2,4.3,4.3,0,0,0,3,.57l.5-.1.09.5a2.47,2.47,0,0,0,1.52,2.06,2.87,2.87,0,0,0,3.38-1.16l.83.55A3.94,3.94,0,0,1,1426.6,1142.27Z" transform="translate(0)"/><path class="cls-22" d="M1462.2,887.1c-3.52,10.89-14.2,32.66-43.4,32.47-31.52-.2-41.07-24.25-43.35-32.07,2.39-.25,4.71-.45,6.91-.6,4-.27,7.06,1.22,10.1,1.19a25.18,25.18,0,0,0,8.44-1.43l22.66,3.37,21.33.65s5.06-3.86,10.35-3.78C1457.29,886.93,1459.64,887,1462.2,887.1Z" transform="translate(0)"/><path class="cls-10" d="M1418.8,886.42l-36.44.48s3.54,24.28,36.44,26.47c32.9-2.19,36.44-26.47,36.44-26.47Z" transform="translate(0)"/><path class="cls-10" d="M1406.07,807.27c13.26-4.7,28.19,1.86,28.19,1.86s5.32,8.21,5.84,9.17-5.95-2.2-5.95-2.2l-40.85,18v-8.2A19.66,19.66,0,0,1,1406.07,807.27Z" transform="translate(0)"/><path class="cls-10" d="M1393.3,825l42.85-13.3,1.37,42.15-.37,10.87s3,22.14,2,26.77-7.47,13.9-19.43,13.9a31.71,31.71,0,0,1-9.88-1.58,12.89,12.89,0,0,1-8.52-13.86l2-16.48c-10.47-1.54-10-13.9-10-13.9Z" transform="translate(0)"/><path class="cls-11" d="M1422.53,840.43a.53.53,0,0,1,0,.73.52.52,0,0,1-.35.14.48.48,0,0,1-.36-.16c-.25-.27-6.29-6.63-11.84-2a.49.49,0,0,1-.7-.08.52.52,0,0,1,.08-.72C1415.61,833.11,1422.47,840.36,1422.53,840.43Z" transform="translate(0)"/><path class="cls-11" d="M1402,837.31a.52.52,0,0,1,0,.72.49.49,0,0,1-.7.06s-4.31-3.8-6.66-1.72a.5.5,0,0,1-.71,0,.54.54,0,0,1,.06-.73C1397,832.93,1401.76,837.13,1402,837.31Z" transform="translate(0)"/><path d="M1413.59,841.84a1.55,1.55,0,1,1-1.49,1.54A1.52,1.52,0,0,1,1413.59,841.84Z" transform="translate(0)"/><path d="M1397.7,840.29a1.55,1.55,0,1,1-1.49,1.55A1.52,1.52,0,0,1,1397.7,840.29Z" transform="translate(0)"/><path class="cls-11" d="M1434.26,808.59s12.66-.63,15.87,10.81-2.26,17.48-2.38,20.89,2.13,26.41-13.49,24.69L1430,827l5.44-15.12Z" transform="translate(0)"/><ellipse class="cls-10" cx="1433.42" cy="842.85" rx="8.97" ry="9.27"/><path class="cls-12" d="M1433,838.83a5.9,5.9,0,0,1,4.38-.3.27.27,0,0,1,.16.33.25.25,0,0,1-.32.16,5.42,5.42,0,0,0-4,.27,4.14,4.14,0,0,0-1.81,2.28,4.09,4.09,0,0,1,4.71-.17,3.7,3.7,0,0,1,1.42,4.23,3.77,3.77,0,0,1-3.52,2.89H1434a.25.25,0,0,1-.24-.26.25.25,0,0,1,.25-.25h0a3.47,3.47,0,0,0,1.84-6.18,3.84,3.84,0,0,0-4.75.62l-.63.66.22-.9A5,5,0,0,1,1433,838.83Z" transform="translate(0)"/><path class="cls-12" d="M1427.53,863s-.71,20.67-25.71,22.65l1.45-12.16S1419.48,876.84,1427.53,863Z" transform="translate(0)"/><path class="cls-12" d="M1403.27,839.16a.25.25,0,0,1,.21.29l-1.57,12.14,5,1.71a.26.26,0,0,1,.16.32.25.25,0,0,1-.24.18l-.08,0-5.38-1.84,1.63-12.56A.25.25,0,0,1,1403.27,839.16Z" transform="translate(0)"/><polygon class="cls-10" points="1437.53 867.6 1431.6 868.1 1431.6 850.65 1435.79 850.17 1437.53 867.6"/><path class="cls-11" d="M1431.91,808.24c9.28-2.86,10.47,14.8,10.47,14.8s-17.16,16.57-12.34,4.5S1431.91,808.24,1431.91,808.24Z" transform="translate(0)"/><path class="cls-11" d="M1396.21,806.53s-1.68-13.1,9.82-9.22,32.83,3.38,38.82,14.39S1430,827.54,1430,827.54s-38.1-2.33-40.44-11.55S1396.21,806.53,1396.21,806.53Z" transform="translate(0)"/><path class="cls-11" d="M1437.77,826.06l-6.94,8.06-1.64,7.18-1.66-2.14s-3.26-10.31-1-15.27S1437.77,826.06,1437.77,826.06Z" transform="translate(0)"/><path class="cls-23" d="M1405.82,862c-3.82.36-5.59-3.86-5.59-3.86.16,0,10.42-1,10.42-1S1409.63,861.65,1405.82,862Z" transform="translate(0)"/><polygon class="cls-10" points="1834.99 1050.82 1826.57 980.18 1788.24 986.2 1780.6 1072.17 1834.99 1050.82"/><polygon class="cls-10" points="1599.49 1050.82 1607.91 980.18 1646.24 986.2 1653.88 1072.17 1599.49 1050.82"/><polygon class="cls-10" points="1796.62 1260.35 1805.47 1491.37 1771.61 1493.46 1734.31 1270.94 1796.62 1260.35"/><path class="cls-20" d="M1748.72,1356.9l3.26,19.46,19.63,117.1,33.86-2.09-4.77-124.51-.76-19.77C1791.33,1351,1774.71,1356.38,1748.72,1356.9Z" transform="translate(0)"/><path class="cls-21" d="M1833.16,1495.62l-28.06-12.45c-11.19,11.11-23.61,1.82-23.61,1.82-8.4-3.86-13.91,3.7-13.91,3.7v15.75h75.78C1843.36,1499.08,1833.16,1495.62,1833.16,1495.62Z" transform="translate(0)"/><path class="cls-14" d="M1845.19,1504.44h-77.61V1510h77.61a1.46,1.46,0,0,0,1.46-1.46v-2.59A1.46,1.46,0,0,0,1845.19,1504.44Z" transform="translate(0)"/><path class="cls-14" d="M1748.72,1356.9l3.26,19.46c15.16-1.14,33.1-3.77,48.72-9.5l-.76-19.77c-8.61,3.86-25.23,9.29-51.22,9.81Z" transform="translate(0)"/><polygon class="cls-10" points="1637.54 1260.35 1628.69 1491.37 1662.55 1493.46 1699.85 1270.94 1637.54 1260.35"/><path class="cls-20" d="M1685.44,1356.9l-3.26,19.46-19.63,117.1-33.86-2.09,4.77-124.51.76-19.77C1642.83,1351,1659.44,1356.38,1685.44,1356.9Z" transform="translate(0)"/><path class="cls-21" d="M1784.27,1115.78H1647.64l-19,146.47c31.79,28,75.66,15.26,75.66,15.26l4.45-53.4h14.41l4.45,53.4s43.87,12.72,75.66-15.26Z" transform="translate(0)"/><path class="cls-22" d="M1601,1495.62l28.06-12.45c11.19,11.11,23.61,1.82,23.61,1.82,8.39-3.86,13.9,3.7,13.9,3.7v15.75H1590.8C1590.8,1499.08,1601,1495.62,1601,1495.62Z" transform="translate(0)"/><path class="cls-14" d="M1589,1504.44h77.6V1510H1589a1.46,1.46,0,0,1-1.46-1.46v-2.59A1.46,1.46,0,0,1,1589,1504.44Z" transform="translate(0)"/><path class="cls-14" d="M1685.44,1356.9l-3.26,19.46c-15.16-1.14-33.1-3.77-48.72-9.5l.76-19.77c8.61,3.86,25.22,9.29,51.22,9.81Z" transform="translate(0)"/><path class="cls-20" d="M1793.52,998l7.18,159.62s-59.74,15.86-84.75,14.16c-25,1.7-85-15.8-85-15.8l7.49-158c-33.91-1.27-36.87-11.87-36.87-11.87s11.44-69.51,27.55-85.61c8-8,24-11.51,37.85-13,2.39-.25,4.71-.45,6.91-.6,4-.27,7.06,1.22,10.1,1.19a25.18,25.18,0,0,0,8.44-1.43L1715,890l21.32.65s5.07-3.86,10.36-3.78c2,0,4.4.09,7,.2,15.66.66,39,3.22,49.18,13.4,16.11,16.1,27.55,85.61,27.55,85.61S1827.43,996.71,1793.52,998Z" transform="translate(0)"/><path class="cls-10" d="M1635.65,1046.62c-23-24.24-24-10.26-24-10.26-18,9.43-13.48,27.53-3.24,37.68,9,9,68.38,50.45,68.38,50.45l16.14-22S1658.69,1070.86,1635.65,1046.62Z" transform="translate(0)"/><path class="cls-10" d="M1720.52,1129.46s8,7.55,6.75,1.48a3.39,3.39,0,0,0,2.4-3.59c-.19-2.92-3.41-8.92-4.27-9.73s-14.75-9.09-14.75-9.09-18.72-6.89-19.64-7.48l-17.18,21.27c.94.68,1.84,1.39,3,2.17,5.4,3.64,12.76,8,16.16,9.22h0a5.56,5.56,0,0,0,1,.29h0l.22,0a22,22,0,0,1,4.09.72c4.7.57,9.66.54,11.1,1s5.66-3.6,6.69-2c.86,1.31-.07,8.35,1.38,7.77a2.91,2.91,0,0,0,1.84-2.43A90.74,90.74,0,0,0,1720.52,1129.46Z" transform="translate(0)"/><path class="cls-12" d="M1727.61,1130.78c-.16-.31-3.86-7.45-4.91-8.66a29.48,29.48,0,0,0-4.58-3.44.37.37,0,0,0-.52.12.35.35,0,0,0,0,.3.39.39,0,0,0,.17.22,30,30,0,0,1,4.4,3.28,91,91,0,0,1,4.81,8.51.37.37,0,1,0,.67-.33Z" transform="translate(0)"/><path class="cls-12" d="M1724.15,1135.87c-.17-.26-4-6.28-5.38-7.7a27.12,27.12,0,0,0-4.25-3.12.39.39,0,0,0-.52.13.37.37,0,0,0,0,.29.33.33,0,0,0,.17.23,26.64,26.64,0,0,1,4.1,3c1.36,1.36,5.23,7.5,5.27,7.56a.37.37,0,1,0,.64-.39Z" transform="translate(0)"/><path class="cls-12" d="M1719.69,1138.93c-.13-.23-3.28-5.54-4.78-7a18.86,18.86,0,0,0-3.46-2.48.38.38,0,0,0-.51.15.35.35,0,0,0,0,.28.36.36,0,0,0,.19.23,18.33,18.33,0,0,1,3.3,2.37c1.41,1.33,4.62,6.72,4.65,6.77a.37.37,0,0,0,.51.14A.36.36,0,0,0,1719.69,1138.93Z" transform="translate(0)"/><path class="cls-10" d="M1798.82,1046.62c23-24.24,24-10.26,24-10.26,18,9.43,13.48,27.53,3.24,37.68-9,9-68.38,50.45-68.38,50.45l-16.13-22S1775.78,1070.86,1798.82,1046.62Z" transform="translate(0)"/><path class="cls-10" d="M1710.65,1136.06s-4.74,1-3.45-5.12a3.38,3.38,0,0,1-2.39-3.59c.18-2.92,3.4-8.92,4.27-9.73s14.75-9.09,14.75-9.09,18.72-6.89,19.63-7.48l17.18,21.27c-1,.69-1.82,1.38-3,2.17-5.39,3.63-12.77,8-16.15,9.22h0a5.34,5.34,0,0,1-1,.29h0l-.22,0a22,22,0,0,0-4.09.72c-4.7.57-9.65.54-11.1,1s-3.06,2.82-4.1,4.39a3.33,3.33,0,0,1-4,1.35,2.91,2.91,0,0,1-1.84-2.43S1710.79,1139.93,1710.65,1136.06Z" transform="translate(0)"/><path class="cls-12" d="M1706.86,1130.78c.16-.31,3.86-7.45,4.91-8.66a29.48,29.48,0,0,1,4.58-3.44.37.37,0,0,1,.52.12.35.35,0,0,1,0,.3.42.42,0,0,1-.16.22,29.47,29.47,0,0,0-4.41,3.28,93.38,93.38,0,0,0-4.81,8.51.37.37,0,0,1-.51.17A.38.38,0,0,1,1706.86,1130.78Z" transform="translate(0)"/><path class="cls-12" d="M1710.33,1135.87c.16-.26,4-6.28,5.37-7.7a27.61,27.61,0,0,1,4.25-3.12.39.39,0,0,1,.52.13.42.42,0,0,1,0,.29.38.38,0,0,1-.18.23,27.15,27.15,0,0,0-4.1,3c-1.36,1.36-5.23,7.5-5.27,7.56a.37.37,0,1,1-.63-.39Z" transform="translate(0)"/><path class="cls-12" d="M1714.78,1138.93c.13-.23,3.29-5.54,4.78-7a18.86,18.86,0,0,1,3.46-2.48.37.37,0,0,1,.51.15.35.35,0,0,1,0,.28.36.36,0,0,1-.19.23,18.72,18.72,0,0,0-3.3,2.37c-1.41,1.33-4.61,6.72-4.65,6.77a.37.37,0,1,1-.64-.37Z" transform="translate(0)"/><path class="cls-12" d="M1718.07,1142.27a3.59,3.59,0,0,1-1.32-.25,3.37,3.37,0,0,1-2-2.35,4.84,4.84,0,0,1-3.32-.83,3.37,3.37,0,0,1-1.2-2.23,3.62,3.62,0,0,1-2.74-.94c-.9-.92-1.18-2.39-.82-4.4a3.87,3.87,0,0,1-2.32-4c.19-3,3.41-9.11,4.42-10.07s13.41-8.3,14.84-9.15c7.56-2.79,18.92-7,19.62-7.47l.55.83c-.94.62-17.82,6.83-19.74,7.54-5.48,3.27-14,8.41-14.58,9-.77.73-3.94,6.59-4.12,9.4a2.89,2.89,0,0,0,2,3.08l.45.13-.09.46c-.4,1.87-.24,3.19.47,3.91a2.91,2.91,0,0,0,2.39.61l.57-.11,0,.58a2.55,2.55,0,0,0,.86,2,4.3,4.3,0,0,0,3,.57l.5-.1.09.5a2.43,2.43,0,0,0,1.52,2.06,2.87,2.87,0,0,0,3.38-1.16l.83.55A3.94,3.94,0,0,1,1718.07,1142.27Z" transform="translate(0)"/><path class="cls-22" d="M1753.66,887.1c-3.51,10.89-14.2,32.66-43.39,32.47-31.53-.2-41.07-24.25-43.35-32.07,2.39-.25,4.71-.45,6.91-.6,4-.27,7.06,1.22,10.1,1.19a25.18,25.18,0,0,0,8.44-1.43L1715,890l21.32.65s5.07-3.86,10.36-3.78C1748.76,886.93,1751.11,887,1753.66,887.1Z" transform="translate(0)"/><path class="cls-10" d="M1710.27,886.42l-36.44.48s3.54,24.28,36.44,26.47c32.89-2.19,36.44-26.47,36.44-26.47Z" transform="translate(0)"/><path d="M1726.16,807.86l2.7,16-2,13.42,4.68,2.58C1738.55,814.68,1726.16,807.86,1726.16,807.86Z" transform="translate(0)"/><path class="cls-10" d="M1727,855l-.25-42.87-45,10.29-1,37.14s-.86,12.54,10,14.41l-2.49,16.69a13.08,13.08,0,0,0,8.5,14.32,33.52,33.52,0,0,0,10.26,1.88c12.48.35,19.49-8.89,20.66-13.57s-1.34-27.25-1.34-27.25Z" transform="translate(0)"/><path d="M1698,838.38a.54.54,0,0,0-.1.74.52.52,0,0,0,.73.1c5.92-4.54,12,2.1,12.3,2.38a.51.51,0,0,0,.73,0,.51.51,0,0,0,0-.73C1711.67,840.82,1704.72,833.26,1698,838.38Z" transform="translate(0)"/><path d="M1682.11,835.17a.52.52,0,1,0,.65.81c2.52-2.05,6.86,1.89,6.9,1.93a.57.57,0,0,0,.34.14.54.54,0,0,0,.39-.17.52.52,0,0,0,0-.74C1690.16,837,1685.32,832.55,1682.11,835.17Z" transform="translate(0)"/><path d="M1702.37,842.07a1.57,1.57,0,1,0,1.52,1.61A1.56,1.56,0,0,0,1702.37,842.07Z" transform="translate(0)"/><path d="M1685.84,840.05a1.57,1.57,0,1,0,1.52,1.61A1.56,1.56,0,0,0,1685.84,840.05Z" transform="translate(0)"/><path class="cls-10" d="M1728.56,835.48a9.42,9.42,0,1,0,9.1,9.67A9.38,9.38,0,0,0,1728.56,835.48Z" transform="translate(0)"/><path class="cls-12" d="M1731.23,843.5a4.38,4.38,0,0,0-4.92,0,4.25,4.25,0,0,1,2-2.27,5.81,5.81,0,0,1,4.16-.15.27.27,0,0,0,.18-.5,6.28,6.28,0,0,0-4.57.19,5.09,5.09,0,0,0-2.48,3.36l-.25.91.68-.65a4,4,0,0,1,5-.49,3.2,3.2,0,0,1,1.15,3.74,3.35,3.35,0,0,1-3.23,2.48h-.06a.26.26,0,0,0-.27.25.27.27,0,0,0,.25.27h.06a3.9,3.9,0,0,0,3.75-2.84A3.7,3.7,0,0,0,1731.23,843.5Z" transform="translate(0)"/><path d="M1716.82,834.23c-.64,5.51-2.26,20.36-3.65,21-2,.88-30.34-4-34.11-1.65,0,0-4.08,25.06,12.49,26.41,23.71,1.92,26.38-11.65,28.1-22.77l.87-23-.58-6.71A12.06,12.06,0,0,0,1716.82,834.23Z" transform="translate(0)"/><path class="cls-12" d="M1695.08,853.53l-5.17-1.88,2-12.29a.26.26,0,0,0-.22-.3.25.25,0,0,0-.3.21L1689.33,852l5.57,2h.08a.25.25,0,0,0,.25-.17A.25.25,0,0,0,1695.08,853.53Z" transform="translate(0)"/><path class="cls-23" d="M1693.51,863.14c3.76.2,5.37-3.9,5.37-3.9-.16,0-10.29-.55-10.29-.55S1689.75,862.94,1693.51,863.14Z" transform="translate(0)"/><path d="M1720,827.9s-3.61,21.23-3.74,22.44-12.79,35.84-1.58,22.12,8.09-23.58,8.37-29.82,6.31-7.08,6.31-7.08l-4.54-11.82Z" transform="translate(0)"/><path d="M1691.38,806.57h0c-14.31,6.52-10.26,20.7-9.8,21.13l.18-.13c-.08.32-.15.65-.21,1a15.55,15.55,0,0,1,1.93-2.21l5.67-4.1a29.44,29.44,0,0,1,12.78-3.27,39.36,39.36,0,0,1,13.86,1.51c.93,3.22,1.58,9.56,0,22-2.34,18.94,6.58-3.87,9.84-12.61a22.09,22.09,0,0,1,1.2,5.66s9-17.4-.72-27.63C1721.29,802.75,1704,799.44,1691.38,806.57Z" transform="translate(0)"/><path class="cls-10" d="M1708.46,819.05c-9.26-1.52-26.36,2.81-26.77,4.47s-.25,9.29-.25,9.29,17.57-2.5,17.78-2.49S1717.72,820.58,1708.46,819.05Z" transform="translate(0)"/><polygon class="cls-10" points="1714.41 825.04 1723.2 813.05 1713.99 821.16 1714.41 825.04"/><path d="M1723,790.84c-9.91-4.19-8.58,13.88-8.58,13.88s1.53,9.13,10.76,3.89S1732.94,795,1723,790.84Z" transform="translate(0)"/><polygon class="cls-10" points="2138.81 1050.82 2130.39 980.18 2092.06 986.2 2084.42 1072.17 2138.81 1050.82"/><polygon class="cls-10" points="1903.31 1050.82 1911.72 980.18 1950.06 986.2 1957.69 1072.17 1903.31 1050.82"/><polygon class="cls-10" points="2100.44 1260.35 2109.29 1491.37 2075.43 1493.46 2038.13 1270.94 2100.44 1260.35"/><path class="cls-20" d="M2052.54,1356.9l3.26,19.46,19.63,117.1,33.85-2.09-4.76-124.51-.76-19.77C2095.15,1351,2078.53,1356.38,2052.54,1356.9Z" transform="translate(0)"/><path class="cls-21" d="M2137,1495.62l-28-12.45c-11.19,11.11-23.62,1.82-23.62,1.82-8.39-3.86-13.9,3.7-13.9,3.7v15.75h75.77C2147.17,1499.08,2137,1495.62,2137,1495.62Z" transform="translate(0)"/><path class="cls-14" d="M2149,1504.44H2071.4V1510H2149a1.46,1.46,0,0,0,1.46-1.46v-2.59A1.46,1.46,0,0,0,2149,1504.44Z" transform="translate(0)"/><path class="cls-14" d="M2052.53,1356.9l3.27,19.46c15.15-1.14,33.09-3.77,48.72-9.5l-.76-19.77c-8.61,3.86-25.23,9.29-51.22,9.81Z" transform="translate(0)"/><polygon class="cls-10" points="1941.36 1260.35 1932.51 1491.37 1966.37 1493.46 2003.67 1270.94 1941.36 1260.35"/><path class="cls-20" d="M1989.25,1356.9l-3.26,19.46-19.62,117.1-33.86-2.09,4.77-124.51.75-19.77C1946.65,1351,1963.26,1356.38,1989.25,1356.9Z" transform="translate(0)"/><path class="cls-21" d="M2088.08,1115.78H1951.46l-19,146.47c31.79,28,75.65,15.26,75.65,15.26l4.46-53.4H2027l4.45,53.4s43.86,12.72,75.65-15.26Z" transform="translate(0)"/><path class="cls-21" d="M1904.82,1495.62l28.06-12.45c11.18,11.11,23.61,1.82,23.61,1.82,8.39-3.86,13.9,3.7,13.9,3.7v15.75h-75.77C1894.62,1499.08,1904.82,1495.62,1904.82,1495.62Z" transform="translate(0)"/><path class="cls-14" d="M1892.79,1504.44h77.6V1510h-77.6a1.46,1.46,0,0,1-1.46-1.46v-2.59A1.46,1.46,0,0,1,1892.79,1504.44Z" transform="translate(0)"/><path class="cls-14" d="M1989.26,1356.9l-3.27,19.46c-15.15-1.14-33.09-3.77-48.71-9.5l.75-19.77c8.62,3.86,25.23,9.29,51.22,9.81Z" transform="translate(0)"/><path class="cls-20" d="M2097.33,998l7.19,159.62s-59.74,15.86-84.75,14.16c-25,1.7-85-15.8-85-15.8l7.48-158c-33.9-1.27-36.87-11.87-36.87-11.87s11.44-69.51,27.55-85.61c8-8,24-11.51,37.86-13,2.38-.25,4.71-.45,6.91-.6,4-.27,7.06,1.22,10.1,1.19a25.18,25.18,0,0,0,8.44-1.43l22.66,3.37,21.32.65s5.06-3.86,10.36-3.78c2,0,4.39.09,6.95.2,15.66.66,39,3.22,49.18,13.4,16.11,16.1,27.55,85.61,27.55,85.61S2131.24,996.71,2097.33,998Z" transform="translate(0)"/><path class="cls-10" d="M1939.47,1046.62c-23-24.24-24-10.26-24-10.26-18,9.43-13.49,27.53-3.25,37.68,9,9,68.39,50.45,68.39,50.45l16.13-22S1962.51,1070.86,1939.47,1046.62Z" transform="translate(0)"/><path class="cls-10" d="M2024.34,1129.46s8,7.55,6.75,1.48a3.38,3.38,0,0,0,2.39-3.59c-.18-2.92-3.4-8.92-4.27-9.73s-14.75-9.09-14.75-9.09-18.72-6.89-19.63-7.48l-17.18,21.27c.92.67,1.86,1.4,3,2.17,5.4,3.64,12.75,8,16.15,9.22h0a5.34,5.34,0,0,0,1,.29,2,2,0,0,0,.26,0,22,22,0,0,1,4.09.72c4.7.57,9.65.54,11.1,1s5.65-3.6,6.69-2c.86,1.31-.07,8.35,1.38,7.77a2.91,2.91,0,0,0,1.84-2.43A93.66,93.66,0,0,0,2024.34,1129.46Z" transform="translate(0)"/><path class="cls-12" d="M2031.43,1130.78c-.16-.31-3.86-7.45-4.91-8.66a29.48,29.48,0,0,0-4.58-3.44.37.37,0,0,0-.52.12.35.35,0,0,0,0,.3.42.42,0,0,0,.16.22,29.47,29.47,0,0,1,4.41,3.28,93.38,93.38,0,0,1,4.81,8.51.37.37,0,0,0,.51.17A.38.38,0,0,0,2031.43,1130.78Z" transform="translate(0)"/><path class="cls-12" d="M2028,1135.87c-.16-.26-4-6.28-5.37-7.7a27.61,27.61,0,0,0-4.25-3.12.39.39,0,0,0-.52.13.42.42,0,0,0,0,.29.38.38,0,0,0,.18.23,27.15,27.15,0,0,1,4.1,3c1.36,1.36,5.23,7.5,5.27,7.56a.37.37,0,1,0,.63-.39Z" transform="translate(0)"/><path class="cls-12" d="M2023.51,1138.93c-.13-.23-3.29-5.54-4.78-7a18.86,18.86,0,0,0-3.46-2.48.37.37,0,0,0-.51.15.35.35,0,0,0,0,.28.36.36,0,0,0,.19.23,18.72,18.72,0,0,1,3.3,2.37c1.41,1.33,4.61,6.72,4.64,6.77a.38.38,0,0,0,.52.14A.36.36,0,0,0,2023.51,1138.93Z" transform="translate(0)"/><path class="cls-10" d="M2102.64,1046.62c23-24.24,24-10.26,24-10.26,18,9.43,13.48,27.53,3.24,37.68-9,9-68.38,50.45-68.38,50.45l-16.14-22S2079.6,1070.86,2102.64,1046.62Z" transform="translate(0)"/><path class="cls-10" d="M2014.46,1136.06s-4.73,1-3.44-5.12a3.39,3.39,0,0,1-2.4-3.59c.19-2.92,3.41-8.92,4.27-9.73s14.75-9.09,14.75-9.09,18.72-6.89,19.64-7.48l17.18,21.27c-.93.67-1.85,1.4-3,2.17-5.4,3.64-12.75,8-16.16,9.22h0a5.56,5.56,0,0,1-1,.29h0l-.22,0a22,22,0,0,0-4.09.72c-4.7.57-9.66.54-11.1,1s-3.07,2.82-4.1,4.39a3.33,3.33,0,0,1-4,1.35,2.91,2.91,0,0,1-1.84-2.43S2014.61,1139.93,2014.46,1136.06Z" transform="translate(0)"/><path class="cls-12" d="M2010.68,1130.78c.16-.31,3.86-7.45,4.91-8.66a29.48,29.48,0,0,1,4.58-3.44.37.37,0,0,1,.52.12.35.35,0,0,1,0,.3.39.39,0,0,1-.17.22,30,30,0,0,0-4.4,3.28,91,91,0,0,0-4.81,8.51.37.37,0,1,1-.67-.33Z" transform="translate(0)"/><path class="cls-12" d="M2014.14,1135.87c.17-.26,4-6.28,5.38-7.7a27.12,27.12,0,0,1,4.25-3.12.39.39,0,0,1,.52.13.37.37,0,0,1,0,.29.33.33,0,0,1-.17.23,26.64,26.64,0,0,0-4.1,3c-1.36,1.36-5.23,7.5-5.27,7.56a.37.37,0,1,1-.64-.39Z" transform="translate(0)"/><path class="cls-12" d="M2018.59,1138.93c.14-.23,3.29-5.54,4.79-7a18.86,18.86,0,0,1,3.46-2.48.38.38,0,0,1,.51.15.39.39,0,0,1,0,.28.36.36,0,0,1-.19.23,18.33,18.33,0,0,0-3.3,2.37c-1.41,1.33-4.62,6.72-4.65,6.77a.37.37,0,0,1-.51.14A.37.37,0,0,1,2018.59,1138.93Z" transform="translate(0)"/><path class="cls-12" d="M2021.89,1142.27a3.56,3.56,0,0,1-1.32-.25,3.37,3.37,0,0,1-2-2.35,4.84,4.84,0,0,1-3.32-.83,3.33,3.33,0,0,1-1.2-2.23,3.62,3.62,0,0,1-2.74-.94q-1.35-1.38-.83-4.4a3.88,3.88,0,0,1-2.32-4c.19-3,3.42-9.11,4.43-10.07s13.41-8.3,14.84-9.15c7.55-2.79,18.92-7,19.62-7.47l.54.83c-.93.62-17.81,6.83-19.73,7.54-5.48,3.27-14,8.41-14.59,9-.76.73-3.93,6.59-4.11,9.4a2.85,2.85,0,0,0,2,3.08l.46.12-.1.47c-.39,1.87-.23,3.19.48,3.91a2.9,2.9,0,0,0,2.39.61l.57-.11,0,.58a2.59,2.59,0,0,0,.87,2,4.3,4.3,0,0,0,3,.57l.5-.1.08.5a2.46,2.46,0,0,0,1.53,2.06,2.85,2.85,0,0,0,3.37-1.16l.84.55A3.94,3.94,0,0,1,2021.89,1142.27Z" transform="translate(0)"/><path class="cls-22" d="M2057.48,887.1c-3.52,10.89-14.2,32.66-43.39,32.47-31.53-.2-41.08-24.25-43.35-32.07,2.38-.25,4.71-.45,6.91-.6,4-.27,7.06,1.22,10.1,1.19a25.18,25.18,0,0,0,8.44-1.43l22.66,3.37,21.32.65s5.06-3.86,10.36-3.78C2052.58,886.93,2054.92,887,2057.48,887.1Z" transform="translate(0)"/><path class="cls-10" d="M2014.09,886.42l-36.44.48s3.54,24.28,36.44,26.47c32.89-2.19,36.44-26.47,36.44-26.47Z" transform="translate(0)"/><path class="cls-10" d="M1987.78,821.65l-1.12,35.78s-.88,12.07,9.58,13.91l-2.47,16.08a12.61,12.61,0,0,0,8.13,13.83,32.67,32.67,0,0,0,9.88,1.85c12,.38,18.81-8.48,20-13s-1.18-26.26-1.18-26.26l.7-10.63-.07-41.3Z" transform="translate(0)"/><path class="cls-24" d="M1987.62,826.77c-.44-.41-4.29-14.09,9.53-20.32h0c12.17-6.82,28.82-3.56,33.5,1.38,9.37,9.9.58,26.63.58,26.63a21.17,21.17,0,0,0-1.13-5.46c-1.51,4-4.25,11-6.47,15.35l-3.35-.63c.07-.76.16-1.62.28-2.62,1.53-12,.93-18.07,0-21.17a38.15,38.15,0,0,0-13.35-1.51,28.5,28.5,0,0,0-12.33,3.1l-5.47,3.93a14.39,14.39,0,0,0-1.87,2.12c.06-.32.13-.63.21-.94Z" transform="translate(0)"/><path class="cls-24" d="M2030.65,807.84s11.9,6.63,5.08,30.85l-6.77-2.5,4.23-12.93Z" transform="translate(0)"/><path class="cls-11" d="M2016.23,840.45a.49.49,0,0,0,.36-.13.5.5,0,0,0,0-.71c-.06-.07-6.73-7.38-13.18-2.47a.5.5,0,0,0,.6.8c5.72-4.34,11.59,2.07,11.84,2.35A.48.48,0,0,0,2016.23,840.45Z" transform="translate(0)"/><path class="cls-11" d="M1995.69,836.78a.51.51,0,0,0,.36-.87c-.2-.19-4.85-4.45-8-1.94a.52.52,0,0,0-.08.71.51.51,0,0,0,.71.08c2.43-2,6.59,1.85,6.64,1.89A.48.48,0,0,0,1995.69,836.78Z" transform="translate(0)"/><path d="M2006,842.17a1.51,1.51,0,1,0,3,.09,1.51,1.51,0,1,0-3-.09Z" transform="translate(0)"/><path d="M1990.13,840.16a1.5,1.5,0,1,0,1.55-1.47A1.51,1.51,0,0,0,1990.13,840.16Z" transform="translate(0)"/><path class="cls-10" d="M2023.55,843.25a9,9,0,1,0,9.3-8.79A9,9,0,0,0,2023.55,843.25Z" transform="translate(0)"/><path class="cls-12" d="M2033.06,849.11a3.77,3.77,0,0,0,3.62-2.72,3.57,3.57,0,0,0-1.29-4.19,4.21,4.21,0,0,0-4.74,0,4.11,4.11,0,0,1,1.89-2.18,5.59,5.59,0,0,1,4-.13.25.25,0,0,0,.32-.15.26.26,0,0,0-.15-.33,6.1,6.1,0,0,0-4.4.16,4.9,4.9,0,0,0-2.41,3.23l-.24.87.66-.61a3.89,3.89,0,0,1,4.78-.46,3.08,3.08,0,0,1,1.09,3.61,3.22,3.22,0,0,1-3.13,2.37h0a.26.26,0,0,0,0,.51Z" transform="translate(0)"/><path class="cls-12" d="M2000.43,852.2a.25.25,0,0,0,.24-.17.25.25,0,0,0-.15-.32l-5-1.83,2-11.83a.25.25,0,1,0-.49-.08l-2,12.24,5.36,2Z" transform="translate(0)"/><path class="cls-23" d="M2004.16,857.23c-.16,0-9.91-.57-9.91-.57s1.1,4.1,4.72,4.31S2004.16,857.23,2004.16,857.23Z" transform="translate(0)"/><path class="cls-10" d="M1987.47,831.7s-.13-7.35.28-9,16.89-5.7,25.8-4.19-8.75,10.82-9,10.81S1987.47,831.7,1987.47,831.7Z" transform="translate(0)"/><polygon class="cls-10" points="2018.88 820.61 2027.78 812.84 2019.26 824.35 2018.88 820.61"/><path class="cls-24" d="M2031.23,834.47,2026.89,845l-6.61-1.25,4.84-21.48s10.25.92,8.16,6.33S2031.23,834.47,2031.23,834.47Z" transform="translate(0)"/><path class="cls-12" d="M2020.4,860.55s-.7,20.67-25.7,22.65l1.44-12.16S2012.35,874.41,2020.4,860.55Z" transform="translate(0)"/><polygon class="cls-10" points="1174.59 1093.1 1178.58 1197.21 1163.32 1198.15 1146.51 1097.87 1174.59 1093.1"/><path class="cls-20" d="M1153,1136.61l1.47,8.77,8.84,52.77,15.26-.94-2.14-56.11-.35-8.91C1172.2,1133.93,1164.71,1136.38,1153,1136.61Z" transform="translate(0)"/><path class="cls-21" d="M1191.05,1199.13l-12.64-5.61c-5,5-10.64.81-10.64.81-3.79-1.74-6.27,1.67-6.27,1.67v7.1h34.15C1195.65,1200.69,1191.05,1199.13,1191.05,1199.13Z" transform="translate(0)"/><path class="cls-14" d="M1196.47,1203.1h-35v2.48h35a.65.65,0,0,0,.66-.65v-1.17A.65.65,0,0,0,1196.47,1203.1Z" transform="translate(0)"/><path class="cls-14" d="M1153,1136.61l1.47,8.77a84.2,84.2,0,0,0,22-4.28l-.35-8.91c-3.88,1.74-11.37,4.19-23.08,4.42Z" transform="translate(0)"/><path class="cls-25" d="M1146.51,1140.59a2.07,2.07,0,0,0,.29.14Z" transform="translate(0)"/><polygon class="cls-10" points="1108.79 1093.1 1104.8 1197.21 1120.06 1198.15 1136.87 1097.87 1108.79 1093.1"/><path class="cls-20" d="M1130.37,1136.61l-1.47,8.77-8.85,52.77-15.26-.94,2.15-56.11.34-8.91C1111.17,1133.93,1118.65,1136.38,1130.37,1136.61Z" transform="translate(0)"/><path class="cls-21" d="M1092.32,1199.13l12.64-5.61c5,5,10.64.81,10.64.81,3.78-1.74,6.27,1.67,6.27,1.67v7.1h-34.15C1087.72,1200.69,1092.32,1199.13,1092.32,1199.13Z" transform="translate(0)"/><path class="cls-14" d="M1086.89,1203.1h35v2.48h-35a.65.65,0,0,1-.65-.65v-1.17A.65.65,0,0,1,1086.89,1203.1Z" transform="translate(0)"/><path class="cls-14" d="M1130.37,1136.61l-1.47,8.77c-6.83-.51-14.92-1.7-22-4.28l.34-8.91c3.89,1.74,11.37,4.19,23.09,4.42Z" transform="translate(0)"/><path class="cls-21" d="M1171.67,1048.94l6.25,46.22s-21.31,7.8-33.19,4.66l-1.67-17.13-3.16-3.57-2.12,21.43s-22.36-1.77-30.31-7.54l7-49.49,54.45-.93Z" transform="translate(0)"/><path class="cls-25" d="M1136.86,1140.59a2.07,2.07,0,0,1-.29.14Z" transform="translate(0)"/><path class="cls-10" d="M1180.91,980.1l-17.71,8.83s6,19.17,9.3,23.21,46.6,12.47,46.6,12.47l2.89-13.32-34.11-12.57Z" transform="translate(0)"/><path class="cls-10" d="M1238.79,1019.58l-7.07-1.71a.33.33,0,0,1-.24-.39l.08-.33a.33.33,0,0,1,.35-.24l6.72.72a1.33,1.33,0,0,0,1.47-1.07A1.3,1.3,0,0,0,1239,1015s-10.19-1.65-11.76-2l2.8-2.53a1.31,1.31,0,0,0-1.37-2.23l-7.64,3.52c-.4.24-.62,1.16-.63,1.93a108.73,108.73,0,0,0-3.14,10.53l8.07,1.66a19.55,19.55,0,0,1,6.56,2.66l.5.32a1.31,1.31,0,0,0,1.85-.48,1.32,1.32,0,0,0-.48-1.75l-3.65-2.32a.32.32,0,0,1-.14-.35.32.32,0,0,1,.44-.21l5.8,2.69a1.06,1.06,0,0,0,1.52-.74,1.68,1.68,0,0,0-.89-1.85l-5.92-2.74a.34.34,0,0,1-.18-.37l0-.1a.31.31,0,0,1,.38-.23l7,1.7a1.35,1.35,0,0,0,1.6-.87A1.3,1.3,0,0,0,1238.79,1019.58Z" transform="translate(0)"/><path class="cls-12" d="M1188.21,997.9l-6.39,2.89a.45.45,0,0,0,.13.85.59.59,0,0,0,.23,0l6.39-2.9a.44.44,0,1,0-.36-.8Z" transform="translate(0)"/><path class="cls-10" d="M1104.91,980.1l17.71,8.83s-6,19.17-9.3,23.21-46.59,12.47-46.59,12.47l-2.89-13.32L1098,998.72Z" transform="translate(0)"/><path class="cls-10" d="M1047,1019.58l7.08-1.71a.32.32,0,0,0,.23-.39l-.08-.33a.32.32,0,0,0-.34-.24l-6.73.72a1.33,1.33,0,0,1-1.47-1.07,1.3,1.3,0,0,1,1.15-1.52s10.19-1.65,11.77-2l-2.8-2.53a1.31,1.31,0,1,1,1.36-2.23l7.64,3.52c.4.24.63,1.16.63,1.93a105.52,105.52,0,0,1,3.14,10.53l-8.07,1.66a19.55,19.55,0,0,0-6.56,2.66l-.5.32a1.31,1.31,0,0,1-1.85-.48,1.34,1.34,0,0,1,.48-1.75l3.66-2.32a.34.34,0,0,0,.14-.35.33.33,0,0,0-.45-.21l-5.8,2.69a1.06,1.06,0,0,1-1.52-.74,1.69,1.69,0,0,1,.89-1.85l5.92-2.74a.34.34,0,0,0,.18-.37l0-.1a.31.31,0,0,0-.38-.23l-7,1.7a1.35,1.35,0,0,1-1.6-.87A1.3,1.3,0,0,1,1047,1019.58Z" transform="translate(0)"/><path class="cls-12" d="M1097.62,997.9l6.39,2.89a.45.45,0,0,1,.22.59.46.46,0,0,1-.36.26.62.62,0,0,1-.23,0l-6.39-2.9a.44.44,0,0,1-.22-.58A.45.45,0,0,1,1097.62,997.9Z" transform="translate(0)"/><path class="cls-20" d="M1171.52,991.62l2.63,58.5s-21.89,5.82-31.06,5.19c-9.17.63-31.17-5.79-31.17-5.79l2.74-57.9c-12.43-.46-13.51-4.35-13.51-4.35s4.19-25.47,10.1-31.38c2.92-2.92,8.79-4.21,13.87-4.76.87-.09,1.73-.17,2.53-.22,1.48-.1,2.59.45,3.7.43a9.17,9.17,0,0,0,3.1-.52l8.3,1.24,7.82.23a7.11,7.11,0,0,1,3.79-1.38c.75,0,1.61,0,2.55.07,5.74.24,14.29,1.18,18,4.91,5.9,5.91,10.09,31.38,10.09,31.38S1184,991.16,1171.52,991.62Z" transform="translate(0)"/><path class="cls-22" d="M1156.91,951c-1.29,4-5.2,12-15.9,11.9-11.56-.07-15.06-8.88-15.89-11.75.87-.09,1.73-.17,2.53-.22,1.48-.1,2.59.45,3.7.43a9.17,9.17,0,0,0,3.1-.52l8.3,1.24,7.82.23a7.11,7.11,0,0,1,3.79-1.38C1155.11,950.92,1156,950.94,1156.91,951Z" transform="translate(0)"/><path class="cls-10" d="M1141,950.73l-13.36.18s1.3,8.9,13.36,9.7c12-.8,13.35-9.7,13.35-9.7Z" transform="translate(0)"/><path class="cls-10" d="M1136.34,921.73c4.86-1.73,10.33.67,10.33.67s1.95,3,2.14,3.37-2.18-.81-2.18-.81l-15,6.61v-3A7.19,7.19,0,0,1,1136.34,921.73Z" transform="translate(0)"/><path class="cls-10" d="M1131.66,928.22l15.71-4.87.5,15.44-.14,4s1.1,8.11.73,9.81a7.35,7.35,0,0,1-7.12,5.09,11.75,11.75,0,0,1-3.62-.57,4.73,4.73,0,0,1-3.12-5.08l.71-6c-3.83-.57-3.65-5.1-3.65-5.1Z" transform="translate(0)"/><path class="cls-11" d="M1142.38,933.88a.19.19,0,0,1,0,.26.18.18,0,0,1-.13.06.19.19,0,0,1-.13-.06c-.09-.1-2.3-2.43-4.34-.74a.18.18,0,0,1-.26,0,.19.19,0,0,1,0-.26C1139.84,931.2,1142.35,933.85,1142.38,933.88Z" transform="translate(0)"/><path class="cls-11" d="M1134.83,932.73a.19.19,0,0,1,0,.27.17.17,0,0,1-.14.07.16.16,0,0,1-.11-.05s-1.58-1.39-2.45-.63a.17.17,0,0,1-.25,0,.19.19,0,0,1,0-.27C1133,931.13,1134.76,932.67,1134.83,932.73Z" transform="translate(0)"/><path d="M1139.1,934.39a.57.57,0,1,1-.55.57A.57.57,0,0,1,1139.1,934.39Z" transform="translate(0)"/><path d="M1133.27,933.83a.57.57,0,1,1-.54.56A.55.55,0,0,1,1133.27,933.83Z" transform="translate(0)"/><path class="cls-26" d="M1146.67,922.21s4.64-.23,5.82,4-.83,6.41-.87,7.66.78,9.67-4.95,9L1145.13,929l2-5.54Z" transform="translate(0)"/><ellipse class="cls-10" cx="1146.37" cy="934.76" rx="3.29" ry="3.4"/><path class="cls-12" d="M1146.23,933.29a2.19,2.19,0,0,1,1.6-.11.1.1,0,0,1,.06.12.09.09,0,0,1-.12.06,2,2,0,0,0-1.46.1,1.51,1.51,0,0,0-.66.83,1.54,1.54,0,0,1,1.73-.06,1.37,1.37,0,0,1,.52,1.55,1.38,1.38,0,0,1-1.29,1.06h0a.09.09,0,0,1,0-.18h0a1.19,1.19,0,0,0,1.11-.93,1.18,1.18,0,0,0-.44-1.34,1.41,1.41,0,0,0-1.74.23l-.23.24.08-.33A1.82,1.82,0,0,1,1146.23,933.29Z" transform="translate(0)"/><path class="cls-12" d="M1144.21,942.14s-.26,7.58-9.42,8.3l.52-4.45S1141.26,947.22,1144.21,942.14Z" transform="translate(0)"/><path class="cls-12" d="M1135.32,933.41a.09.09,0,0,1,.07.11l-.57,4.45,1.83.62a.1.1,0,0,1,0,.12.08.08,0,0,1-.08.07h0l-2-.67.6-4.61A.09.09,0,0,1,1135.32,933.41Z" transform="translate(0)"/><polygon class="cls-10" points="1147.87 943.84 1145.7 944.02 1145.7 937.62 1147.23 937.45 1147.87 943.84"/><path class="cls-11" d="M1145.81,922.08c3.4-1.05,3.84,5.43,3.84,5.43s-6.29,6.07-4.52,1.64S1145.81,922.08,1145.81,922.08Z" transform="translate(0)"/><path class="cls-26" d="M1132.73,921.45s-.62-4.8,3.6-3.37,12,1.23,14.23,5.27-5.43,5.8-5.43,5.8-14-.85-14.83-4.23A2.54,2.54,0,0,1,1132.73,921.45Z" transform="translate(0)"/><path class="cls-26" d="M1148,928.61l-2.55,3-.6,2.63-.6-.79s-1.2-3.78-.37-5.59S1148,928.61,1148,928.61Z" transform="translate(0)"/><path class="cls-23" d="M1136.25,941.78c-1.4.13-2-1.41-2-1.41S1138,940,1138,940,1137.65,941.65,1136.25,941.78Z" transform="translate(0)"/><path class="cls-6" d="M1740.29,983.49c0,30.07-11.15,46.67-30.74,46.67-17.29,0-29-16.19-29.26-45.44,0-29.66,12.79-46,30.75-46C1729.68,938.73,1740.29,955.33,1740.29,983.49Zm-48,1.36c0,23,7.08,36.06,18,36.06,12.24,0,18.09-14.29,18.09-36.87,0-21.77-5.58-36.06-18-36.06C1699.88,948,1692.26,960.77,1692.26,984.85Z" transform="translate(0)"/><path class="cls-6" d="M2023.52,1030.74v-26h-44.41v-8.53l42.65-61h14v59.41h13.38v10.15h-13.38v26Zm0-36.18V962.65q0-7.5.45-15h-.45c-2.94,5.59-5.29,9.71-7.94,14.12l-23.38,32.5v.29Z" transform="translate(0)"/><path class="cls-6" d="M1427.4,1039.63v-26H1383v-8.53l42.65-61h14v59.41H1453v10.15h-13.38v26Zm0-36.18V971.54q0-7.5.44-15h-.44c-2.94,5.59-5.29,9.71-7.94,14.12l-23.38,32.5v.29Z" transform="translate(0)"/></g><g id="Layer_2"><g id="Perspective_Text"><path d="M1366.79,1656.6l2.68,47.62h-34.28l-4.55-114.15h32.79l32.47,44.51a179.15,179.15,0,0,1,11.64,17.17h.6l-1.48-19.14-3.27-42.54h32.2l10.66,114.15h-34.9l-34.86-49.64-9.79-13.64h-.59C1366.35,1648.74,1366.56,1652.56,1366.79,1656.6Z" transform="translate(0)"/><path d="M1456.55,1645.73c-4.3-42.51,20.21-57,52.19-57,33.54,0,57.48,15.23,63.8,55,5.86,36.82-6.8,63.25-48.53,63.25C1484.34,1707,1461,1689.49,1456.55,1645.73Zm77.82,27.59c2.06-5.53,2.28-14.09.44-27.19-1.67-11.94-4-20.41-7.79-26.09s-9-8.35-16.28-8.54c-4.71,0-12.21,1.16-13.71,3.29-2.7,3.69-2.79,17.62-1.13,31.34,1.46,12.09,3.35,19.41,6.24,24.93,4,8.25,10.1,11.15,17.82,11.15C1527.07,1682.21,1532.07,1680.13,1534.37,1673.32Z" transform="translate(0)"/><path d="M1660,1704.22h-37L1606.89,1614h-31.61l-3.9-23.94h97.38l5.09,23.94h-31.61Z" transform="translate(0)"/><path d="M1708.72,1590.07h79.34l6.49,23.75h-45l5.55,22.15h37.53l5.88,21.84h-37.93l11.64,46.41h-37Z" transform="translate(0)"/><path d="M1811.46,1645.73c-11.8-42.51,10.16-57,42.15-57,33.53,0,60.16,15.23,73.49,55,12.34,36.82,4.35,63.25-37.39,63.25C1850,1707,1823.6,1689.49,1811.46,1645.73Zm82.68,27.59c1.09-5.53-.21-14.09-4.35-27.19-3.78-11.94-7.65-20.41-12.39-26.09s-10.47-8.35-17.79-8.54c-4.7,0-12,1.16-13.13,3.29-2,3.69.32,17.62,4.4,31.34,3.59,12.09,6.77,19.41,10.63,24.93,5.51,8.25,12.07,11.15,19.78,11.15C1888.4,1682.21,1893,1680.13,1894.14,1673.32Z" transform="translate(0)"/><path d="M2028,1590.07l24.66,62.29c15.2,38.39,12,54.2-34.85,54.2-30.62,0-56.8-7.41-70.06-46.11l-24.12-70.38h34.92l22.6,62.69c6.82,18.92,11.51,28,28.77,28,6.08,0,12.93-1.25,14.06-4.14.89-2.47-3.6-14.34-4.9-17.79l-26-68.76Z" transform="translate(0)"/><path d="M2106.91,1656.6l20.1,47.62h-34.29l-46.28-114.15h32.79l48.75,44.51c5.92,5.36,11.21,10.15,17.91,17.17h.6l-8.48-19.14-18.82-42.54h32.2l52.4,114.15h-34.9l-53-49.64-14.78-13.64h-.6C2103.59,1648.74,2105.21,1652.56,2106.91,1656.6Z" transform="translate(0)"/><path d="M2305.59,1644.53c27.69,52.93-.18,59.69-40.42,59.69h-41.06l-53.52-114.15h38.8C2250.52,1590.07,2281.37,1598.24,2305.59,1644.53Zm-38.48,0c-6.71-13.3-12.15-21.36-20.12-26.63-6.06-4.27-13.6-6.4-23.4-6.4-2.94,0-5,.19-7.46.38l32.31,66.39c13.58,1.24,28.78,0,30-2.47C2280.19,1672.09,2270.75,1651.75,2267.11,1644.53Z" transform="translate(0)"/></g><g id="Perspective_Text-2"><path class="cls-6" d="M1368.59,1654.35l2.73,47.64h-34.24l-4.66-114.18h32.75l32.48,44.52a181,181,0,0,1,11.64,17.17h.59l-1.49-19.15-3.31-42.54h32.16L1448,1702h-34.86l-34.87-49.66-9.79-13.64h-.6C1368.14,1646.49,1368.36,1650.31,1368.59,1654.35Z" transform="translate(0)"/><path class="cls-6" d="M1458.24,1643.48c-4.35-42.52,20.12-57,52.07-57,33.49,0,57.42,15.23,63.78,55,5.89,36.82-6.72,63.27-48.4,63.27C1486.06,1704.75,1462.71,1687.25,1458.24,1643.48Zm77.76,27.6c2-5.54,2.25-14.1.41-27.2-1.69-12-4.07-20.42-7.81-26.09-3.76-5.84-9-8.36-16.27-8.55-4.71,0-12.2,1.16-13.7,3.29-2.68,3.7-2.76,17.63-1.09,31.35,1.47,12.09,3.37,19.41,6.27,24.94,4,8.24,10.09,11.14,17.8,11.14C1528.71,1680,1533.7,1677.89,1536,1671.08Z" transform="translate(0)"/><path class="cls-6" d="M1661.49,1702h-36.91l-16.22-90.23h-31.57l-3.92-24h97.26l5.11,24h-31.57Z" transform="translate(0)"/><path class="cls-6" d="M1710,1587.81h79.25l6.51,23.75h-44.9l5.57,22.16H1794l5.91,21.84H1762l11.69,46.43h-36.92Z" transform="translate(0)"/><path class="cls-6" d="M1812.73,1643.48c-11.84-42.52,10.07-57,42-57,33.5,0,60.11,15.23,73.48,55,12.38,36.82,4.43,63.27-37.25,63.27C1851.35,1704.75,1824.92,1687.25,1812.73,1643.48Zm82.63,27.6c1.07-5.54-.24-14.1-4.39-27.2-3.79-12-7.66-20.42-12.41-26.09-4.78-5.84-10.47-8.36-17.78-8.55-4.7,0-12,1.16-13.11,3.29-2,3.7.34,17.63,4.43,31.35,3.6,12.09,6.79,19.41,10.66,24.94,5.51,8.24,12.06,11.14,19.77,11.14C1889.64,1680,1894.26,1677.89,1895.36,1671.08Z" transform="translate(0)"/><path class="cls-6" d="M2029,1587.81l24.73,62.3c15.24,38.4,12.08,54.21-34.73,54.21-30.59,0-56.74-7.41-70-46.12l-24.18-70.39h34.87l22.67,62.7c6.84,18.92,11.54,28,28.77,28,6.08,0,12.91-1.24,14-4.13.89-2.48-3.61-14.35-4.92-17.8l-26.07-68.77Z" transform="translate(0)"/><path class="cls-6" d="M2107.85,1654.35,2128,1702h-34.24l-46.4-114.18h32.74l48.76,44.52c5.93,5.36,11.22,10.15,17.92,17.17h.6l-8.5-19.15L2120,1587.81h32.16L2204.69,1702h-34.86l-53-49.66L2102,1638.69h-.6C2104.53,1646.49,2106.15,1650.31,2107.85,1654.35Z" transform="translate(0)"/><path class="cls-6" d="M2306.28,1642.28c27.75,53-.08,59.71-40.27,59.71h-41l-53.64-114.18h38.75C2251.19,1587.81,2282,1596,2306.28,1642.28Zm-38.43,0c-6.73-13.31-12.17-21.37-20.14-26.64-6.06-4.27-13.59-6.4-23.38-6.4-2.94,0-5,.19-7.46.39l32.38,66.4c13.57,1.24,28.75,0,29.94-2.48C2281,1669.85,2271.49,1649.5,2267.85,1642.28Z" transform="translate(0)"/></g></g></g></svg>
