<svg width="16" height="16" viewBox="0 0 16 16" fill="none" xmlns="http://www.w3.org/2000/svg">
<path d="M14.6665 11.1601V3.11342C14.6694 2.92802 14.6329 2.74412 14.5596 2.57381C14.4863 2.40351 14.3777 2.25067 14.241 2.12534C14.1044 2.00002 13.9427 1.90505 13.7667 1.8467C13.5907 1.78834 13.4043 1.76791 13.2199 1.78676H13.1799C11.5192 1.99434 9.91678 2.53151 8.46654 3.36676L8.35321 3.44009C8.2448 3.49914 8.12332 3.53008 7.99988 3.53008C7.87643 3.53008 7.75495 3.49914 7.64654 3.44009L7.47988 3.34009C6.03085 2.51113 4.4305 1.9807 2.77321 1.78009C2.58909 1.76191 2.40321 1.78289 2.22778 1.84166C2.05235 1.90044 1.89134 1.99567 1.75533 2.12109C1.61933 2.24652 1.5114 2.39931 1.43865 2.56942C1.3659 2.73953 1.32996 2.92311 1.33321 3.10809V11.1614C1.34115 11.4825 1.46167 11.7906 1.6737 12.0319C1.88572 12.2732 2.17579 12.4323 2.49321 12.4814L2.68654 12.5081C4.41327 12.7937 6.08603 13.3423 7.64654 14.1348L7.67321 14.1481C7.77267 14.1974 7.88219 14.2231 7.99321 14.2231C8.10423 14.2231 8.21375 14.1974 8.31321 14.1481C9.87617 13.3474 11.5539 12.7942 13.2865 12.5081L13.5065 12.4814C13.8242 12.4322 14.1144 12.2729 14.3265 12.0314C14.5385 11.7898 14.6589 11.4814 14.6665 11.1601Z" stroke="#F67538" stroke-linecap="round" stroke-linejoin="round"/>
<path d="M8 3.66016V13.6602" stroke="#F67538" stroke-linecap="round" stroke-linejoin="round"/>
<path d="M5.16699 5.66016H3.66699" stroke="#F67538" stroke-linecap="round" stroke-linejoin="round"/>
<path d="M5.66699 7.66016H3.66699" stroke="#F67538" stroke-linecap="round" stroke-linejoin="round"/>
</svg>
