<svg width="16" height="16" viewBox="0 0 16 16" fill="none" xmlns="http://www.w3.org/2000/svg">
<path d="M9.66634 7.1H6.33301" stroke="#113F70" stroke-linecap="round" stroke-linejoin="round"/>
<path d="M8 5.47334V8.80667" stroke="#113F70" stroke-linecap="round" stroke-linejoin="round"/>
<path d="M11.2129 1.33334H4.78622C4.10422 1.33492 3.4506 1.60655 2.96835 2.0888C2.4861 2.57105 2.21448 3.22467 2.21289 3.90667L2.21289 13.3C2.21289 14.5 3.07289 15.0067 4.12622 14.4267L7.37956 12.62C7.5735 12.5246 7.78675 12.475 8.00289 12.475C8.21903 12.475 8.43229 12.5246 8.62622 12.62L11.8796 14.4267C12.9329 15.0133 13.7929 14.5067 13.7929 13.3V3.90667C13.7887 3.22432 13.5153 2.57122 13.0322 2.08935C12.549 1.60748 11.8952 1.33578 11.2129 1.33334V1.33334Z" stroke="#113F70" stroke-linecap="round" stroke-linejoin="round"/>
</svg>
