<svg id="e3XsAZYrbhz1" xmlns="http://www.w3.org/2000/svg" xmlns:xlink="http://www.w3.org/1999/xlink" viewBox="0 0 12 12" shape-rendering="geometricPrecision" text-rendering="geometricPrecision">
  <path d="M6.000011,3.499938c0,.494455-.1466.977799-.421351,1.388924s-.665126.731555-1.121942.920755-.959482.238749-1.444438.1423-.930411-.3346-1.280042-.684215-.587736-.795085-.684196-1.280039-.046955-.98762.14226-1.444434.509656-.84726.920777-1.121965.894476-.421325,1.388927-.421325c.663042,0,1.298928.26339,1.767774.732235s.732231,1.104724.732231,1.767764Z" transform="translate(2.330605 4.775625)" fill="none" stroke="#f67538" stroke-linecap="round" stroke-linejoin="round"/>
  <path d="M6.000011,3.499938c0,.494455-.1466.977799-.421351,1.388924s-.665126.731555-1.121942.920755-.959482.238749-1.444438.1423-.930411-.3346-1.280042-.684215-.587736-.795085-.684196-1.280039-.046955-.98762.14226-1.444434.509656-.84726.920777-1.121965.894476-.421325,1.388927-.421325c.663042,0,1.298928.26339,1.767774.732235s.732231,1.104724.732231,1.767764Z" transform="translate(4.999989 2.500061)" fill="none" stroke="#f67538" stroke-linecap="round" stroke-linejoin="round"/>
  <path d="M6.000011,3.499938c0,.494455-.1466.977799-.421351,1.388924s-.665126.731555-1.121942.920755-.959482.238749-1.444438.1423-.930411-.3346-1.280042-.684215-.587736-.795085-.684196-1.280039-.046955-.98762.14226-1.444434.509656-.84726.920777-1.121965.894476-.421325,1.388927-.421325c.663042,0,1.298928.26339,1.767774.732235s.732231,1.104724.732231,1.767764Z" transform="translate(2.487099-.039005)" fill="none" stroke="#f67538" stroke-linecap="round" stroke-linejoin="round"/>
  <path d="M6.000011,3.499938c0,.494455-.1466.977799-.421351,1.388924s-.665126.731555-1.121942.920755-.959482.238749-1.444438.1423-.930411-.3346-1.280042-.684215-.587736-.795085-.684196-1.280039-.046955-.98762.14226-1.444434.509656-.84726.920777-1.121965.894476-.421325,1.388927-.421325c.663042,0,1.298928.26339,1.767774.732235s.732231,1.104724.732231,1.767764Z" transform="translate(-.000011 2.500004)" fill="none" stroke="#f67538" stroke-linecap="round" stroke-linejoin="round"/>
  <path d="M11,5.99994c0,.98891-.2932,1.9556-.8427,2.77785-.54936.82225-1.33025,1.46311-2.24388,1.84151s-1.91896.4775-2.88887.2846-1.86082-.6692-2.56008-1.36843-1.17547-1.59017-1.36839-2.56008-.09391-1.97524.28452-2.88887s1.01931-1.69452,1.84155-2.24393s1.78895-.842651,2.77785-.842651c1.32608,0,2.59785.526781,3.53554,1.464471s1.46446,2.20945,1.46446,3.53553Z" fill="none" stroke="#f67538" stroke-linecap="round" stroke-linejoin="round"/>
</svg>
