<svg width="16" height="16" viewBox="0 0 16 16" fill="none" xmlns="http://www.w3.org/2000/svg">
<path d="M10.6663 5.99338V13.5667C10.6663 14.5334 9.97301 14.94 9.12634 14.4734L6.50634 13.0134C6.34817 12.9377 6.17504 12.8983 5.99967 12.8983C5.82431 12.8983 5.65118 12.9377 5.49301 13.0134L2.87301 14.4734C2.02634 14.94 1.33301 14.5334 1.33301 13.5667V5.99338C1.33477 5.44404 1.55377 4.9177 1.94222 4.52925C2.33066 4.14081 2.857 3.9218 3.40634 3.92004H8.59301C9.14235 3.9218 9.66869 4.14081 10.0571 4.52925C10.4456 4.9177 10.6646 5.44404 10.6663 5.99338V5.99338Z" stroke="#88A4C2" stroke-width="1.5" stroke-linecap="round" stroke-linejoin="round"/>
<path d="M14.6663 3.40671V10.98C14.6663 11.9467 13.973 12.3534 13.1263 11.8867L10.6663 10.5134V5.99337C10.6646 5.44403 10.4456 4.91769 10.0571 4.52925C9.66869 4.1408 9.14235 3.9218 8.59301 3.92004H5.33301V3.40671C5.33477 2.85737 5.55377 2.33103 5.94222 1.94258C6.33066 1.55414 6.857 1.33513 7.40634 1.33337L12.593 1.33337C13.1423 1.33513 13.6687 1.55414 14.0571 1.94258C14.4456 2.33103 14.6646 2.85737 14.6663 3.40671V3.40671Z" stroke="#88A4C2" stroke-width="1.5" stroke-linecap="round" stroke-linejoin="round"/>
<path d="M4.66699 8H7.33366" stroke="#88A4C2" stroke-width="1.5" stroke-linecap="round" stroke-linejoin="round"/>
</svg>
