<svg width="12" height="12" viewBox="0 0 12 12" fill="none" xmlns="http://www.w3.org/2000/svg">
<path d="M9.16501 1.01494C9.35369 1.01569 9.53986 1.05839 9.71001 1.13994C9.89599 1.22725 10.0679 1.34185 10.22 1.47994C10.4762 1.70512 10.6779 1.98549 10.81 2.29994C10.9376 2.60905 11.0022 2.94054 11 3.27494C10.9896 3.83734 10.8654 4.39182 10.635 4.90494C10.3711 5.51384 10.0389 6.09086 9.64501 6.62494C9.22006 7.20589 8.75207 7.7541 8.24501 8.26494C7.73601 8.77056 7.18945 9.23689 6.61001 9.65994C6.07956 10.0485 5.50775 10.3772 4.90501 10.6399C4.38959 10.8682 3.83361 10.9906 3.27001 10.9999C2.9398 11.0021 2.61223 10.941 2.30501 10.8199C1.98737 10.6928 1.70211 10.4963 1.47001 10.2449C1.32607 10.1119 1.2103 9.95124 1.12957 9.77259C1.04884 9.59395 1.00478 9.40092 1.00001 9.20495C0.999452 9.06493 1.0302 8.92655 1.09001 8.79995C1.15114 8.66489 1.24794 8.54907 1.37001 8.46495L3.00501 7.30495C3.11339 7.22472 3.23087 7.15759 3.35501 7.10495C3.45099 7.06152 3.55469 7.03772 3.66001 7.03495C3.78579 7.03636 3.90869 7.07272 4.01501 7.13995C4.14528 7.21706 4.26467 7.31122 4.37001 7.41995L4.76501 7.79994C4.79098 7.82641 4.82217 7.84719 4.8566 7.86097C4.89103 7.87474 4.92795 7.8812 4.96501 7.87995C5.00382 7.87988 5.04247 7.87484 5.08001 7.86494C5.12001 7.84994 5.15001 7.83495 5.18001 7.82495C5.40766 7.69068 5.62197 7.53497 5.82001 7.35994C6.08001 7.13494 6.34501 6.89495 6.61001 6.63495C6.87501 6.36495 7.12001 6.10495 7.34501 5.83995C7.52018 5.64139 7.67434 5.42524 7.80501 5.19495C7.81501 5.16995 7.83001 5.13994 7.84501 5.10494C7.85933 5.06487 7.86611 5.02249 7.86501 4.97994C7.86586 4.94174 7.85874 4.90379 7.8441 4.86849C7.82947 4.83319 7.80764 4.80134 7.78001 4.77494L7.40501 4.39494C7.29426 4.28957 7.19988 4.16823 7.12501 4.03494C7.05716 3.92891 7.02075 3.80582 7.02001 3.67994C7.02146 3.575 7.04354 3.47136 7.08501 3.37494C7.13771 3.25184 7.20307 3.13455 7.28001 3.02494L8.45501 1.36994C8.53352 1.24986 8.64448 1.1545 8.77501 1.09494C8.89854 1.04307 9.03103 1.01589 9.16501 1.01494Z" stroke="#F67538"/>
</svg>
