<svg width="12" height="12" viewBox="0 0 12 12" fill="none" xmlns="http://www.w3.org/2000/svg">
<path d="M3.37984 11H8.62084C8.8789 11.0254 9.13942 10.9953 9.38489 10.9118C9.63037 10.8282 9.85513 10.6931 10.0441 10.5155C10.233 10.3379 10.3818 10.122 10.4804 9.88212C10.5791 9.64229 10.6252 9.38414 10.6158 9.125L10.8758 4.995C10.892 4.73883 10.8555 4.48206 10.7685 4.24057C10.6816 3.99908 10.546 3.778 10.3701 3.59101C10.1943 3.40402 9.98195 3.25509 9.74625 3.15343C9.51056 3.05178 9.25652 2.99956 8.99984 3C8.84989 2.99906 8.70305 2.95709 8.57525 2.87865C8.44745 2.80021 8.34356 2.68828 8.27484 2.555L7.91484 1.83C7.77846 1.59084 7.58441 1.38961 7.35036 1.24464C7.11631 1.09967 6.84971 1.01557 6.57484 1H5.42984C5.15411 1.01475 4.88648 1.09847 4.6515 1.24348C4.41651 1.38849 4.22167 1.59016 4.08484 1.83L3.72484 2.555C3.65612 2.68828 3.55223 2.80021 3.42442 2.87865C3.29662 2.95709 3.14979 2.99906 2.99984 3C2.74324 2.99969 2.48931 3.05201 2.25374 3.15373C2.01816 3.25545 1.80595 3.4044 1.63022 3.59137C1.45449 3.77835 1.31898 3.99938 1.23205 4.24081C1.14512 4.48223 1.10864 4.73892 1.12484 4.995L1.38484 9.125C1.37505 9.38425 1.42093 9.64259 1.51941 9.88262C1.61788 10.1226 1.76665 10.3388 1.9557 10.5164C2.14474 10.6941 2.36968 10.8292 2.61534 10.9126C2.861 10.996 3.12169 11.0258 3.37984 11V11Z" stroke="white" stroke-linecap="round" stroke-linejoin="round"/>
<path d="M5.25 4H6.75" stroke="white" stroke-linecap="round" stroke-linejoin="round"/>
<path d="M6 9C6.32139 9 6.63557 8.9047 6.9028 8.72614C7.17003 8.54758 7.37831 8.29379 7.5013 7.99686C7.6243 7.69993 7.65648 7.3732 7.59378 7.05798C7.53108 6.74276 7.37631 6.45321 7.14905 6.22595C6.92179 5.99869 6.63224 5.84393 6.31702 5.78122C6.0018 5.71852 5.67507 5.7507 5.37814 5.8737C5.08121 5.99669 4.82742 6.20497 4.64886 6.4722C4.4703 6.73943 4.375 7.05361 4.375 7.375C4.37579 7.80573 4.54725 8.2186 4.85183 8.52317C5.1564 8.82775 5.56927 8.99921 6 9V9Z" stroke="white" stroke-linecap="round" stroke-linejoin="round"/>
</svg>
