<svg width="12" height="12" viewBox="0 0 12 12" fill="none" xmlns="http://www.w3.org/2000/svg">
<path d="M11 5.99994C11 6.98885 10.7068 7.95554 10.1573 8.77779C9.60794 9.60004 8.82705 10.2409 7.91342 10.6193C6.99979 10.9978 5.99446 11.0968 5.02455 10.9039C4.05465 10.7109 3.16373 10.2347 2.46447 9.53547C1.76521 8.83621 1.289 7.9453 1.09608 6.97539C0.90315 6.00549 1.00217 5.00015 1.3806 4.08652C1.75904 3.17289 2.39991 2.392 3.22215 1.84259C4.0444 1.29318 5.0111 0.999939 6 0.999939C7.32608 0.999939 8.59785 1.52672 9.53554 2.46441C10.4732 3.40209 11 4.67386 11 5.99994Z" stroke="#F67538" stroke-linecap="round" stroke-linejoin="round"/>
<path d="M7.85543 7.58994L6.30543 6.66494C6.16265 6.56942 6.04405 6.44199 5.95901 6.29273C5.87397 6.14347 5.82481 5.97647 5.81543 5.80494V3.75494" stroke="#F67538" stroke-linecap="round" stroke-linejoin="round"/>
</svg>
