<svg width="16" height="16" viewBox="0 0 16 16" fill="none" xmlns="http://www.w3.org/2000/svg">
<path d="M11.333 8.93329V10.9333C11.333 13.6 10.2663 14.6666 7.59967 14.6666H5.06634C2.39967 14.6666 1.33301 13.6 1.33301 10.9333V8.39996C1.33301 5.73329 2.39967 4.66663 5.06634 4.66663H7.06634" stroke="#F67538" stroke-linecap="round" stroke-linejoin="round"/>
<path d="M11.3331 8.93329H9.19974C7.59974 8.93329 7.06641 8.39996 7.06641 6.79996V4.66663L11.3331 8.93329Z" stroke="#F67538" stroke-linecap="round" stroke-linejoin="round"/>
<path d="M7.7334 1.33337H10.4001" stroke="#F67538" stroke-linecap="round" stroke-linejoin="round"/>
<path d="M4.66699 3.33337C4.66699 2.80294 4.87771 2.29423 5.25278 1.91916C5.62785 1.54409 6.13656 1.33337 6.66699 1.33337L8.41366 1.33337" stroke="#F67538" stroke-linecap="round" stroke-linejoin="round"/>
<path d="M14.6673 5.33337V9.46004C14.6669 9.95677 14.4694 10.4331 14.1182 10.7843C13.767 11.1355 13.2907 11.333 12.7939 11.3334" stroke="#F67538" stroke-linecap="round" stroke-linejoin="round"/>
<path d="M14.667 5.33337H12.667C11.167 5.33337 10.667 4.83337 10.667 3.33337V1.33337L14.667 5.33337Z" stroke="#F67538" stroke-linecap="round" stroke-linejoin="round"/>
</svg>
