<svg width="16" height="16" viewBox="0 0 16 16" fill="none" xmlns="http://www.w3.org/2000/svg">
<path d="M8.09961 11V12.4" stroke="#113F70" stroke-linecap="round" stroke-linejoin="round"/>
<path d="M4.7666 14.6667H11.4333V14C11.4322 13.6467 11.2914 13.3082 11.0416 13.0584C10.7918 12.8085 10.4532 12.6677 10.0999 12.6667H6.09993C5.74664 12.6677 5.40811 12.8085 5.15829 13.0584C4.90847 13.3082 4.76766 13.6467 4.7666 14V14.6667Z" stroke="#113F70"/>
<path d="M4.09961 14.6667H12.0996" stroke="#113F70" stroke-linecap="round" stroke-linejoin="round"/>
<path d="M7.99967 10.6667C6.762 10.6667 5.57501 10.175 4.69984 9.29983C3.82467 8.42466 3.33301 7.23767 3.33301 6V3.99999C3.33301 3.29275 3.61396 2.61447 4.11406 2.11438C4.61415 1.61428 5.29243 1.33333 5.99967 1.33333L9.99967 1.33333C10.7069 1.33333 11.3852 1.61428 11.8853 2.11438C12.3854 2.61447 12.6663 3.29275 12.6663 3.99999V6C12.6663 7.23767 12.1747 8.42466 11.2995 9.29983C10.4243 10.175 9.23735 10.6667 7.99967 10.6667V10.6667Z" stroke="#113F70" stroke-linecap="round" stroke-linejoin="round"/>
<path d="M3.6471 7.76666C3.161 7.60546 2.72005 7.33129 2.36043 6.96666C1.7361 6.32157 1.37886 5.46421 1.36043 4.56666C1.35829 4.3472 1.39994 4.12951 1.48294 3.92634C1.56594 3.72316 1.68863 3.53858 1.84382 3.38339C1.99901 3.22819 2.1836 3.10551 2.38677 3.02251C2.58995 2.93951 2.80763 2.89786 3.0271 2.9H3.46043C3.32587 3.21608 3.25779 3.55647 3.26043 3.9V5.9C3.2604 6.5421 3.392 7.1774 3.6471 7.76666V7.76666Z" stroke="#113F70" stroke-linecap="round" stroke-linejoin="round"/>
<path d="M12.3535 7.76666C12.8396 7.60546 13.2806 7.33129 13.6402 6.96666C14.2645 6.32157 14.6217 5.46421 14.6402 4.56666C14.6423 4.3472 14.6007 4.12951 14.5177 3.92634C14.4347 3.72316 14.312 3.53858 14.1568 3.38339C14.0016 3.22819 13.817 3.10551 13.6138 3.02251C13.4107 2.93951 13.193 2.89786 12.9735 2.9H12.5402C12.6747 3.21608 12.7428 3.55647 12.7402 3.9V5.9C12.7402 6.5421 12.6086 7.1774 12.3535 7.76666V7.76666Z" stroke="#113F70" stroke-linecap="round" stroke-linejoin="round"/>
</svg>
