<svg width="16" height="16" viewBox="0 0 16 16" fill="none" xmlns="http://www.w3.org/2000/svg">
<path d="M11.3377 13.6661H4.6672C4.21646 13.7216 3.759 13.6736 3.32954 13.5259C2.90008 13.3782 2.50991 13.1346 2.18864 12.8137C1.86736 12.4927 1.62342 12.1027 1.47533 11.6734C1.32724 11.2441 1.27889 10.7867 1.33395 10.3359V5.66611C1.2784 5.21508 1.32637 4.75732 1.47424 4.32761C1.62211 3.8979 1.86597 3.50755 2.18731 3.18621C2.50865 2.86488 2.899 2.62101 3.32871 2.47314C3.75842 2.32528 4.21617 2.2773 4.6672 2.33286H11.3377C11.7887 2.2773 12.2465 2.32528 12.6762 2.47314C13.1059 2.62101 13.4963 2.86488 13.8176 3.18621C14.1389 3.50755 14.3828 3.8979 14.5307 4.32761C14.6785 4.75732 14.7265 5.21508 14.671 5.66611V10.3359C14.726 10.7867 14.6777 11.2441 14.5296 11.6734C14.3815 12.1027 14.1375 12.4927 13.8163 12.8137C13.495 13.1346 13.1048 13.3782 12.6754 13.5259C12.2459 13.6736 11.7885 13.7216 11.3377 13.6661V13.6661Z" stroke="#F67538" stroke-width="1.5" stroke-linecap="round" stroke-linejoin="round"/>
<path d="M11.3335 6.00024L9.24671 7.66687C8.88426 7.93339 8.44614 8.07714 7.99624 8.07714C7.54635 8.07714 7.10822 7.93339 6.74577 7.66687L4.66699 6.00024" stroke="#F67538" stroke-width="1.5" stroke-linecap="round" stroke-linejoin="round"/>
</svg>
