<svg id="eY5unx7ofZI1" xmlns="http://www.w3.org/2000/svg" xmlns:xlink="http://www.w3.org/1999/xlink" viewBox="0 0 1000 1000" shape-rendering="geometricPrecision" text-rendering="geometricPrecision"><path d="M647.9,755.4c-28,0-50.7,22.7-50.7,50.7v81.7h-485.8v-775.6h485.8v97.6c0,28,22.7,50.7,50.7,50.7s50.7-22.7,50.7-50.7v-118.5c0-44.4-36.1-80.5-80.5-80.5h-527.6C46.1,10.8,10,46.9,10,91.3v817.3c0,44.4,36.1,80.5,80.5,80.5h527.5c44.4,0,80.5-36.1,80.5-80.5v-102.5c.1-28-22.6-50.7-50.6-50.7Z" transform="matrix(.729877 0 0 0.700363 97.383314 149.803517)" fill="#f67538" stroke="#f67538"/><path d="M990,499.3c0-11.9-4.1-22.8-11-31.5-2.1-3.4-4.6-6.7-7.5-9.6L810.9,297.7c-19.8-19.8-51.9-19.8-71.7,0s-19.8,51.9,0,71.7l79.3,79.3h-387.4c-28,0-50.7,22.7-50.7,50.7s22.7,50.7,50.7,50.7h387.2l-76.5,76.5c-19.8,19.8-19.8,51.9,0,71.7c9.9,9.9,22.9,14.8,35.8,14.8c13,0,25.9-4.9,35.8-14.8L974,537.7c5-5,8.8-10.9,11.3-17.1c3-6.6,4.7-13.7,4.7-21.3Z" transform="matrix(.600992 0 0 0.666669 193.796938 168.015512)" fill="#f67538" stroke="#f67538"/></svg>