<svg width="16" height="16" viewBox="0 0 16 16" fill="none" xmlns="http://www.w3.org/2000/svg">
<path d="M8 5.16669V8.66669" stroke="#F67538" stroke-linecap="round" stroke-linejoin="round"/>
<path d="M14.0538 5.71999V10.28C14.0527 10.6482 13.9556 11.0098 13.7721 11.329C13.5885 11.6482 13.3248 11.9139 13.0071 12.1L9.0471 14.3867C8.72757 14.5701 8.36555 14.6667 7.9971 14.6667C7.62865 14.6667 7.26662 14.5701 6.9471 14.3867L2.9871 12.1C2.66828 11.9151 2.40372 11.6496 2.22 11.3302C2.03628 11.0107 1.93986 10.6485 1.94043 10.28V5.71999C1.94146 5.35178 2.03856 4.99022 2.22212 4.67103C2.40569 4.35183 2.66937 4.08607 2.9871 3.89999L6.9471 1.61333C7.26662 1.42986 7.62865 1.33331 7.9971 1.33331C8.36555 1.33331 8.72757 1.42986 9.0471 1.61333L13.0071 3.89999C13.3254 4.08546 13.5895 4.35109 13.7731 4.67042C13.9568 4.98975 14.0535 5.35162 14.0538 5.71999V5.71999Z" stroke="#F67538" stroke-linecap="round" stroke-linejoin="round"/>
<path d="M8 10.8V10.8667" stroke="#F67538" stroke-linecap="round" stroke-linejoin="round"/>
</svg>
