<svg width="16" height="16" viewBox="0 0 16 16" fill="none" xmlns="http://www.w3.org/2000/svg">
<path d="M6.01301 1.89329L2.41967 4.69329C2.1 4.97102 1.83916 5.30994 1.65253 5.69007C1.4659 6.0702 1.35726 6.48384 1.33301 6.90662L1.33301 11.8466C1.33388 12.5913 1.62966 13.3054 2.15563 13.8326C2.6816 14.3598 3.39496 14.6573 4.13967 14.66H11.8597C12.6033 14.6577 13.3159 14.3612 13.8418 13.8354C14.3676 13.3095 14.6641 12.597 14.6663 11.8533V6.99995C14.6412 6.55334 14.5211 6.11721 14.3142 5.72063C14.1073 5.32404 13.8183 4.97609 13.4663 4.69995L9.34634 1.81129C8.84533 1.49257 8.2608 1.33017 7.66719 1.34478C7.07358 1.35938 6.49774 1.55032 6.01301 1.89329V1.89329Z" stroke="#88A4C2" stroke-width="1.5" stroke-linecap="round" stroke-linejoin="round"/>
<path d="M8 11.9933V9.99329" stroke="#88A4C2" stroke-width="1.5" stroke-linecap="round" stroke-linejoin="round"/>
</svg>
