<svg width="54" height="54" viewBox="0 0 54 54" fill="none" xmlns="http://www.w3.org/2000/svg">
<path d="M44 0H10C4.47715 0 0 4.47715 0 10V44C0 49.5228 4.47715 54 10 54H44C49.5228 54 54 49.5228 54 44V10C54 4.47715 49.5228 0 44 0Z" fill="url(#paint0_linear_906_7321)"/>
<path d="M27.3369 12.304C32.2369 12.304 32.8128 12.323 34.7458 12.411C35.9087 12.4246 37.0606 12.6384 38.1509 13.043C38.9418 13.3479 39.6602 13.8152 40.2595 14.4146C40.8589 15.0139 41.3259 15.7322 41.6309 16.5231C42.0349 17.6135 42.2487 18.7652 42.2629 19.928C42.3509 21.862 42.3689 22.442 42.3689 27.338C42.3689 32.234 42.3499 32.815 42.2629 34.748C42.2483 35.9092 42.0344 37.0592 41.6309 38.1481C41.3261 38.9391 40.8589 39.6573 40.2595 40.2567C39.6601 40.8561 38.9419 41.3233 38.1509 41.6281C37.0605 42.0325 35.9087 42.2463 34.7458 42.26C32.8128 42.348 32.2339 42.3671 27.3369 42.3671C22.4399 42.3671 21.86 42.348 19.926 42.26C18.7648 42.2458 17.6146 42.032 16.5259 41.6281C15.735 41.3229 15.0167 40.8557 14.4172 40.2563C13.8177 39.657 13.3503 38.9389 13.0449 38.1481C12.6421 37.0591 12.4285 35.9091 12.4138 34.748C12.3258 32.814 12.3079 32.234 12.3079 27.338C12.3079 22.442 12.3268 21.862 12.4138 19.928C12.4281 18.7653 12.6416 17.6137 13.0449 16.5231C13.3504 15.7324 13.818 15.0142 14.4175 14.4149C15.017 13.8156 15.7351 13.3483 16.5259 13.043C17.6146 12.6389 18.7648 12.4251 19.926 12.411C21.86 12.323 22.4399 12.304 27.3369 12.304ZM27.3369 9.00403C22.3569 9.00403 21.7369 9.02499 19.7759 9.11499C18.2546 9.14548 16.7497 9.43393 15.325 9.96802C14.1066 10.4389 12.9999 11.1592 12.0762 12.0828C11.1524 13.0063 10.432 14.1127 9.96094 15.3311C9.42716 16.7562 9.13902 18.2614 9.10889 19.783C9.01889 21.739 8.99902 22.363 8.99902 27.343C8.99902 32.323 9.01989 32.9431 9.10889 34.9041C9.13907 36.4252 9.42721 37.9302 9.96094 39.355C10.432 40.5734 11.1524 41.68 12.0762 42.6038C12.9999 43.5275 14.1065 44.248 15.325 44.719C16.7498 45.2524 18.2547 45.5405 19.7759 45.571C21.7319 45.661 22.3569 45.682 27.3369 45.682C32.3169 45.682 32.937 45.661 34.897 45.571C36.4184 45.5404 37.9236 45.2523 39.3489 44.719C40.567 44.2476 41.6734 43.5271 42.5969 42.6034C43.5204 41.6797 44.2408 40.5732 44.7119 39.355C45.2452 37.9301 45.5333 36.4252 45.564 34.9041C45.653 32.9481 45.6738 32.324 45.6738 27.343C45.6738 22.362 45.653 21.743 45.564 19.783C45.5334 18.2615 45.2452 16.7563 44.7119 15.3311C44.2407 14.113 43.5202 13.0068 42.5967 12.0833C41.6732 11.1597 40.5669 10.4393 39.3489 9.96802C37.9238 9.43399 36.4185 9.14554 34.897 9.11499C32.941 9.02599 32.3169 9.00403 27.3369 9.00403Z" fill="white"/>
<path d="M39.326 17.548C39.326 17.9831 39.1968 18.4085 38.9551 18.7703C38.7134 19.1321 38.3698 19.4141 37.9678 19.5806C37.5658 19.7471 37.1233 19.7907 36.6966 19.7058C36.2698 19.6209 35.878 19.4113 35.5703 19.1036C35.2627 18.796 35.0529 18.4039 34.968 17.9772C34.8832 17.5504 34.9268 17.1082 35.0933 16.7062C35.2598 16.3042 35.5418 15.9605 35.9036 15.7188C36.2654 15.477 36.6906 15.348 37.1258 15.348C37.7092 15.348 38.2688 15.5799 38.6814 15.9924C39.094 16.405 39.326 16.9645 39.326 17.548Z" fill="white"/>
<path d="M27.3367 18.176C25.5251 18.1764 23.7544 18.7139 22.2483 19.7207C20.7422 20.7275 19.5683 22.1582 18.8753 23.832C18.1823 25.5058 18.0013 27.3475 18.355 29.1243C18.7087 30.901 19.5812 32.533 20.8623 33.8138C22.1435 35.0947 23.7757 35.9669 25.5525 36.3202C27.3293 36.6735 29.1709 36.4919 30.8445 35.7986C32.5182 35.1052 33.9487 33.9311 34.9551 32.4248C35.9615 30.9185 36.4988 29.1475 36.4988 27.3359C36.4988 26.1329 36.2618 24.9417 35.8013 23.8302C35.3408 22.7187 34.6658 21.7088 33.815 20.8582C32.9642 20.0075 31.9544 19.3329 30.8428 18.8727C29.7312 18.4125 28.5398 18.1758 27.3367 18.176ZM27.3367 33.447C26.1279 33.447 24.9461 33.0886 23.9409 32.417C22.9358 31.7454 22.1526 30.7908 21.69 29.674C21.2274 28.5571 21.1062 27.3282 21.3421 26.1426C21.5779 24.957 22.1601 23.868 23.0149 23.0132C23.8697 22.1584 24.9587 21.5763 26.1443 21.3405C27.3299 21.1046 28.5587 21.2256 29.6756 21.6882C30.7924 22.1508 31.7471 22.9342 32.4187 23.9393C33.0903 24.9444 33.4488 26.1261 33.4488 27.335C33.4477 28.9553 32.8031 30.5089 31.657 31.6543C30.5109 32.7997 28.957 33.443 27.3367 33.443V33.447Z" fill="white"/>
<defs>
<linearGradient id="paint0_linear_906_7321" x1="50.328" y1="3.672" x2="5.13" y2="48.87" gradientUnits="userSpaceOnUse">
<stop offset="0.014" stop-color="#49479B"/>
<stop offset="0.16" stop-color="#6F469A"/>
<stop offset="0.3" stop-color="#90469A"/>
<stop offset="0.354" stop-color="#924393"/>
<stop offset="0.43" stop-color="#9A3D80"/>
<stop offset="0.519" stop-color="#A73462"/>
<stop offset="0.604" stop-color="#B6293F"/>
<stop offset="0.877" stop-color="#E19F37"/>
<stop offset="1" stop-color="#EED940"/>
</linearGradient>
</defs>
</svg>
