<svg width="16" height="16" viewBox="0 0 16 16" fill="none" xmlns="http://www.w3.org/2000/svg">
<path d="M11.9996 4.77344C11.9576 4.76677 11.9148 4.76677 11.8729 4.77344C11.4216 4.75685 10.9949 4.56379 10.6845 4.2358C10.3741 3.90781 10.2049 3.4711 10.2132 3.0196C10.2215 2.56811 10.4067 2.13791 10.7289 1.82155C11.0511 1.50519 11.4847 1.32794 11.9362 1.32794C12.3878 1.32794 12.8213 1.50519 13.1436 1.82155C13.4658 2.13791 13.651 2.56811 13.6593 3.0196C13.6676 3.4711 13.4983 3.90781 13.1879 4.2358C12.8775 4.56379 12.4508 4.75685 11.9996 4.77344V4.77344Z" stroke="#F67538" stroke-linecap="round" stroke-linejoin="round"/>
<path d="M11.313 9.62692C12.2178 9.79399 13.1524 9.62319 13.9396 9.14692C14.1515 9.04122 14.3297 8.87855 14.4543 8.67718C14.5789 8.47581 14.6449 8.24371 14.6449 8.00692C14.6449 7.77014 14.5789 7.53804 14.4543 7.33667C14.3297 7.1353 14.1515 6.97263 13.9396 6.86692C13.1452 6.39012 12.2034 6.22168 11.293 6.39359" stroke="#F67538" stroke-linecap="round" stroke-linejoin="round"/>
<path d="M3.97934 4.77344C4.0213 4.76677 4.06404 4.76677 4.106 4.77344C4.55727 4.75685 4.98399 4.56379 5.29438 4.2358C5.60476 3.90781 5.77401 3.4711 5.76571 3.0196C5.75741 2.56811 5.57223 2.13791 5.25 1.82155C4.92777 1.50519 4.49424 1.32794 4.04267 1.32794C3.5911 1.32794 3.15757 1.50519 2.83534 1.82155C2.51311 2.13791 2.32793 2.56811 2.31963 3.0196C2.31133 3.4711 2.48058 3.90781 2.79096 4.2358C3.10135 4.56379 3.52807 4.75685 3.97934 4.77344V4.77344Z" stroke="#F67538" stroke-linecap="round" stroke-linejoin="round"/>
<path d="M4.66785 9.62664C3.76306 9.7937 2.82842 9.6229 2.04119 9.14664C1.82931 9.04093 1.65108 8.87826 1.5265 8.67689C1.40193 8.47553 1.33594 8.24342 1.33594 8.00664C1.33594 7.76985 1.40193 7.53775 1.5265 7.33638C1.65108 7.13501 1.82931 6.97235 2.04119 6.86664C2.83504 6.39032 3.77608 6.2219 4.68585 6.3933" stroke="#F67538" stroke-linecap="round" stroke-linejoin="round"/>
<path d="M8.00053 9.7533C7.95858 9.74663 7.91583 9.74663 7.87387 9.7533C7.4226 9.73671 6.99588 9.54365 6.68549 9.21566C6.37511 8.88767 6.20586 8.45096 6.21416 7.99946C6.22246 7.54797 6.40764 7.11777 6.72987 6.80141C7.0521 6.48505 7.48563 6.3078 7.9372 6.3078C8.38877 6.3078 8.8223 6.48505 9.14453 6.80141C9.46676 7.11777 9.65194 7.54797 9.66024 7.99946C9.66854 8.45096 9.4993 8.88767 9.18891 9.21566C8.87852 9.54365 8.4518 9.73671 8.00053 9.7533V9.7533Z" stroke="#F67538" stroke-linecap="round" stroke-linejoin="round"/>
<path d="M6.06072 11.8535C5.84884 11.9592 5.67061 12.1218 5.54603 12.3232C5.42146 12.5246 5.35547 12.7567 5.35547 12.9935C5.35547 13.2302 5.42146 13.4624 5.54603 13.6637C5.67061 13.8651 5.84884 14.0278 6.06072 14.1335C6.64725 14.4836 7.31762 14.6685 8.00072 14.6685C8.68382 14.6685 9.35419 14.4836 9.94072 14.1335C10.1526 14.0278 10.3308 13.8651 10.4554 13.6637C10.58 13.4624 10.646 13.2302 10.646 12.9935C10.646 12.7567 10.58 12.5246 10.4554 12.3232C10.3308 12.1218 10.1526 11.9592 9.94072 11.8535C9.35309 11.5065 8.68315 11.3234 8.00072 11.3234C7.31829 11.3234 6.64835 11.5065 6.06072 11.8535V11.8535Z" stroke="#F67538" stroke-linecap="round" stroke-linejoin="round"/>
</svg>
