<svg width="12" height="12" viewBox="0 0 12 12" fill="none" xmlns="http://www.w3.org/2000/svg">
<path d="M7.55945 5.15497C7.55945 5.46351 7.46796 5.76512 7.29655 6.02166C7.12513 6.2782 6.88149 6.47815 6.59644 6.59622C6.31139 6.7143 5.99772 6.74519 5.69511 6.685C5.3925 6.6248 5.11454 6.47623 4.89637 6.25806C4.6782 6.03989 4.52962 5.76192 4.46943 5.45931C4.40924 5.1567 4.44013 4.84304 4.5582 4.55798C4.67627 4.27293 4.87622 4.02929 5.13276 3.85788C5.3893 3.68646 5.69091 3.59497 5.99945 3.59497C6.41319 3.59497 6.80998 3.75933 7.10254 4.05188C7.3951 4.34444 7.55945 4.74123 7.55945 5.15497V5.15497Z" stroke="#F67538"/>
<path d="M1.80985 4.245C2.79485 -0.0849988 9.20985 -0.0799987 10.1899 4.25C10.7649 6.79 9.18485 8.94 7.79985 10.27C7.31589 10.7368 6.66973 10.9976 5.99735 10.9976C5.32498 10.9976 4.67882 10.7368 4.19485 10.27C2.81485 8.94 1.23485 6.785 1.80985 4.245Z" stroke="#F67538"/>
</svg>
