<svg id="eZlN6xRgJi31" xmlns="http://www.w3.org/2000/svg" xmlns:xlink="http://www.w3.org/1999/xlink" viewBox="0 0 353 295" shape-rendering="geometricPrecision" text-rendering="geometricPrecision"><path d="M25.5918,236.994l37.4483-.17l37.4559-.063l74.896-.12l74.904.12l37.448.063l37.449.17-37.449.169-37.448.064-74.904.12-74.896-.12-37.4559-.064-37.4483-.169Z" fill="#263238"/><path d="M176.805,292.658c81.952,0,148.388-7.744,148.388-17.298c0-9.553-66.436-17.297-148.388-17.297-81.9525,0-148.388,7.744-148.388,17.297c0,9.554,66.4355,17.298,148.388,17.298Z" fill="#ebebeb"/><path d="M196.207,278.588c1.469.495,43.522.643,45.133-.367.614-.381.989-6.505,1.236-13.914.056-1.604.099-3.256.141-4.944l3.405-22.426-28.111-.183-2.656,22.439.106,4.944c0,0-16.125,7.148-17.771,8.441-1.646,1.292-2.945,5.509-1.483,6.01Z" fill="#eb9481"/><path d="M196.207,278.588c1.469.495,43.522.643,45.133-.367.741-.466,1.151-9.408,1.377-18.851l-27.362-.17.106,4.944c0,0-16.125,7.148-17.771,8.441-1.646,1.292-2.945,5.502-1.483,6.003Z" fill="#fff"/><path d="M196.207,278.588c1.469.495,43.522.643,45.133-.367.614-.381.989-6.505,1.236-13.914l-27.115-.177c0,0-16.125,7.148-17.771,8.441-1.646,1.292-2.945,5.516-1.483,6.017Z" fill="#fff"/><path d="M196.821,276.907c7.063-.148,35.499-.084,42.478.304.056,0,.056.042,0,.049-6.986.297-35.436,0-42.485-.24-.148-.007-.141-.113.007-.113Z" fill="#263238"/><path d="M200.402,271.066c.789-.022,1.573.121,2.303.42s1.389.748,1.935,1.318c.987,1.009,1.548,2.36,1.568,3.771c0,.043-.084.043-.092,0-.23-1.392-.905-2.672-1.924-3.648-1.018-.977-2.325-1.597-3.726-1.769-.012.008-.027.012-.042.009-.014-.003-.027-.011-.036-.023-.008-.012-.011-.027-.009-.042.003-.015.011-.027.023-.036Z" fill="#263238"/><path d="M212.727,264.822c2.826,0,6.089.982,7.833,3.292.071.092-.056.183-.141.141-2.473-1.301-5.077-2.336-7.769-3.087-.046-.01-.086-.038-.111-.078-.025-.039-.034-.088-.023-.133.01-.046.038-.086.078-.111.039-.026.088-.034.133-.024Z" fill="#263238"/><path d="M210.545,265.663c2.825,0,6.088.982,7.833,3.298.071.085-.056.184-.141.134-2.472-1.303-5.077-2.335-7.77-3.079-.039-.017-.072-.047-.092-.085s-.026-.082-.017-.124c.01-.042.033-.08.068-.106.034-.026.076-.04.119-.038Z" fill="#263238"/><path d="M208.363,266.51c2.825-.035,6.088.975,7.84,3.292.063.085-.064.183-.149.141-2.469-1.308-5.075-2.343-7.769-3.086-.046-.011-.086-.039-.111-.079-.025-.039-.034-.088-.023-.133.01-.046.038-.086.078-.111.04-.026.088-.034.134-.024Z" fill="#263238"/><path d="M206.18,267.351c2.825,0,6.095.975,7.84,3.291.064.085-.064.184-.148.142-2.47-1.309-5.075-2.344-7.77-3.087-.046-.01-.085-.038-.111-.078-.025-.04-.033-.088-.023-.134s.039-.086.078-.111c.04-.025.088-.033.134-.023Z" fill="#263238"/><path d="M237.547,270.508c3.172,0,3.143,4.944,0,4.944s-3.192-4.965,0-4.944Z" fill="#263238"/><path d="M209.916,261.418c1.512,1.971,3.829,3.221,5.835,4.612.047.027.099.042.153.045.054.002.108-.008.158-.03.049-.022.093-.055.127-.097s.058-.091.07-.144c.011.002.022.002.033-.001s.021-.008.029-.016c.009-.008.015-.017.019-.028.004-.01.005-.021.004-.033-.196-2.589-1.071-5.081-2.536-7.225-.876-1.236-2.67-2.394-4.103-1.215-1.434,1.18-.679,2.988.211,4.132Zm-.127-2.338c.297-3.065,3.059-.706,3.666.233.383.613.725,1.25,1.024,1.907.595,1.369,1.121,2.767,1.575,4.189-.939-.749-1.942-1.413-2.91-2.119-1.151-.841-3.51-2.515-3.355-4.21Z" fill="#263238"/><path d="M226.373,263.961c-.212-1.844-2.317-2.246-3.8-1.971-2.541.533-4.898,1.721-6.837,3.447-.01.006-.019.015-.024.026-.006.01-.009.022-.009.034s.003.024.009.034c.005.011.014.02.024.026-.03.045-.048.097-.054.152-.005.054.003.108.023.159s.052.095.093.131.09.061.143.074c2.416.381,4.944,1.094,7.409.706c1.441-.198,3.228-1.074,3.023-2.818Zm-6.646,1.942c-1.194-.155-2.366-.374-3.532-.487c1.335-.671,2.635-1.413,4.033-1.929.672-.266,1.361-.488,2.063-.663c1.087-.248,4.718-.043,2.825,2.373-1.109,1.328-3.97.883-5.389.706Z" fill="#263238"/><path d="M287.441,133.252c0,0-32.653,55.544-33.529,59.442-1.342,5.997-8.475,65.171-8.475,65.171l-33.974-.607c0,0,5.856-52.182,11.4-69.367c3.998-12.381,32.808-53.446,32.808-53.446l31.77-1.193Z" fill="#37474f"/><path d="M214.564,252.045c4.88-.035,22.171-.226,28.662.375.013,0,.025.005.035.014.009.009.014.022.014.035s-.005.026-.014.035c-.01.009-.022.015-.035.015-2.232.317-23.782-.184-28.662-.34-.011.004-.022.005-.033.003s-.022-.006-.031-.012c-.009-.007-.016-.016-.021-.025-.005-.01-.008-.021-.008-.033c0-.011.003-.022.008-.032s.012-.018.021-.025c.009-.006.02-.011.031-.012.011-.002.022-.001.033.002Z" fill="#263238"/><path d="M281.868,138.351c-2.119,3.355-4.401,6.639-6.59,9.966-2.19,3.327-4.365,6.661-6.519,10.016-4.299,6.695-8.5,13.452-12.601,20.271-1.988,3.138-3.692,6.447-5.092,9.888-1.275,3.458-2.233,7.026-2.861,10.658-.671,3.652-1.109,7.331-1.518,11.011-.443,3.918-.881,7.836-1.314,11.753-.895,8.005-1.789,16.024-2.684,24.057-.113.982-.219,1.971-.318,2.952c0,.149.24.177.261,0c.996-7.967,1.83-15.955,2.741-23.936l1.356-11.88c.417-3.694.819-7.388,1.413-11.068.53-3.619,1.33-7.194,2.394-10.694c1.164-3.626,2.73-7.111,4.669-10.389c3.934-6.788,8.101-13.463,12.268-20.116s8.441-13.42,12.841-20.01c.537-.812,1.088-1.624,1.653-2.422.077-.064-.057-.12-.099-.057Z" fill="#263238"/><path d="M258.574,283.257c1.546.099,43.275-10.898,44.575-12.283.057-.084.091-.181.098-.282.163-1.37-1.97-6.491-3.467-13.053-.092-.417-.876-2.408-1.978-5.099-3.03-7.381-8.433-20.066-8.433-20.066l-27.243,6.992l10.03,20.165l1.356,4.739c0,0-13.78,11.026-15.037,12.714s-1.441,6.06.099,6.173Z" fill="#eb9481"/><path d="M258.574,283.257c1.546.099,43.275-10.898,44.575-12.283.057-.084.091-.181.098-.282.163-1.371-1.97-6.491-3.468-13.053-.091-.417-.875-2.408-1.977-5.099l-25.639,7.063l1.356,4.739c0,0-13.78,11.025-15.037,12.714-1.257,1.688-1.448,6.088.092,6.201Z" fill="#fff"/><path d="M258.574,283.25c1.546.113,43.275-10.891,44.575-12.276.494-.522-.587-6.166-3.37-13.335l-26.26,6.738c0,0-13.78,11.012-15.037,12.714s-1.448,6.053.092,6.159Z" fill="#fff"/><path d="M258.736,281.47c6.781-1.935,34.312-9.111,41.164-10.517.056,0,.063,0,0,.05-6.675,2.062-34.263,9.019-41.143,10.594-.134.021-.162-.085-.021-.127Z" fill="#263238"/><path d="M260.721,274.915c.753-.217,1.544-.275,2.321-.171.777.105,1.523.37,2.192.779c1.209.727,2.094,1.89,2.472,3.249c0,.042-.07.063-.084,0-.582-1.292-1.567-2.36-2.807-3.044-1.241-.684-2.67-.947-4.073-.749-.004.007-.01.012-.018.015-.007.003-.015.004-.023.003s-.015-.004-.021-.009-.011-.012-.013-.019c-.003-.008-.003-.016-.001-.023.002-.008.006-.015.011-.021.006-.005.013-.009.021-.011.007-.002.015-.001.023.001Z" fill="#263238"/><path d="M271.047,265.741c2.719-.749,6.138-.608,8.412,1.186.092.071,0,.198-.099.177-2.712-.637-5.485-.981-8.271-1.024-.038-.006-.074-.023-.102-.051-.027-.028-.045-.064-.05-.103-.004-.038.004-.078.024-.111.019-.034.05-.06.086-.074Z" fill="#263238"/><path d="M269.154,267.111c2.72-.749,6.138-.608,8.412,1.186.092.071,0,.198-.106.177-2.713-.624-5.486-.953-8.27-.982-.051.005-.101-.011-.14-.043-.039-.033-.064-.079-.069-.13-.004-.05.011-.101.044-.14.032-.039.079-.064.129-.068Z" fill="#263238"/><path d="M267.255,268.481c2.726-.749,6.137-.607,8.419,1.187.084.07,0,.19-.106.176-2.713-.635-5.486-.976-8.271-1.017-.042-.001-.082-.018-.113-.046-.031-.029-.051-.067-.056-.109s.005-.084.028-.119.058-.06.099-.072Z" fill="#263238"/><path d="M265.361,269.844c2.72-.741,6.138-.6,8.412,1.194.092.07,0,.191-.099.169-2.713-.628-5.485-.967-8.27-1.01-.047.006-.094-.007-.131-.036-.038-.03-.062-.072-.067-.119-.006-.047.007-.094.037-.131.029-.037.071-.061.118-.067Z" fill="#263238"/><path d="M296.481,264.928c3.066-.791,4.295,3.977,1.222,4.761-3.072.784-4.294-3.977-1.222-4.761Z" fill="#263238"/><path d="M267.459,263.163c1.971,1.518,4.528,2.118,6.816,2.973.052.015.107.016.161.006.053-.011.103-.034.146-.068.042-.034.076-.077.099-.126.023-.05.034-.104.032-.158.011,0,.023-.003.033-.009s.019-.014.025-.023c.006-.01.01-.021.011-.033s-.001-.023-.006-.034c-.849-2.459-2.33-4.651-4.294-6.357-1.158-.967-3.192-1.638-4.28-.127-1.088,1.512.113,3.073,1.257,3.956Zm-.706-2.225c-.495-3.045,2.776-1.455,3.602-.707.528.493,1.021,1.022,1.476,1.582.927,1.169,1.793,2.386,2.592,3.645-1.102-.48-2.239-.862-3.355-1.307-1.342-.522-4.047-1.539-4.322-3.213h.007Z" fill="#263238"/><path d="M284.022,261.432c-.671-1.73-2.825-1.582-4.174-.932-2.325,1.157-4.303,2.906-5.736,5.071-.007.009-.012.02-.014.031-.003.012-.002.024.001.035.004.011.01.022.019.03.008.008.018.014.03.017-.016.052-.019.106-.009.159.009.053.031.104.063.147s.074.078.122.102c.049.025.102.037.156.037c2.436-.247,5.064-.205,7.345-1.187c1.335-.572,2.84-1.878,2.197-3.51Zm-5.933,3.574c-1.187.148-2.38.24-3.532.431c1.088-1.02,2.227-1.984,3.412-2.889.581-.428,1.19-.817,1.822-1.165.989-.523,4.556-1.243,3.313,1.575-.714,1.561-3.588,1.871-5.015,2.048Z" fill="#263238"/><path d="M270.291,258.31l30.527-8.009c0,0-29.227-57.515-28.959-61.484.212-3.532,21.409-34.383,22.602-40.161c1.914-9.457-2.691-17.905-7.155-23.131l-31.572,8.899c0,0,2.515,5.46,7.134,8.907c0,0-19.84,33.125-20.349,44.031-.508,10.905,27.772,70.948,27.772,70.948Z" fill="#37474f"/><path d="M269.712,252.66c4.422-1.265,3.136-.961,7.579-2.183c2.175-.593,16.464-4.499,18.583-4.704.049,0,.07.071,0,.092-1.95.876-16.302,4.535-18.484,5.086-4.464,1.13-3.2.755-7.678,1.843-.049.007-.084-.134,0-.134Z" fill="#263238"/><path d="M257.973,142.081c3.025,1.122,5.948,2.502,8.737,4.124.023.012.04.031.048.055s.006.05-.005.072c-.012.023-.031.04-.055.048s-.05.006-.072-.005c-2.946-1.286-5.955-2.515-8.822-3.955-.04-.026-.068-.065-.08-.11-.013-.046-.008-.094.013-.136s.057-.075.1-.092c.044-.017.092-.018.136-.001Z" fill="#263238"/><path d="M261.682,141.304c.224.554.413,1.123.565,1.702.165.452.24.932.219,1.412-.01.017-.023.03-.039.039-.016.01-.034.014-.053.014s-.037-.004-.053-.014c-.016-.009-.03-.022-.039-.039-.265-.422-.465-.881-.593-1.363-.191-.53-.396-1.052-.565-1.582-.12-.339.438-.508.558-.169Z" fill="#263238"/><path d="M261.682,138.443c-.128-.487-.255-.968-.389-1.455s-.318-.989-.417-1.497c0-.078-.141-.043-.12,0c.12.487.177.996.262,1.49.084.494.183.989.282,1.476.186.926.422,1.84.707,2.741-.498-.037-.98-.184-1.413-.431-.421-.349-.723-.821-.862-1.349-.198-.551-.374-1.109-.579-1.653-.254-.596-.457-1.213-.607-1.843c0-.085-.142-.05-.128,0c.244,1.331.62,2.635,1.124,3.891.218.495.381,1.003.868,1.243.536.227,1.113.34,1.695.332.064,0,.163,0,.149-.092-.149-.904-.332-1.899-.572-2.853Z" fill="#263238"/><path d="M262.204,144.432c-1.201,2.169-2.571,4.238-3.856,6.357-1.286,2.119-2.444,4.182-3.617,6.3-2.359,4.281-4.548,8.674-6.547,13.138-.989,2.208-1.931,4.442-2.825,6.703-.931,2.249-1.698,4.562-2.296,6.921-.561,2.355-.667,4.796-.31,7.191.446,2.455,1.079,4.873,1.892,7.232c1.637,5.404,3.628,10.694,5.962,15.836.077.169.36.042.296-.135-1.667-4.704-3.39-9.393-4.894-14.126-1.448-4.619-3.172-9.408-2.374-14.317.446-2.354,1.118-4.66,2.006-6.886.857-2.288,1.771-4.551,2.741-6.788c1.921-4.414,4.068-8.701,6.272-12.974c1.229-2.395,2.521-4.761,3.771-7.148c1.251-2.388,2.48-4.86,3.885-7.176.043-.135-.042-.191-.106-.128Z" fill="#263238"/><path d="M285.195,139.799c-.573-.092-1.413.106-3.878-.063-.685-.061-1.365-.172-2.034-.332-.679-.107-1.324-.368-1.886-.763-.895-.847-1.626-1.853-2.154-2.967-.661-1.148-1.167-2.378-1.505-3.658c0-.078-.134-.043-.12.035.134.706.205,1.413.396,2.161.181.673.418,1.33.706,1.964.454,1.255,1.214,2.376,2.211,3.263c1.116.84,2.677.996,4.026,1.095.784.056,3.856,0,4.238-.466.113-.078.106-.248,0-.269Z" fill="#263238"/><path d="M293.239,243.732c-3.851-7.826-7.618-15.701-11.301-23.626-3.682-7.925-7.256-15.908-10.721-23.951-.959-1.888-1.723-3.869-2.282-5.911-.473-2.239.219-4.238,1.166-6.265c1.761-3.676,3.73-7.249,5.897-10.701c2.119-3.475,4.408-6.872,6.647-10.284c2.315-3.341,4.437-6.813,6.357-10.397c1.737-3.468,2.705-7.162,2.21-11.046-.494-3.885-2.168-7.473-3.955-10.884-.473-.897-.961-1.787-1.413-2.691-.035-.064-.141,0-.099.063c1.992,3.574,3.906,7.325,4.839,11.301.48,1.982.628,4.03.438,6.06-.249,2.05-.826,4.046-1.71,5.912-1.66,3.644-3.976,7.006-6.159,10.347-2.182,3.341-4.506,6.816-6.681,10.277-2.21,3.465-4.24,7.041-6.082,10.715-.805,1.645-1.688,3.362-1.885,5.205-.212,2.027.515,3.963,1.299,5.792c3.39,7.953,6.964,15.842,10.595,23.689c3.63,7.847,7.395,15.723,11.216,23.52l1.412,2.946c.092.162.269.049.212-.071Z" fill="#263238"/><path d="M255.035,66.6188c.706-3.2278,4.294-10.531,11.379-9.1043c10.114,2.0412,11.576,21.5282,16.612,27.6024c9.118,11.0043,9.415,21.8951,1.942,23.6401-8.376,1.949-16.527-7.063-16.245-26.4865.191-12.1626-3.235-17.5517-5.65-17.1915-2.416.3602-3.751,3.4327-3.751,3.4327l-4.287-1.8929Z" fill="#263238"/><path d="M255.374,65.411c.5-1.5056,1.181-2.9452,2.027-4.2873.849-1.3751,1.975-2.5585,3.306-3.475c1.378-.931,3.013-1.4054,4.675-1.3561c1.649.0497,3.26.4981,4.697,1.3066c1.401.8383,2.606,1.968,3.532,3.3126.915,1.3212,1.676,2.7431,2.267,4.2379c1.122,2.9635,1.909,6.0433,2.345,9.1819-.77-3.0345-1.766-6.0069-2.981-8.8924-.63-1.4108-1.404-2.7528-2.309-4.0047-.88-1.2356-2.011-2.2708-3.32-3.0371-1.31-.7473-2.78-1.1711-4.287-1.2361-1.492-.0698-2.969.3144-4.238,1.1019-1.301.8205-2.431,1.8855-3.327,3.136-.468.6243-.899,1.2752-1.292,1.9494-.396.6498-.756,1.349-1.095,2.0624Z" fill="#263238"/><path d="M268.688,75.5677c.106,1.9282,0,3.8635-.042,5.7917s-.12,3.8493-.127,5.7705c-.007,1.9211.056,3.8352.254,5.7352.161,1.8914.507,3.7626,1.031,5.5869.497,1.813,1.333,3.514,2.465,5.015c1.188,1.46,2.622,2.701,4.238,3.665c1.618.983,3.445,1.568,5.333,1.71.944.073,1.894.023,2.825-.149.479-.089.951-.212,1.413-.367.46-.136.897-.338,1.299-.6-.787.573-1.684.979-2.634,1.193-.948.247-1.924.368-2.903.361-.988-.018-1.971-.158-2.924-.417-.952-.268-1.869-.644-2.734-1.123-.867-.475-1.685-1.033-2.444-1.667l-.558-.48-.536-.502c-.365-.343-.704-.711-1.017-1.102-1.215-1.575-2.116-3.368-2.656-5.2827-.979-3.781-1.355-7.6924-1.116-11.5905.056-1.9353.205-3.8635.374-5.7847.17-1.9211.396-3.8352.459-5.7634Z" fill="#263238"/><path d="M254.456,66.6753c-.113-.897.431-2.1189.996-2.3379s5.071,1.229,5.544,2.3096c.474,1.0807-1.349,2.232-1.349,2.232l-5.191-2.2037Z" fill="#fff"/><path d="M259.852,98.4873c-2.776,3.9627-22.849,20.3557-33.797,20.9627-4.944.269-24.283-1.836-28.591-3.609-5.29-2.175,5.17-15.277,8.476-14.719c4.139.706,18.816,2.253,21.74,2.331c4.69.12,19.07-7.7697,28.753-9.8251c5.008-1.0524,5.566,1.8082,3.419,4.8594Z" fill="#eb9481"/><path d="M259.633,99.236c-3.065,5.347-13.886,14.515-13.886,14.515l-1.843-3.405-6.103-11.2371c0,0,10.256-4.0825,17.058-6.0672.798-.2451,1.616-.4246,2.443-.5368c4.394-.565,4.966,2.1401,2.331,6.7311Z" fill="#dbdbdb"/><path d="M259.633,99.236c-3.065,5.347-13.886,14.515-13.886,14.515l-1.843-3.405-1.257-2.317-4.853-8.9131c0,0,10.263-4.0966,17.065-6.0813.8-.2383,1.617-.4154,2.444-.5297.087-.0066.174-.0066.261,0c4.153-.452,4.662,2.2319,2.069,6.7311Z" fill="#dbdbdb"/><path d="M246.842,96.3472c.235.9748.235,1.9917,0,2.9665-.236-.9748-.236-1.9917,0-2.9665Zm-2.903,5.8198c-.498-.008-.994.052-1.476.177.482.121.978.181,1.476.176.5.004.998-.055,1.483-.176-.484-.125-.983-.184-1.483-.177Zm15.002-8.2919c-.5-.0075-.999.0519-1.483.1766.484.1247.983.1841,1.483.1766.498.0036.994-.0557,1.476-.1766-.482-.1209-.978-.1802-1.476-.1766Zm-5.778,7.3739c.35.356.744.664,1.173.918-.254-.429-.563-.823-.918-1.172-.351-.354-.745-.663-1.173-.919.256.428.565.822.918,1.173Zm-5.699,7.063c.349.358.743.669,1.172.925-.252-.43-.561-.825-.918-1.172-.349-.358-.744-.669-1.173-.925.244.428.543.822.89,1.172h.029Z" fill="#fff"/><path d="M247.633,111.243c-1.024-2.069-5.544-10.404-6.639-12.1412-.078-.1201-.17-.106-.113,0c2.002,4.1642,4.228,8.2172,6.667,12.1412.029.085.113.057.085,0Z" fill="#263238"/><path d="M259.633,99.236c-3.065,5.347-13.886,14.515-13.886,14.515l-1.843-3.405-1.258-2.317c5.87-5.791,12.94-12.9178,14.918-15.5382c4.153-.4379,4.661,2.246,2.069,6.7452Z" fill="#a6a6a6"/><path d="M249.625,123.865l1.603,17.658c2.16-.1,4.313-.317,6.449-.65c5.634-.846,11.215-2.008,16.718-3.482c5.46-1.413,11.859-3.362,19.176-5.962c0,0-16.549-29.848-27.969-38.0836-.262-.1907-.516-.3673-.777-.5297-.05-.0424-.099-.0636-.149-.0989-5.191-3.2843-9.888-.7063-12.487,2.9523-.657.9182-7.014,15.3689-6.696,20.2149.29,4.259,4.132,7.981,4.132,7.981Z" fill="#dbdbdb"/><path d="M258.807,104.964c.125.482.185.979.177,1.476.007.5-.052.999-.177,1.484-.125-.485-.184-.984-.177-1.484-.004-.497.055-.993.177-1.476Zm3.849,18.491c-.004.5.056.999.177,1.483.128-.483.188-.983.176-1.483.008-.5-.051-.999-.176-1.483-.121.485-.181.983-.177,1.483Zm12.325-10.524c-.007.5.052.999.177,1.484.235-.975.235-1.992,0-2.967-.125.484-.184.983-.177,1.483Zm-22.601,8.271c-.008.5.051.999.176,1.483.236-.974.236-1.991,0-2.966-.125.484-.184.983-.176,1.483Zm14.239-13.017c-.5-.004-.999.055-1.484.176.975.236,1.992.236,2.967,0-.483-.12-.979-.18-1.476-.176h-.007Zm10.51,13.172c-.501-.011-1,.049-1.484.177.975.235,1.992.235,2.967,0-.482-.124-.979-.183-1.476-.177h-.007Zm-15.977,10.44c-.498-.008-.994.051-1.476.176.482.125.978.185,1.476.177.5.007.999-.052,1.483-.177-.483-.12-.979-.18-1.476-.176h-.007Zm18.611-2.034c-.498-.004-.994.055-1.476.176.972.236,1.987.236,2.959,0-.485-.121-.983-.181-1.483-.176ZM258.941,93.8539c-.5-.0075-.999.0519-1.483.1766.484.1248.983.1841,1.483.1766.498.0036.994-.0557,1.476-.1766-.483-.1137-.979-.166-1.476-.1554v-.0212Zm7.558,3.2702c.349.3578.743.6688,1.172.9253-.25-.4317-.559-.8263-.918-1.1725-.349-.3577-.743-.6687-1.173-.9252.255.4368.566.8381.926,1.1936l-.007-.0212Zm15.432,16.5209c.35.357.744.668,1.173.925-.252-.43-.561-.825-.918-1.173-.351-.356-.745-.667-1.173-.925.253.437.561.838.918,1.194v-.021Zm-24.678,1.765c.349.358.743.669,1.173.926-.528-.865-1.254-1.592-2.119-2.119.26.445.578.854.946,1.215v-.022Zm14.197,11.958c.349.358.743.669,1.172.925-.527-.865-1.254-1.591-2.119-2.119.262.438.58.84.947,1.194Zm-18.251-26.133c.349.355.743.664,1.172.918-.254-.429-.562-.823-.918-1.172-.351-.354-.745-.663-1.172-.919.244.431.54.83.883,1.187l.035-.014Zm-1.003,9.281c.356-.351.667-.745.925-1.173-.43.252-.825.561-1.172.918-.358.35-.669.744-.926,1.173.415-.254.796-.558,1.138-.904l.035-.014ZM285.71,123.13c.358-.347.667-.742.918-1.172-.867.525-1.594,1.252-2.119,2.119.427-.259.819-.573,1.166-.933l.035-.014Zm-31.685,5.057c.356-.349.664-.743.918-1.172-.867.525-1.594,1.252-2.118,2.119.427-.259.818-.573,1.165-.932l.035-.015Zm18.915-24.346c.358-.349.669-.743.925-1.172-.43.254-.824.566-1.172.925-.358.349-.669.743-.925,1.172.416-.254.798-.56,1.137-.911l.035-.014Zm-4.69,31.713c.36-.348.671-.742.926-1.172-.431.254-.825.566-1.173.925-.358.349-.669.743-.925,1.172.416-.254.798-.56,1.137-.911l.035-.014Zm0-19.07c.362-.346.673-.741.926-1.172-.866.527-1.592,1.253-2.119,2.118.432-.263.826-.584,1.172-.953l.021.007Z" fill="#fff"/><path d="M261.434,92.4131c-.099.7063-2.91,5.2973-5.975,5.4173-1.003.0353-1.448-5.4032-1.448-5.4032l-.127-.3955-1.745-5.5163l6.244-4.7817.911-.6427c0,0,.374,1.5468.826,3.468l.064.2754c0,.106.056.2048.078.3108l.212.8687c.049.2261.098.445.141.7063l.148.7064c.337,1.6449.562,3.3109.671,4.9865Z" fill="#eb9481"/><path d="M260.149,84.559c-.431,1.6297-1.213,3.1457-2.29,4.4425s-2.424,2.3429-3.947,3.0655l-1.745-5.5163l6.216-4.817.911-.6427c0,0,.374,1.5115.855,3.468Z" fill="#263238"/><path d="M244.398,78.2022c-.049,10.1567,6.032,11.3362,8.222,11.3433c1.984,0,8.758-.219,9.888-10.3192c1.13-10.1001-3.609-13.328-8.151-13.5893-4.541-.2613-9.909,2.3873-9.959,12.5652Z" fill="#eb9481"/><path d="M261.922,79.9114c-1.66.1696-2.119-3.3125-2.119-3.3125s-3.383.0988-4.619-4.7464c.131,1.4575.686,2.8448,1.596,3.9906c0,0-5.997-.4661-8.638-5.4103c0,0,1.066,2.5215,2.027,3.4044-1.525-.4302-2.861-1.3606-3.793-2.6416c0,0-.975,2.91-1.759,3.7223c0,0-1.158-5.1137.968-7.7694c4.478-5.6505,11.83-.7063,11.83-.7063s4.111.6215,5.58,3.701c2.268,4.7111-1.073,9.7682-1.073,9.7682Z" fill="#263238"/><path d="M260.855,79.975c0,0,1.95-3.3408,3.454-2.6698s.212,5.3891-1.413,6.1519c-.2.1131-.422.1845-.651.2101s-.461.0049-.682-.061c-.22-.066-.426-.1757-.603-.3226-.178-.147-.324-.3282-.43-.5328l.325-2.7758Z" fill="#eb9481"/><path d="M245.67,76.1468c.238-.0414.474-.098.706-.1695.249-.0279.483-.1371.664-.3107.05-.0635.077-.1418.077-.2225s-.027-.1591-.077-.2225c-.121-.1059-.267-.1779-.425-.2089-.157-.0311-.32-.0199-.472.0323-.323.0613-.613.2399-.812.5015-.039.0596-.061.1287-.063.1998s.015.1414.05.2033.086.1131.148.1479.133.0518.204.0493Z" fill="#263238"/><path d="M252.295,76.9379c-.238-.0236-.474-.0613-.707-.113-.258-.0049-.507-.097-.706-.2613-.051-.063-.079-.1415-.079-.2225s.028-.1596.079-.2225c.111-.1156.251-.199.405-.2413s.317-.0419.471.0012c.327.0362.631.1891.855.4308.045.0581.074.1281.081.2018.007.0736-.007.1478-.04.2138s-.085.1212-.149.1589c-.063.0378-.136.0565-.21.0541Z" fill="#263238"/><path d="M250.967,79.0145c0,0,.05,0,.05.0635c0,.7063.091,1.4974.706,1.7163v.0424c-.756-.0989-.904-1.1583-.756-1.8222Z" fill="#263238"/><path d="M251.553,78.2799c1.116-.106,1.243,2.1189.205,2.239-1.038.12-1.144-2.1543-.205-2.239Z" fill="#263238"/><path d="M251.998,78.3717c.205.1201.41.332.65.3461s.466-.2402.636-.4732h.035c0,.4308-.113.8829-.565.9747s-.706-.2825-.876-.7063c-.021-.0636.043-.1837.12-.1413Z" fill="#263238"/><path d="M247.075,79.0498c0,0-.056.0353-.049.0635.064.7063,0,1.5045-.593,1.7729c0,0,0,.0423,0,0c.769-.1201.812-1.1866.642-1.8364Z" fill="#263238"/><path d="M246.404,78.3646c-1.123,0-1.066,2.232,0,2.2461c1.067.0141.947-2.2319,0-2.2461Z" fill="#263238"/><path d="M245.945,78.52c-.176.1272-.346.3461-.558.3673s-.438-.2189-.6-.452h-.036c0,.4308.156.8758.573.9464.416.0707.642-.3108.706-.7416.049-.0494-.007-.1695-.085-.1201Z" fill="#263238"/><path d="M248.241,82.1293c0,0-.099,1.017-.099,1.5326.95-.0289,1.901.0709,2.825.2967.219.0636.205-.1201-.043-.2543-.737-.3967-1.575-.5663-2.408-.4873-.035-.1342.184-1.6033.106-1.6033-.379.0476-.75.1474-1.102.2966.141-2.1825.636-4.3297.742-6.5051c0-.0168-.007-.033-.019-.0449s-.028-.0186-.045-.0186-.033.0067-.045.0186-.018.0281-.018.0449c-.597,2.2792-.967,4.612-1.102,6.9642.021.2613,1.017-.1483,1.208-.2401Z" fill="#263238"/><path d="M249.293,83.6619c.354.4652.85.8023,1.413.9606.854.0848.911-.7063-.043-1.0665-.458-.0908-.932-.0541-1.37.1059Z" fill="#263238"/><path d="M250.72,84.6225c-.322-.054-.623-.1958-.869-.4096.155-.2755.551-.5863,1.483-.1413.149.3249-.07.6074-.614.5509Z" fill="#ff99ba"/><path d="M259.944,91.1982c1.243,0,3.334.3108,6.159,2.458c0,0-5.89,4.7393-11.371,4.7393-1.957,0-2.543-2.7334-2.543-2.7334s2.634-4.4215,7.755-4.4639Z" fill="#eb9481"/><path d="M353,294.558h-23.075c-16.768,0-27.023-11.591-28.867-32.632-.911-10.375-1.469-22.933-2.055-36.226-1.808-40.846-4.287-96.764-20.186-96.764h-18.273v-4.238h18.273c19.946,0,22.22,51.257,24.417,100.825.586,13.251,1.144,25.767,2.048,36.022c1.151,13.123,6.357,28.768,24.643,28.768h23.075v4.245Z" fill="#fff"/><path d="M273.964,124.684l-.904,4.238h-12.516v-4.238h13.42Z" opacity="0.2"/><path d="M226.105,101.44h-7.388v51.624h7.388v-51.624Z" fill="#fff"/><path d="M218.724,105.254h-28.09v43.466h28.09v-43.466Z" fill="#fff"/><path d="M218.717,105.261v43.466h-6.978l-3.129-43.466h10.107Z" opacity="0.2"/><path d="M169.078,113.058h21.549v6.498h-21.549c-.738,0-1.446-.293-1.968-.815s-.815-1.229-.815-1.967v-.926c-.001-.366.07-.728.21-1.067.139-.338.344-.646.603-.905.258-.259.565-.465.903-.605s.701-.213,1.067-.213Z" fill="#dbdbdb"/><path d="M190.627,113.058h-7.565v6.491h7.565v-6.491Z" fill="#a6a6a6"/><path d="M169.078,134.424h21.549v6.498h-21.549c-.738,0-1.446-.293-1.968-.815s-.815-1.23-.815-1.968v-.925c-.001-.366.07-.729.21-1.067.139-.339.344-.646.603-.905.258-.259.565-.465.903-.605.338-.141.701-.213,1.067-.213Z" fill="#dbdbdb"/><path d="M190.627,134.424h-7.565v6.491h7.565v-6.491Z" fill="#a6a6a6"/><path d="M269.762,122.841h-21.945v8.666h21.945v-8.666Z" fill="#fff"/><path d="M269.762,122.848h-21.945v8.666h21.945v-8.666Z" fill="#fff"/><path d="M255.523,122.848l-.721,8.666h-6.985v-8.666h7.706Z" opacity="0.2"/><path d="M226.105,106.892h17.368c1.152,0,2.257.458,3.072,1.273.814.814,1.272,1.919,1.272,3.071v31.508c0,1.152-.458,2.257-1.272,3.072-.815.815-1.92,1.272-3.072,1.272h-17.368v-40.196Z" fill="#fff"/><path d="M235.343,106.892l-3.129,40.196h-6.102v-40.196h9.231Z" opacity="0.2"/><g opacity="0.2"><path d="M233.726,115.015h-1.384v23.944h1.384v-23.944Z"/><path d="M237.653,115.015h-1.384v23.944h1.384v-23.944Z"/><path d="M241.58,115.015h-1.384v23.944h1.384v-23.944Z"/></g><path d="M267.727,98.5932c2.43,6.8158-1.052,31.7838-5.17,37.0738-6.116,7.84-18.201,15.052-22.821,17.305-2.02.981-11.067-13.484-9.097-14.833c4.238-2.903,17.736-9.831,18.88-11.209c1.144-1.377,7.303-14.606,9.768-22.044c3.313-9.9867,7.218-9.7325,8.44-6.2928Z" fill="#eb9481"/><path d="M239.723,153.014c-6.407,3.659-19.155,3.122-20.893,2.592l-2.246-.706c-2.677-.756-3.397-2.232-3.397-2.232s-3.348.042-3.716-1.978c-.409-2.267,4.373-1.885,7.134-3.284c6.357-3.2,14.423-9.528,16.153-10.63l6.965,16.238Z" fill="#eb9481"/><path d="M225.596,148.72c-1.839.963-3.743,1.796-5.699,2.493-2.183.633-4.409,1.105-6.661,1.413-.011.004-.02.011-.027.02-.006.01-.01.021-.01.033c0,.011.004.022.01.032.007.009.016.017.027.021c4.419-.121,8.721-1.449,12.438-3.843.092-.056.014-.212-.078-.169Z" fill="#263238"/><path d="M228.082,152.258c-1.878.777-5.191,2.119-11.505,2.585c0,0,0,.036,0,.043c4.01.277,8.018-.567,11.576-2.437.113-.085.057-.24-.071-.191Z" fill="#263238"/><path d="M223.986,143.076c.657-.706.268-1.087-1.469-.777-1.738.311-8.342,3.038-9.097.657-.756-2.38,8.624-6.095,11.555-6.399c2.648-.137,5.303-.059,7.939.233-1.681,1.088-5.665,4.111-8.928,6.286Z" fill="#eb9481"/><path d="M260.912,100.31c4.273-8.9917,8.172-6.6115,8.546,2.281.126,6.175-.152,12.352-.833,18.491l-15.49-4.436c0,0,5.043-10.58,7.777-16.336Z" fill="#dbdbdb"/><path d="M264.768,95.0688c.865.5273,1.592,1.2538,2.119,2.1189-.865-.5274-1.591-1.2538-2.119-2.1189ZM258.63,106.454c-.007.501.052.999.177,1.484.125-.485.184-.983.177-1.484.008-.497-.052-.994-.177-1.476-.122.483-.181.979-.177,1.476Zm7.996,1.745c-.5-.004-.999.055-1.483.177.974.235,1.991.235,2.966,0-.484-.127-.983-.191-1.483-.191v.014Zm-9.373,7.233c.349.357.743.668,1.173.925-.528-.865-1.254-1.592-2.119-2.119.261.438.579.839.946,1.194Zm10.976,1.045c.362-.346.673-.741.925-1.173-.865.528-1.591,1.254-2.119,2.119.44-.259.841-.578,1.194-.946Z" fill="#fff"/><path d="M259.443,103.05c-.58,1.18-1.187,2.338-1.794,3.532.103-.551.188-1.109.254-1.674h-.043c-.084.438-.19.875-.275,1.313-.035.212-.078.424-.12.636c0,.042,0,.085,0,.134-.473.904-.939,1.815-1.413,2.734-.536,1.101-1.038,2.21-1.546,3.319-.509,1.109-.982,2.465-1.554,3.588.486.203.993.354,1.511.452.134.05.205-.084.064-.106-.142-.021-1.3-.48-1.314-.487.509-1.123,1.137-2.182,1.674-3.284s1.088-2.19,1.603-3.299c1.046-2.246,1.964-4.555,3.002-6.809c0-.056-.049-.077-.049-.049Z" fill="#263238"/><path d="M270.101,108.404c-.142.459-.304.918-.424,1.412-.042.198-.092.389-.141.587.056-1.611.108-3.216.155-4.817-.219,2.627-.445,5.248-.614,7.875-.246,2.516-.362,5.043-.347,7.572-.464-.11-.936-.184-1.412-.219.513.218,1.052.372,1.603.459.389-2.543.417-5.354.544-7.911.035-.706.057-1.413.085-2.168.085-.445.212-.883.332-1.321s.212-.947.311-1.413c-.036-.07-.085-.084-.092-.056Z" fill="#263238"/><path d="M267.996,118.737c-2.183-.777-11.223-3.63-13.215-4.118-.141-.035-.198.043-.057.092c4.334,1.61,8.752,2.98,13.237,4.104.056.021.091-.064.035-.078Z" fill="#263238"/><path d="M192.061,116.343c2.119.65,1.688-2.246,1.688-2.246s1.66,4.011,4.125,3.835c2.465-.177,1.702-3.659,1.66-3.913.084.212,1.709,3.856,4.167,3.426c2.458-.431,1.278-3.836,1.194-4.048.148.17,2.119,2.423,3.927,1.667c3.079-1.299-1.837-7.204-1.477-9.888l4.33.127c.142-.014.284-.035.424-.063l.162-2.211c-1.383-.562-2.72-1.233-3.997-2.006-1.632-.918-3.207-1.7517-4.379-1.78-.526-.028-1.048.1141-1.486.4055-.439.2913-.773.7165-.951,1.2115c0,0-1.272-2.0054-3.221-1.7229-.996.1483-1.646,1.8789-1.646,1.8789-.313-.443-.743-.791-1.241-1.004-.499-.2131-1.047-.2837-1.584-.2039-1.37.2829-1.808,1.9779-1.808,1.9779s-1.738-1.024-3.044-.276c-2.621,1.455-1.42,13.42,3.157,14.833Z" fill="#eb9481"/><path d="M207.882,104.922l3.772.346c.142-.014.284-.035.424-.064c4.76-.861,7.727-6.3141,4.238-6.7026-2.621-.3037-5.46,3.1786-8.109,2.4796l-.325,3.941Z" fill="#eb9481"/><path d="M191.856,102.005h-.063c-.601,4.178.084,8.439,1.963,12.219.064.12.283.063.24-.078-1.299-3.921-2.02-8.012-2.14-12.141Z" fill="#263238"/><path d="M196.581,100.924c0-.049-.077-.049-.084,0-.636,4.607.396,9.289,2.91,13.201.092.134.31.162.212,0-1.568-2.726-3.038-9.323-3.038-13.201Z" fill="#263238"/><path d="M205.177,113.567c-2.437-3.842-3.404-8.08-3.765-12.572c0-.057-.084-.043-.099,0-.416,2.246.113,5.085.707,7.261.518,2.028,1.558,3.886,3.016,5.389.07.063.197.007.141-.078Z" fill="#263238"/><path d="M145.516,274.555c-1.462.488-43.325.368-44.921-.642-.6006-.382-.9397-6.484-1.1374-13.865-.0495-1.589-.0777-3.235-.106-4.909c0-1.978-.0565-3.984-.0706-5.933-.0495-8.744.0706-16.443.0706-16.443h27.2564v16.443v5.933l-.141,4.909c0,0,16.005,7.218,17.657,8.518c1.653,1.299,2.854,5.537,1.392,5.989Z" fill="#ad6359"/><path d="M145.516,274.555c-1.463.488-43.325.368-44.922-.642-.5999-.382-.9389-6.484-1.1367-13.865-.0494-1.589-.0777-3.235-.1059-4.909c0-1.978-.0565-3.984-.0706-5.933h27.3132v5.933l-.142,4.909c0,0,16.005,7.218,17.658,8.518c1.653,1.299,2.868,5.537,1.406,5.989Z" fill="#fff"/><path d="M145.643,274.647c-.954.318-18.781.381-31.784.113-3.009-.071-5.756-.148-7.967-.247-3.058-.141-5.107-.304-5.438-.516-.7421-.473-1.0882-9.429-1.2577-18.879h27.3837l-.141,4.944c0,0,16.096,7.261,17.735,8.567c1.638,1.307,2.966,5.524,1.469,6.018Z" fill="#fff"/><path d="M145.021,272.966c-7.063-.198-35.527-.311-42.519.035-.057,0-.057.036,0,.043c6.992.346,35.463.226,42.519.035.17-.007.177-.113,0-.113Z" fill="#263238"/><path d="M127.462,258.494c-2.776-.523-6.173-.106-8.299,1.864-.085.078,0,.191.12.163c2.656-.851,5.396-1.412,8.172-1.674.047.001.092-.017.126-.049.034-.033.053-.077.054-.124s-.016-.092-.049-.126c-.032-.034-.077-.053-.124-.054Z" fill="#263238"/><path d="M129.482,259.723c-2.775-.53-6.173-.113-8.306,1.864-.077.071,0,.191.12.163c2.66-.856,5.405-1.422,8.186-1.688.037-.011.069-.033.092-.064.023-.03.036-.067.036-.106c0-.038-.013-.075-.036-.106-.023-.03-.055-.052-.092-.063Z" fill="#263238"/><path d="M131.467,260.924c-2.775-.53-6.173-.113-8.299,1.857-.085.078,0,.198.113.17c2.657-.849,5.396-1.412,8.172-1.681.041-.007.077-.027.105-.057.027-.031.043-.07.044-.111.002-.04-.011-.081-.035-.113-.025-.033-.06-.056-.1-.065Z" fill="#263238"/><path d="M133.466,262.138c-2.776-.529-6.173-.113-8.299,1.858-.085.078,0,.198.12.17c2.653-.853,5.391-1.417,8.165-1.682.04-.006.077-.026.105-.056.027-.031.042-.07.044-.111s-.011-.081-.035-.113c-.025-.033-.06-.056-.1-.066Z" fill="#263238"/><path d="M132.611,252.088c-1.088-1.505-3.122-.834-4.28.134-1.964,1.706-3.445,3.898-4.294,6.357-.005.01-.007.022-.006.033.001.012.005.023.011.033s.015.018.025.024c.01.005.022.008.033.008c0,.212.198.438.431.347c2.296-.841,4.859-1.455,6.823-2.981c1.151-.89,2.288-2.529,1.257-3.955Zm-4.859,4.944c-1.116.438-2.253.826-3.355,1.306.801-1.26,1.666-2.479,2.592-3.651.453-.563.946-1.091,1.476-1.582.827-.756,4.104-2.345,3.602.706-.275,1.674-2.98,2.691-4.315,3.221Z" fill="#263238"/><path d="M116.981,257.823c2.281.982,4.944.939,7.345,1.186.054,0,.108-.013.156-.037s.091-.059.123-.102c.033-.043.056-.093.066-.146s.009-.107-.006-.16c.009-.006.016-.015.021-.024.005-.01.008-.021.008-.032s-.003-.022-.008-.032c-.005-.009-.012-.018-.021-.025-1.425-2.164-3.393-3.918-5.706-5.085-1.371-.65-3.532-.791-4.182.939-.65,1.731.869,2.946,2.204,3.518Zm-1.25-1.978c-1.243-2.825,2.323-2.119,3.312-1.589.634.352,1.245.743,1.83,1.172c1.189.903,2.33,1.868,3.418,2.889-1.186-.19-2.38-.282-3.574-.431-1.427-.176-4.301-.487-4.986-2.041Z" fill="#263238"/><path d="M130.479,253.197l-33.776.607c0,0-4.5981-29.884-7.6211-48.467-1.1442-6.985-2.0483-12.381-2.4155-14.006-.8759-3.877-17.9896-65.425-17.9896-65.425l24.5511-.035h8.3911c0,0-.537,10.291-.219,11.371c4.379,14.896,13.328,41.312,16.125,50.515c4.287,14.148,12.954,65.44,12.954,65.44Z" fill="#a6a6a6"/><path d="M127.406,248.019c-4.845-.035-22.037-.226-28.4926.375-.0092.003-.017.01-.0226.018-.0055.008-.0085.018-.0085.028c0,.009.003.019.0085.027.0056.009.0134.015.0226.019c2.2246.317,23.6476-.177,28.4996-.332.011.002.022.003.033,0c.011-.002.021-.007.03-.014.008-.007.015-.016.02-.026.004-.01.006-.021.006-.032-.001-.012-.004-.022-.01-.032-.005-.01-.013-.018-.022-.024-.01-.006-.02-.01-.032-.011-.011-.001-.022,0-.032.004Z" fill="#263238"/><path d="M97.2538,222.55c-1.1677-7.727-2.4697-15.435-3.9058-23.125-.7063-3.778-1.4762-7.55-2.465-11.3-.9889-3.751-2.2461-7.459-3.5316-11.139-2.5285-7.317-4.9441-14.67-7.2113-22.072-2.2673-7.402-4.3791-14.832-6.3568-22.326-.2543-.947-.5015-1.893-.7769-2.825c0-.078-.1342-.043-.1201,0c.7699,3.771,1.7658,7.508,2.7193,11.237s1.9776,7.444,3.0441,11.145c2.1472,7.431,4.4757,14.809,6.9854,22.136c1.2502,3.645,2.5498,7.282,3.6587,10.976s1.9706,7.437,2.7404,11.209c1.561,7.656,2.8888,15.362,4.1178,23.068s2.2814,15.539,3.3126,23.308c.1342.982.2613,1.971.3885,2.96.0353.275.4729.275.4449,0-.7981-7.749-1.8929-15.511-3.0442-23.252Z" fill="#263238"/><path d="M93.2279,125.857l-4.146,79.48c-1.1442-6.985-2.0483-12.381-2.4155-14.006-.8759-3.877-17.9896-65.425-17.9896-65.425l24.5511-.049Z" fill="#263238"/><path d="M103.625,281.251c-1.462.487-43.3251.367-44.9214-.65-.6004-.374-.9394-6.477-1.1372-13.857-.0494-1.597-.0776-3.235-.1059-4.909c0-1.985-.0565-3.984-.0706-5.933-.0495-8.744.0706-16.443.0706-16.443h27.2493v22.383l-.1413,4.909c0,0,16.0045,7.218,17.6575,8.518c1.653,1.299,2.861,5.502,1.399,5.982Z" fill="#ad6359"/><path d="M103.624,281.251c-1.462.487-43.3244.367-44.9206-.65-.6004-.374-.9394-6.477-1.1372-13.857-.0494-1.597-.0777-3.235-.1059-4.909c0-1.985-.0565-3.984-.0707-5.933h27.3129v5.94l-.1413,4.909c0,0,16.0048,7.218,17.6578,8.518c1.653,1.299,2.867,5.502,1.405,5.982Z" fill="#fff"/><path d="M103.752,281.315c-.954.31-18.7881.374-31.7841.106-3.0018-.064-5.7494-.149-7.9672-.241-3.0512-.141-5.0995-.31-5.4385-.522-.7063-.473-1.0877-9.422-1.2502-18.873h27.3835l-.1413,4.944c0,0,16.1108,7.254,17.7498,8.533c1.638,1.278,2.917,5.558,1.448,6.053Z" fill="#fff"/><path d="M103.151,279.627c-7.0627-.191-35.5339-.311-42.5193.035-.0565,0-.0565.042,0,.049c6.9854.339,35.4637.226,42.5193.036.149-.007.149-.113,0-.12Z" fill="#263238"/><path d="M85.5713,265.161c-2.7758-.529-6.1731-.113-8.2991,1.858-.0847.078,0,.198.113.169c2.6567-.848,5.3961-1.411,8.172-1.681.0404-.006.0773-.026.1045-.056.0272-.031.0429-.07.0446-.111s-.0109-.081-.0355-.113c-.0246-.033-.0598-.056-.0995-.066Z" fill="#263238"/><path d="M87.5702,266.376c-2.7758-.53-6.1731-.113-8.2991,1.858-.0848.077,0,.198.1201.169c2.6554-.853,5.3953-1.416,8.1719-1.681.0401-.007.0765-.028.1029-.059.0265-.031.0414-.07.0422-.111.0009-.041-.0124-.08-.0376-.112-.0252-.033-.0606-.055-.1004-.064Z" fill="#263238"/><path d="M89.5761,267.584c-2.7758-.523-6.1731-.106-8.3061,1.865-.0777.077,0,.19.12.162c2.6568-.847,5.3963-1.408,8.172-1.674.0468.002.0925-.015.1269-.047.0345-.031.0549-.076.0567-.122.0019-.047-.0149-.093-.0467-.127-.0318-.035-.0759-.055-.1228-.057Z" fill="#263238"/><path d="M91.5752,268.799c-2.7758-.523-6.1731-.106-8.2991,1.865-.0847.077,0,.19.113.162c2.657-.846,5.3964-1.407,8.172-1.674.0468.002.0925-.015.1269-.047.0345-.031.0549-.076.0567-.122.0019-.047-.0149-.093-.0467-.127-.0318-.035-.0759-.055-.1228-.057Z" fill="#263238"/><path d="M90.7203,258.755c-1.0877-1.511-3.1218-.84-4.2872.134-1.9642,1.706-3.4451,3.898-4.2944,6.357-.0032.011-.0038.023-.0018.035.002.011.0065.022.0133.032.0068.009.0156.017.0259.023.0102.005.0216.008.0332.009-.0031.054.0067.108.0286.157.0219.05.0554.093.0976.127s.0918.057.1448.068.1078.009.1599-.006c2.2955-.84,4.8523-1.455,6.8229-2.98c1.1725-.869,2.2814-2.536,1.2572-3.956Zm-4.8594,4.944c-1.123.445-2.2531.827-3.3549,1.314.8405-1.236,1.6245-2.5,2.5851-3.652.4568-.561.9499-1.092,1.4762-1.589.8334-.748,4.1036-2.338,3.6092.707-.2472,1.674-2.9806,2.691-4.3156,3.213v.007Z" fill="#263238"/><path d="M75.0969,264.49c2.2884.982,4.9441.94,7.3526,1.187.0547,0,.1088-.012.1577-.037.0489-.024.0914-.06.1238-.104s.0538-.096.0626-.15.0046-.109-.0121-.161c.0109-.004.021-.01.0293-.018s.0147-.018.0188-.028c.0041-.011.0056-.023.0046-.034-.0009-.012-.0045-.023-.0103-.033-1.4393-2.162-3.4188-3.91-5.7423-5.071-1.3703-.65-3.5315-.791-4.1813.939-.6499,1.73.8475,2.938,2.1966,3.51Zm-1.2431-1.984c-1.2431-2.826,2.3237-2.119,3.3125-1.582.6355.346,1.2466.736,1.8294,1.165c1.1873.907,2.3282,1.874,3.4185,2.896-1.1937-.198-2.3873-.283-3.581-.431-1.4338-.177-4.3084-.487-4.9936-2.048h.0142Z" fill="#263238"/><path d="M88.5168,259.462h-33.048c0,0,7.1831-102.471,6.0247-108.214-1.8999-9.401-.6356-20.2,3.8141-25.427h29.4035c0,0,.5862,8.25-2.4509,13.18c0,0-2.7616,1.745-4.0965,2.514l.3531,117.947Z" fill="#a6a6a6"/><path d="M85.4371,254.115c-4.5769-.113-3.2561-.149-7.84-.212-2.239-.035-16.9514-.24-19.0703.092-.0494,0-.0494.084,0,.091c2.1189.361,16.8242.311,19.0703.297c4.5769,0,3.2631-.063,7.84-.134.0141-.005.0264-.014.0351-.026s.0135-.026.0135-.041-.0047-.03-.0135-.042-.021-.021-.0351-.025Z" fill="#263238"/><path d="M94.0968,137.708c-2.891,1.394-5.6579,3.032-8.2709,4.895-.0215.013-.037.034-.0429.059-.006.024-.002.05.0111.072.0131.021.0343.037.0588.043s.0504.002.0719-.011c2.8252-1.547,5.6504-3.045,8.3627-4.74.0421-.025.0725-.066.0844-.114.0119-.047.0044-.098-.0209-.14s-.0663-.072-.1139-.084-.0982-.005-.1403.02Z" fill="#263238"/><path d="M90.3462,137.285c-.1676.57-.2997,1.15-.3956,1.737-.12.461-.1511.94-.0918,1.413c0,.092.1484.085.1907,0c.2217-.445.3741-.922.4521-1.413.1412-.544.2966-1.08.4167-1.624.0847-.346-.4591-.466-.5721-.113Z" fill="#263238"/><path d="M90.0846,134.452c.0777-.494.1554-.981.2472-1.469.0918-.487.2189-1.017.2684-1.525c0-.085.1412-.057.1271,0-.0777.494-.0847,1.003-.1271,1.497s-.0848.996-.1342,1.49c-.0995.932-.2456,1.859-.4379,2.776.4878-.083.9511-.274,1.3561-.558.3755-.387.6222-.88.7063-1.412.1412-.566.2684-1.131.4167-1.696.2001-.612.3443-1.24.4308-1.878c0-.085.1413-.057.1272,0-.1148,1.342-.3657,2.67-.7487,3.962-.0826.512-.3456.978-.7416,1.314-.51.272-1.0698.438-1.6457.487-.0636,0-.1625,0-.1554-.078.0553-.974.159-1.945.3108-2.91Z" fill="#263238"/><path d="M66.2684,150.874c-.2119-2.161-.5651-4.308-.7982-6.47-.4416-4.327-.1793-8.696.777-12.939c0-.078-.106-.113-.1201,0-.8363,3.726-1.2251,7.539-1.1583,11.357.1907,3.814.8687,7.572.9252,11.393s-.2401,7.734-.4873,11.59c-.2472,3.857-.5015,7.77-.7487,11.647-1.003,15.603-1.9282,31.205-2.8818,46.814-.2636,4.351-.5179,8.707-.7628,13.067-.2542,4.428-.565,8.864-.7063,13.307c0,.381.5509.353.5863,0c.6639-7.833,1.0453-15.694,1.5468-23.527s.9464-15.539,1.4126-23.308c.4661-7.77.9394-15.539,1.4126-23.309.226-3.879.4615-7.759.7063-11.639.226-3.864.5085-7.734.565-11.605.0311-2.129-.0585-4.259-.2683-6.378Z" fill="#263238"/><path d="M76.6791,131.175c-.0063-.01-.0151-.019-.0256-.024-.0105-.006-.0224-.009-.0344-.009s-.0238.003-.0344.009c-.0105.005-.0193.014-.0256.024-.1755.512-.2684,1.048-.2755,1.589-.0915.579-.226,1.151-.4026,1.71-.3242,1.124-.9323,2.145-1.7657,2.966-1.8506,1.731-4.3297,2.373-6.717,2.952-.0158.005-.0296.015-.0395.029-.0098.013-.015.029-.015.046c0,.016.0052.032.015.046.0099.013.0237.023.0395.028c1.4185.064,2.8355-.157,4.1672-.65c1.1879-.363,2.2839-.977,3.2137-1.801.8877-.845,1.4943-1.942,1.7375-3.143.1262-.628.1925-1.267.1978-1.907c0-.304,0-.608,0-.918.0506-.315.0386-.637-.0354-.947Z" fill="#263238"/><path d="M90.5226,91.5373c.6074,4.8028,10.0154,22.6587,20.0304,30.5687c3.673,2.903,23.146,4.619,28.02,4.238c5.699-.438,6.554-14.006,3.362-15.066-3.991-1.32-22.454-2.952-26.077-4.237-4.408-1.597-12.431-11.8451-20.0593-18.1877-3.92-3.2843-5.7423-1.01-5.2761,2.684Z" fill="#ad6359"/><path d="M138.572,126.351c1.802-.049,10.044-.996,12.283-1.773s8.476-3.475,8.08-5.248c-.395-1.772-2.316-1.13-2.316-1.13s2.465-1.561,1.878-3.305c-.586-1.745-3.531-.643-3.531-.643s2.415-1.787,1.702-3.489-3.461-.099-3.461-.099s2.289-1.533,1.116-2.691c-1.413-1.413-5.311,1.914-7.84,2.585-.579.155-11.88,2.267-11.88,2.267l3.969,13.526Z" fill="#ad6359"/><path d="M153.497,110.53c-2.875,2.415-4.549,2.98-8.207,3.482-.013.004-.024.012-.031.023-.008.011-.012.024-.012.037s.004.026.012.037c.007.011.018.019.031.023c3.623-.17,5.827-.572,8.327-3.468.106-.141-.007-.247-.12-.134Z" fill="#263238"/><path d="M155.213,114.054c-3.199,2.289-5.007,2.875-8.779,3.701-.05,0-.035.106,0,.099c3.786-.487,5.975-.939,8.878-3.609.12-.134.05-.297-.099-.191Z" fill="#263238"/><path d="M156.421,118.236c-3.256,1.956-5.213,2.726-8.998,3.044-.019,0-.037.007-.05.02-.014.014-.021.032-.021.05c0,.019.007.037.021.05.013.014.031.021.05.021c3.3.199,6.547-.907,9.04-3.079.191-.149.163-.226-.042-.106Z" fill="#263238"/><path d="M131.99,111.342c1.902-1.229,3.892-2.318,5.954-3.256c1.992-.706,10.397-.706,10.489,1.116.127,2.345-4.726,3.284-7.162,3.44c0,0,.303,5.417-3.038,6.851-3.34,1.434-6.243-8.151-6.243-8.151Z" fill="#ad6359"/><path d="M148.263,109.859c-1.412,2.218-4.64,2.211-6.992,2.535-.036.002-.07.013-.101.032-.03.018-.055.044-.073.075-.017.031-.027.066-.027.102-.001.036.007.071.024.102c0,2.282-.706,5.488-2.719,6.837-.064.043,0,.134.049.099c2.338-1.158,3.285-4.238,3.15-6.759c2.416-.29,5.651-.424,6.71-3.016.007-.014-.014-.021-.021-.007Z" fill="#263238"/><path d="M121.748,126.09c0,0-9.973-2.727-11.188-3.68-1.325-1.042-2.589-2.16-3.785-3.348-9.0763-8.921-14.5573-21.0832-16.0405-25.3211-1.568-4.5133-.1272-8.8359,4.0754-5.9259.3381.2394.6635.4964.9747.7699c4.9444,4.3085,18.1664,17.4101,19.7764,18.0811c1.611.671,9.373,1.688,9.373,1.688l-3.186,17.736Z" fill="#455a64"/><path d="M106.775,119.062c-9.0763-8.921-14.5573-21.0832-16.0405-25.3211-1.568-4.5133-.1272-8.8359,4.0754-5.9259l11.9651,31.247Z" fill="#263238"/><path d="M121.713,108.044c-.464,1.363-.849,2.752-1.151,4.16-.346,1.412-.706,2.825-.996,4.238-.629,2.77-1.101,5.574-1.413,8.398c0,.016.007.033.019.045.012.011.028.018.045.018s.033-.007.045-.018c.012-.012.018-.029.018-.045.763-2.769,1.328-5.601,1.907-8.413.29-1.412.551-2.782.841-4.167.29-1.384.636-2.825.791-4.195.003-.014,0-.029-.008-.041s-.02-.02-.034-.023-.029,0-.041.008-.02.021-.023.035Z" fill="#263238"/><path d="M100.199,101.32c.233,1.045.417,2.118.558,3.22-.004-.042-.004-.084,0-.127.056-.6.099-1.215.205-1.808c0,0,.056-.035.056,0c.037.611.013,1.223-.07,1.829-.036.29-.071.58-.114.862.05.487.092.975.121,1.455.056.918.233,4.838.211,5.509c0,.142-.162.156-.197,0-.135-.706-.488-4.725-.587-5.65-.184-1.765-.274-3.538-.268-5.312.014-.021.071-.014.085.022Z" fill="#263238"/><path d="M101.322,130.66c-1.4123,1.271-3.1357,3.128-13.0522,3.821-.6216,0-1.2573.049-1.8929,0-9.5493-.269-22.9479-7.77-23.746-8.363c0,0,10.2908-27.8426,23.9014-38.529c1.9423-1.5327,6.1095-.7769,8.7158.7981.9323.5651,4.0118,5.714,4.6333,10.4039.6216,4.69,2.8466,30.597,1.4406,31.869Z" fill="#455a64"/><path d="M93.5882,95.3654c-2.4015.1978-5.8412-3.9553-6.9713-7.063-.0776-.2119.5439-2.239,1.1796-4.7393.3814-1.5186.7699-3.2137,1.01-4.7888.0494-.3249,1.0595.4379,1.0595.4379l1.9635.8052l6.498,2.6698c-.8682,1.8836-1.5016,3.8667-1.8858,5.9048-.0209.2208-.0209.4431,0,.6639.0031.0352.0031.0707,0,.1059-.0212,1.2502-.5368,5.7917-2.8535,6.0036Z" fill="#ad6359"/><path d="M96.4134,89.2488c.0031.0353.0031.0707,0,.106-.3436-.0044-.6861-.0375-1.0242-.0989-6.6392-1.1654-6.166-9.7612-6.166-9.7612l2.6133.5156l6.498,2.6699c-.8682,1.8835-1.5015,3.8666-1.8858,5.9047-.0326.2197-.0445.442-.0353.6639Z" fill="#263238"/><path d="M88.1355,68.4269c-1.2643,3.4892.0848,13.8154,2.4862,16.2451c3.4821,3.5315,9.4503,4.1177,12.4803-.1342c2.945-4.1107.947-17.5447-1.759-19.7766-3.9902-3.2702-11.3429-1.4832-13.2075,3.6657Z" fill="#ad6359"/><path d="M97.5434,75.5747c0,0-.0494.0424-.0424.0707.106.7063.1201,1.5044-.4873,1.8152c0,0,0,.0423,0,.0353.7698-.2049.7487-1.2855.5297-1.9212Z" fill="#263238"/><path d="M96.8298,74.9249c-1.1301.0565-.9323,2.3097.113,2.2602s.8335-2.3096-.113-2.2602Z" fill="#263238"/><path d="M101.824,75.1086c0,0,.056,0,.056.0565.042.7063.205,1.4973.855,1.681-.798-.0071-.989-1.0665-.911-1.7375Z" fill="#263238"/><path d="M102.389,74.3246c1.116-.1766,1.412,2.0695.36,2.239s-1.3-2.0836-.36-2.239Z" fill="#263238"/><path d="M95.9542,73.2581c.2967-.106.558-.2543.8476-.3885.3151-.0919.5908-.2856.784-.5509.0469-.0951.0606-.2031.0389-.3068-.0218-.1038-.0778-.1972-.159-.2653-.1836-.106-.3919-.1619-.6039-.1619s-.4203.0559-.6039.1619c-.4053.153-.7382.4531-.9323.8405-.0354.0896-.0446.1874-.0266.282s.0626.1822.1285.2525.1503.1205.2436.1446c.0932.0242.1914.0213.2831-.0081Z" fill="#263238"/><path d="M103.095,73.5618c-.309-.0341-.616-.0859-.919-.1554-.33-.0106-.648-.1298-.904-.3391-.063-.0833-.097-.185-.097-.2895c0-.1046.034-.2062.097-.2896.146-.1544.33-.2662.534-.3235.205-.0572.42-.0577.625-.0014.432.0447.832.2486,1.123.5721.061.0797.097.1755.104.2756.008.1001-.014.2002-.063.2879-.049.0878-.122.1594-.211.2061s-.189.0664-.289.0568Z" fill="#263238"/><path d="M100.842,78.9085c.07.5083.115,1.0198.134,1.5327-.955.0039-1.9058.1369-2.8254.3955-.2119.0706-.2119-.113,0-.2543.7195-.4281,1.552-.6276,2.3874-.5721c0-.1342-.24-1.5962-.163-1.6033.38.0386.753.1265,1.109.2614-.219-2.1755-.784-4.3014-.974-6.4698c0-.0777.106-.106.127-.0353.682,2.2581,1.134,4.5796,1.349,6.9288.063.2755-.947-.1059-1.144-.1836Z" fill="#263238"/><path d="M88.8842,77.0368c1.7799-.1271,1.5539-4.478,1.5539-4.478s2.7122-.5227,3.9906-4.2378c0,0,3.5315,2.1189,6.4483,1.5821c4.577-.8899,4.379-6.8582,2.649-8.0519-2.458-1.6951-6.7665.8688-6.7665.8688s-6.5828-1.7446-8.4757,2.7192c-.8498.0697-1.6417.459-2.2158,1.0895s-.8878,1.4552-.8778,2.3079c-.1695,3.2137,2.3732,8.292,3.694,8.2002Z" fill="#263238"/><path d="M89.8095,73.0815c1.3169-.2437,2.515-.9198,3.4043-1.9212.4778-.5413.8179-1.19.9913-1.8909s.175-1.4334.0046-2.135c.0044-.0125.0125-.0233.0232-.0309.0108-.0077.0237-.0118.0369-.0118s.026.0041.0368.0118c.0108.0076.0189.0184.0232.0309.2114.7346.2577,1.5069.1356,2.2616-.1222.7546-.4096,1.4729-.8419,2.1033-.4318.5976-1.0121,1.0723-1.6834,1.377-.6714.3047-1.4107.429-2.1448.3606-.0424-.0353-.0635-.1413.0142-.1554Z" fill="#263238"/><path d="M96.5826,62.9177c.5672-.9365,1.456-1.6345,2.5003-1.9635c1.2701-.3604,2.6281-.2397,3.8141.339.472.2474.87.6145,1.155,1.0645.286.45.447.9671.469,1.4994.015,1.235-.397,2.4372-1.165,3.4044c0,0-.063,0-.042,0c.613-.9131.926-1.9943.897-3.0936-.019-.5231-.186-1.0301-.481-1.4625s-.706-.7726-1.186-.9813c-1.893-.8123-4.6477-.6428-5.8625,1.2854-.0353.0424-.1413-.0282-.0989-.0918Z" fill="#263238"/><path d="M89.9294,76.8743c0,0-2.2108-3.3832-3.7434-2.5992-1.5327.784.0706,5.6505,1.8152,6.3568.2171.1061.4534.1672.6948.1796.2413.0125.4827-.0239.7096-.107s.4347-.2112.6109-.3766.3171-.3647.4144-.586l-.5015-2.8676Z" fill="#ad6359"/><path d="M86.645,75.6524c0,0,0,.0353,0,.0495.5584.3002,1.0475.7144,1.4356,1.2157s.6667,1.0785.8175,1.6942c-.0676-.1268-.1621-.2373-.2768-.3239-.1148-.0866-.247-.1472-.3875-.1774-.1405-.0303-.286-.0295-.4262.0022s-.2718.0936-.3856.1813c0,0,0,.0706,0,.0636.2193-.0623.4527-.055.6677.0209.2151.0759.4013.2166.533.4029.2192.3135.4039.6498.5509,1.0029.0565.113.2543.0565.2189-.0706.0989-1.6033-1.0594-3.8494-2.7475-4.0613Z" fill="#263238"/><path d="M23.3035,294.558h-23.074984v-4.238h23.074984c18.2792,0,23.4918-15.645,24.643-28.768.9041-10.277,1.455-22.792,2.0413-36.021c2.1966-49.569,4.4709-100.826,24.417-100.826h18.2792v4.238h-18.2934c-15.8918,0-18.3639,55.933-20.1791,96.764-.5933,13.3-1.1513,25.858-2.0554,36.234-1.8364,21.026-12.0849,32.617-28.8526,32.617Z" fill="#fff"/><path d="M92.6839,124.684v4.238h-14.5782l-.904-4.238h15.4822Z" opacity="0.2"/><path d="M156.096,154.18h7.783v-54.3719h-7.783v54.3719Z" fill="#fff"/><path d="M156.096,102.386h-29.58v48.65h29.58v-48.65Z" fill="#fff"/><path d="M156.096,102.386v48.65h-7.345l-3.299-48.65h10.644Z" opacity="0.2"/><path d="M81.7079,131.133h21.9451v-8.667h-21.9451v8.667Z" fill="#fff"/><path d="M103.653,122.473h-21.945v8.667h21.945v-8.667Z" fill="#fff"/><path d="M95.9473,131.133l.7204-8.66h6.9853v8.66h-7.7057Z" opacity="0.2"/><path d="M126.516,148.155h-18.519c-1.152,0-2.257-.458-3.072-1.273-.814-.814-1.272-1.919-1.272-3.071v-33.648c0-1.153.458-2.257,1.272-3.072.815-.815,1.92-1.272,3.072-1.272h18.519v42.336Z" fill="#fff"/><path d="M116.783,148.155l3.299-42.329h6.434v42.329h-9.733Z" opacity="0.2"/><g opacity="0.2"><path d="M118.485,139.594h1.462v-25.215h-1.462v25.215Z"/><path d="M114.353,139.594h1.462v-25.215h-1.462v25.215Z"/><path d="M110.214,139.594h1.462v-25.215h-1.462v25.215Z"/></g><path d="M80.3588,97.3784c-.7063,10.1986-1.5115,30.9716,2.9947,37.0666c5.9118,7.996,22.6015,12.848,27.5455,14.303c2.119.629,7.198-13.42,5.94-15.44-1.257-2.02-18.4836-6.357-19.8397-7.543-1.3561-1.187-5.6504-17.743-7.6916-26.1759-2.6416-10.6369-8.6593-6.2367-8.9489-2.2107Z" fill="#ad6359"/><path d="M129.567,138.704c2.72.65,6.844-.748,6.979,1.335.12,1.851-2.826,2.536-2.826,2.536s3.574.304,3.136,2.331-3.828,2.119-3.828,2.119s3.277.445,2.691,2.436c-.586,1.992-3.729,2.268-3.729,2.268s.826.614-.219,1.836c-1.49,1.752-6.463,1.547-9.027.826-2.564-.72-11.442-5.269-12.791-5.996l4.499-16.528c0,0,5.163-.819,7.833-.918s11.548,2.02,11.174,4.238-6.625.636-8.243.579c-1.617-.056-1.9.304-1.193.897.459.417,4.336,1.752,5.544,2.041Z" fill="#ad6359"/><path d="M133.558,142.54c-4.174.706-6.124.24-9.952-1.413-.077-.035-.141.071-.063.113c3.602,1.942,5.968,2.825,10.057,1.49.205-.056.163-.219-.042-.19Z" fill="#263238"/><path d="M133.191,146.954c-4.4.318-6.512-.127-10.651-1.554-.057,0-.099.078-.043.106c3.949,1.731,6.322,2.571,10.68,1.674.197-.035.219-.24.014-.226Z" fill="#263238"/><path d="M131.933,151.7c-4.287,0-6.625-.395-10.467-2.288-.018-.009-.038-.011-.057-.005s-.035.019-.045.036-.013.037-.008.056c.004.019.016.036.032.047c3.729,2.317,6.646,2.825,10.531,2.289.261-.043.283-.135.014-.135Z" fill="#263238"/><path d="M97.8683,145.435c0,0-13.4693-6.766-15.5388-11.95-2.5427-6.47-3.5809-25.335-2.5921-35.0118.9888-9.6764,7.727-8.4757,9.8883.0777c2.1189,8.3481,6.9006,25.0241,7.395,25.8081.6286,1.01,8.3133,2.91,8.3133,2.91" fill="#455a64"/><path d="M96.5193,122.198c-.233-.798-.6427-2.599-.8758-3.376-.4732-1.554-.9464-3.115-1.4126-4.669s-.9676-3.115-1.4832-4.661c-.0919-.262-.1766-.53-.2614-.792.0424-.169-.1483-2.217-.1342-2.719c0-.077-.1271-.085-.12,0c.0188.502.0022,1.005-.0495,1.505c0,.091,0,.19,0,.282-.3249-1.017-.6498-2.027-.9818-3.016c0-.07-.1412-.042-.12,0c.6357,2.119.9464,3.454,1.4126,5.17.4662,1.717.9464,3.313,1.4126,4.945.4662,1.631,1.01,3.291,1.5256,4.944.2901.979.6295,1.943,1.0171,2.888.2966.636.3108.339.0706-.501Z" fill="#263238"/><path d="M81.3266,127.898c-.2754-1.745-.5509-3.532-.7628-5.255-.4308-3.532-.7063-7.007-.8617-10.538-.0918-2.02-.2401-4.026-.3531-6.039c0-.021-.0082-.04-.0228-.055-.0145-.015-.0343-.023-.0549-.023s-.0404.008-.055.023c-.0145.015-.0227.034-.0227.055c0,1.794-.0636,3.581,0,5.375c0,.261,0,.523,0,.784l-.0848-.367c-.2613-1.024-.6286-2.027-.8546-3.066-.0062-.012-.0164-.021-.0289-.026s-.0264-.006-.0392-.001c-.0128.004-.0236.013-.0306.024-.0069.012-.0095.025-.0072.039.2542,1.031.3884,2.119.6286,3.129.1271.515.2542,1.031.3955,1.546l.0706.219c.0424,1.032.0919,2.063.1625,3.094.1915,3.539.5996,7.063,1.2219,10.552.4267,2.282,1.0434,4.524,1.8435,6.703.004.011.0112.02.0207.027.0094.006.0207.01.0322.01.0116,0,.0228-.004.0323-.01.0095-.007.0167-.016.0207-.027-.4167-1.745-.9676-4.429-1.2502-6.173Z" fill="#263238"/><path d="M102.834,127.262c-.738,1.268-1.398,2.58-1.978,3.927-.622,1.328-1.2503,2.656-1.8365,3.998-1.1887,2.643-2.2285,5.35-3.1148,8.108-.0017.016.0018.031.0099.045.008.013.0202.023.0347.029.0145.005.0304.006.0454.002.0149-.005.0279-.014.0371-.026c1.3138-2.614,2.4368-5.333,3.581-8.024.5652-1.328,1.1092-2.67,1.6672-3.998.558-1.327,1.193-2.662,1.624-4.033.014-.042-.049-.063-.07-.028Z" fill="#263238"/><path d="M176.918,90.7109c-.094,0-.183-.0372-.25-.1035-.066-.0662-.103-.156-.103-.2497v-9.9377c0-.0937.037-.1835.103-.2497.067-.0663.156-.1035.25-.1035s.184.0372.25.1035.103.156.103.2497v9.9377c0,.0937-.037.1835-.103.2497-.066.0663-.156.1035-.25.1035Z" fill="#263238"/><path d="M158.936,95.4714c-.063.0001-.125-.0161-.179-.047-.055-.031-.1-.0757-.132-.1296l-4.944-8.6099c-.029-.0399-.05-.0855-.06-.1339-.01-.0483-.01-.0982,0-.1466.01-.0483.03-.094.059-.1341s.066-.0735.109-.0984c.043-.0248.09-.0404.139-.0458.049-.0053.099-.0003.146.0148s.091.0398.127.0727c.037.0329.067.0731.087.1182l4.944,8.6098c.024.0397.04.0838.047.1297.006.0459.003.0926-.009.1374-.011.0448-.032.0867-.061.1234-.028.0366-.063.0672-.104.0898-.051.0315-.109.0486-.169.0495Z" fill="#263238"/><path d="M153.765,166.328c-.062,0-.123-.017-.176-.049-.04-.026-.074-.059-.1-.098-.026-.04-.044-.084-.053-.13-.008-.046-.007-.094.003-.14.011-.046.03-.089.058-.127l4.944-8.603c.023-.04.054-.075.091-.104.037-.028.079-.049.124-.061s.092-.016.138-.01.091.021.131.045c.04.023.076.054.104.091.029.036.049.079.062.123.012.045.015.092.009.138-.006.047-.021.091-.044.131l-4.944,8.603c-.033.063-.083.115-.144.149-.062.034-.132.048-.203.042Z" fill="#263238"/><path d="M176.692,172.529c-.094,0-.183-.037-.25-.103-.066-.066-.103-.156-.103-.25v-9.923c0-.094.037-.184.103-.25.067-.066.156-.104.25-.104.093.002.182.04.248.106s.103.154.105.248v9.937c-.003.092-.042.178-.108.241s-.154.098-.245.098Z" fill="#263238"/><path d="M199.647,166.441c-.062,0-.122-.017-.175-.048-.054-.031-.098-.075-.129-.129l-4.944-8.602c-.023-.041-.038-.085-.044-.131-.006-.047-.003-.093.009-.138s.033-.087.062-.124c.028-.037.063-.068.104-.091.04-.023.085-.038.131-.044s.093-.003.138.009.087.033.124.061c.037.029.067.064.091.104l4.944,8.603c.024.04.039.084.046.13.006.046.004.093-.008.137-.012.045-.033.087-.061.124-.028.036-.064.067-.104.09-.055.034-.119.051-.184.049Z" fill="#263238"/><path d="M194.872,95.5844c-.062.0004-.123-.0167-.176-.0495-.041-.0227-.076-.0532-.104-.0898-.029-.0367-.05-.0786-.061-.1234-.012-.0448-.015-.0915-.008-.1374.006-.0459.022-.09.046-.1297l4.944-8.6098c.051-.0707.127-.1199.213-.1379.085-.018.174-.0037.25.0403.075.0439.132.1143.159.1976.026.0833.021.1735-.015.2531l-4.944,8.6099c-.032.0525-.076.0961-.129.127-.053.0308-.113.0479-.175.0496Z" fill="#263238"/></svg>