<svg width="16" height="16" viewBox="0 0 16 16" fill="none" xmlns="http://www.w3.org/2000/svg">
<path d="M8.01362 1.93994C6.95276 1.93994 5.93534 2.36137 5.1852 3.11151C4.43505 3.86166 4.01362 4.87908 4.01362 5.93994V7.86661C3.99229 8.34721 3.86237 8.81673 3.63362 9.23994L2.86696 10.5133C2.75246 10.6816 2.67981 10.8749 2.65502 11.077C2.63024 11.279 2.65404 11.4841 2.72446 11.6752C2.79487 11.8662 2.90986 12.0377 3.05988 12.1753C3.20989 12.313 3.39059 12.4128 3.58696 12.4666C6.45771 13.4266 9.56287 13.4266 12.4336 12.4666C12.6232 12.4034 12.7962 12.2983 12.9398 12.1592C13.0833 12.0201 13.1937 11.8505 13.2628 11.6629C13.332 11.4753 13.3581 11.2746 13.3392 11.0756C13.3202 10.8767 13.2568 10.6845 13.1536 10.5133L12.387 9.23994C12.1633 8.81508 12.0358 8.34623 12.0136 7.86661V5.93994C12.0105 4.88005 11.588 3.86447 10.8386 3.11501C10.0891 2.36555 9.07352 1.94311 8.01362 1.93994V1.93994Z" stroke="#88A4C2" stroke-width="1.5" stroke-linecap="round"/>
<path d="M9.24694 2.13337C9.03756 2.07169 8.82353 2.0271 8.60694 2.00004C7.99535 1.91887 7.3736 1.96425 6.78027 2.13337C6.87771 1.88568 7.04748 1.67306 7.26745 1.52321C7.48743 1.37336 7.74744 1.29321 8.01361 1.29321C8.27978 1.29321 8.53978 1.37336 8.75976 1.52321C8.97974 1.67306 9.1495 1.88568 9.24694 2.13337V2.13337Z" stroke="#88A4C2" stroke-width="1.5" stroke-linecap="round" stroke-linejoin="round"/>
<path d="M10.0137 13C10.0121 13.5299 9.80087 14.0377 9.42614 14.4125C9.05141 14.7872 8.54362 14.9984 8.01367 15C7.48358 14.9987 6.97551 14.7878 6.60034 14.4133C6.22584 14.0382 6.01494 13.5301 6.01367 13" stroke="#88A4C2" stroke-width="1.5"/>
</svg>
