<svg width="16" height="16" viewBox="0 0 16 16" fill="none" xmlns="http://www.w3.org/2000/svg">
<path d="M5.33301 8.13348H9.99967" stroke="#F67538" stroke-linecap="round" stroke-linejoin="round"/>
<path d="M5.33301 10.8001H8.25301" stroke="#F67538" stroke-linecap="round" stroke-linejoin="round"/>
<path d="M6.66634 3.99998H9.33301C10.6663 3.99998 10.6663 3.33331 10.6663 2.66665C10.6663 1.33331 9.99967 1.33331 9.33301 1.33331H6.66634C5.99967 1.33331 5.33301 1.33331 5.33301 2.66665C5.33301 3.99998 5.99967 3.99998 6.66634 3.99998Z" stroke="#F67538" stroke-linecap="round" stroke-linejoin="round"/>
<path d="M10.6667 2.67999C12.8867 2.79999 14 3.61999 14 6.66666V10.6667C14 13.3333 13.3333 14.6667 10 14.6667H6C2.66667 14.6667 2 13.3333 2 10.6667V6.66666C2 3.62666 3.11333 2.79999 5.33333 2.67999" stroke="#F67538" stroke-linecap="round" stroke-linejoin="round"/>
</svg>
