<svg width="16" height="16" viewBox="0 0 16 16" fill="none" xmlns="http://www.w3.org/2000/svg">
<path d="M13.3337 5.50004V12C13.3337 14 12.1403 14.6667 10.667 14.6667H5.33366C3.86033 14.6667 2.66699 14 2.66699 12V5.50004C2.66699 3.33337 3.86033 2.83337 5.33366 2.83337C5.33336 3.03036 5.37209 3.22546 5.44761 3.4074C5.52313 3.58933 5.63395 3.7545 5.77366 3.89337C5.91253 4.03309 6.0777 4.1439 6.25964 4.21943C6.44157 4.29495 6.63667 4.33367 6.83366 4.33337H9.16699C9.56465 4.33284 9.94588 4.17464 10.2271 3.89345C10.5083 3.61226 10.6665 3.23104 10.667 2.83337C12.1403 2.83337 13.3337 3.33337 13.3337 5.50004Z" stroke="#88A4C2" stroke-width="1.5" stroke-linecap="round" stroke-linejoin="round"/>
<path d="M10.6663 2.83337C10.6658 3.23104 10.5076 3.61226 10.2264 3.89345C9.94523 4.17464 9.564 4.33284 9.16634 4.33337H6.83301C6.43518 4.33337 6.05365 4.17534 5.77235 3.89403C5.49104 3.61273 5.33301 3.2312 5.33301 2.83337C5.33301 2.43555 5.49104 2.05402 5.77235 1.77271C6.05365 1.49141 6.43518 1.33337 6.83301 1.33337L9.16634 1.33337C9.564 1.3339 9.94523 1.49211 10.2264 1.7733C10.5076 2.05449 10.6658 2.43571 10.6663 2.83337V2.83337Z" stroke="#88A4C2" stroke-width="1.5" stroke-linecap="round" stroke-linejoin="round"/>
<path d="M5.33301 8.66663H7.99967" stroke="#88A4C2" stroke-width="1.5" stroke-linecap="round" stroke-linejoin="round"/>
<path d="M5.33301 11.3334H10.6663" stroke="#88A4C2" stroke-width="1.5" stroke-linecap="round" stroke-linejoin="round"/>
</svg>
