<svg width="16" height="16" viewBox="0 0 16 16" fill="none" xmlns="http://www.w3.org/2000/svg">
<path d="M13.9997 7.66671C13.9997 8.91932 13.6282 10.1438 12.9323 11.1853C12.2364 12.2268 11.2473 13.0386 10.09 13.5179C8.93274 13.9973 7.65932 14.1227 6.43077 13.8783C5.20223 13.634 4.07373 13.0308 3.188 12.1451C2.30227 11.2593 1.69908 10.1308 1.4547 8.90228C1.21033 7.67373 1.33575 6.40031 1.81511 5.24305C2.29446 4.08578 3.10622 3.09665 4.14773 2.40073C5.18924 1.70482 6.41373 1.33337 7.66634 1.33337C9.34605 1.33337 10.957 2.00063 12.1447 3.18836C13.3324 4.37609 13.9997 5.987 13.9997 7.66671V7.66671Z" stroke="#88A4C2" stroke-width="1.5" stroke-linecap="round" stroke-linejoin="round"/>
<path d="M14.6663 14.6667L13.333 13.3334" stroke="#88A4C2" stroke-width="1.5" stroke-linecap="round" stroke-linejoin="round"/>
</svg>
