<svg width="12" height="12" viewBox="0 0 12 12" fill="none" xmlns="http://www.w3.org/2000/svg">
<path d="M6.86792 1.75594L7.74842 3.51644C7.82406 3.64752 7.92594 3.76158 8.04768 3.85148C8.16941 3.94139 8.30839 4.0052 8.45592 4.03894L10.0479 4.30094C11.0654 4.46944 11.3029 5.20594 10.5724 5.94294L9.32742 7.18894C9.21915 7.31065 9.13986 7.45531 9.09552 7.61205C9.05118 7.7688 9.04294 7.93355 9.07142 8.09394L9.42742 9.62994C9.70842 10.8409 9.05892 11.3154 7.99142 10.6799L6.49942 9.78894C6.34731 9.70897 6.17803 9.66719 6.00617 9.66719C5.83432 9.66719 5.66504 9.70897 5.51292 9.78894L4.02092 10.6774C2.95592 11.3079 2.30592 10.8389 2.58492 9.62844L2.94092 8.09244C2.96473 7.93013 2.95305 7.76459 2.9067 7.60723C2.86035 7.44987 2.78042 7.30443 2.67242 7.18094L1.42992 5.93894C0.699421 5.20844 0.936921 4.47194 1.95592 4.29694L3.54792 4.03494C3.6955 4.0018 3.83444 3.93797 3.95573 3.8476C4.07702 3.75724 4.17794 3.64236 4.25192 3.51044L5.13242 1.74994C5.61292 0.800942 6.38692 0.800942 6.86792 1.75594Z" fill="#F67538"/>
</svg>
