<svg width="16" height="16" viewBox="0 0 16 16" fill="none" xmlns="http://www.w3.org/2000/svg">
<path d="M14.0595 9.22829V6.52136C14.0525 5.05059 13.4163 3.64265 12.2908 2.60722C11.1654 1.57179 9.6429 0.993658 8.05826 1.00005H8.0414C7.24658 1.00152 6.45985 1.14832 5.72613 1.43198C4.99242 1.71565 4.3261 2.13065 3.76519 2.65332C3.20429 3.176 2.75979 3.79605 2.45709 4.47816C2.15439 5.16027 1.9994 5.89109 2.00099 6.62879V9.22829" stroke="#F67538" stroke-linecap="round" stroke-linejoin="round"/>
<path d="M4.04965 7.12714H3.5951C2.45574 7.12714 2 7.55013 2 8.60761V9.8771C2 10.9346 2.45574 11.3576 3.5951 11.3576H4.05146C5.19081 11.3576 5.64655 10.9346 5.64655 9.8771V8.60761C5.64655 7.55013 5.19082 7.12714 4.04965 7.12714Z" stroke="#F67538" stroke-linecap="round" stroke-linejoin="round"/>
<path d="M12.4891 7.12714H12.0346C10.8952 7.12714 10.4395 7.55013 10.4395 8.60761V9.8771C10.4395 10.9346 10.8952 11.3576 12.0346 11.3576H12.4909C13.6303 11.3576 14.086 10.9346 14.086 9.8771V8.60761C14.086 7.55013 13.6303 7.12714 12.4891 7.12714Z" stroke="#F67538" stroke-linecap="round" stroke-linejoin="round"/>
<path d="M2.00098 9.22815V12.2282C2.00098 12.4499 2.04802 12.6694 2.13943 12.8741C2.23084 13.0789 2.36482 13.265 2.53372 13.4217C2.70261 13.5784 2.90309 13.7027 3.12375 13.7874C3.34441 13.8722 3.5809 13.9158 3.81971 13.9157H8.35123" stroke="#F67538" stroke-linecap="round" stroke-linejoin="round"/>
</svg>
