<svg width="18" height="16" viewBox="0 0 18 16" fill="none" xmlns="http://www.w3.org/2000/svg">
<path d="M16.4577 0.00156491C16.2377 0.0169444 16.0217 0.0685482 15.8184 0.154292C15.6243 0.230654 14.697 0.623376 13.2876 1.21355C11.8781 1.80372 10.052 2.57499 8.2389 3.33862C4.61713 4.86587 1.05863 6.36585 1.05863 6.36585L1.10008 6.3484C0.921582 6.41189 0.752149 6.49844 0.596086 6.60585C0.437438 6.70613 0.301452 6.8384 0.196818 6.99421C0.0461825 7.21875 -0.0213379 7.48882 0.00591135 7.75783C0.03477 7.95099 0.104109 8.13587 0.209386 8.30037C0.314663 8.46486 0.453503 8.60526 0.616813 8.71237C0.757183 8.81296 0.910117 8.89475 1.07172 8.95564H1.07608L4.4164 10.0814C4.56586 10.5603 5.43421 13.4152 5.64257 14.0708C5.72017 14.3688 5.85342 14.6493 6.03529 14.8977C6.10548 14.9942 6.1941 15.0758 6.29602 15.1377L6.42147 15.1967L6.46183 15.2087L6.43238 15.1999L6.45529 15.2087L6.53492 15.2261C6.69653 15.27 6.86582 15.2779 7.03079 15.249C7.19575 15.2202 7.35235 15.1554 7.48946 15.0592L7.51346 15.0417L9.48689 13.2516L12.7923 15.7868L12.8687 15.8185C13.071 15.9227 13.2929 15.9835 13.5202 15.9971C13.7474 16.0107 13.9749 15.9767 14.1883 15.8973C14.4016 15.818 14.5961 15.695 14.7592 15.5362C14.9223 15.3774 15.0505 15.1863 15.1355 14.9752L15.1595 14.913L17.7155 1.82991C17.7953 1.529 17.799 1.21299 17.7264 0.910281C17.6451 0.612726 17.4541 0.357018 17.1919 0.194654C16.9729 0.056081 16.7165 -0.0113653 16.4577 0.00156491ZM16.3879 1.40446C16.3898 1.44533 16.385 1.48624 16.3737 1.52555V1.53209L13.8505 14.4778L13.7708 14.5748C13.7185 14.6163 13.6737 14.6447 13.4512 14.5574L9.41489 11.4603L6.96474 13.6814L7.47855 10.4087C7.47855 10.4087 13.8057 4.50588 14.0828 4.25279C14.3599 3.9997 14.2639 3.94734 14.2639 3.94734C14.2814 3.63861 13.8537 3.85679 13.8537 3.85679L5.52475 9.01564V9.00146L1.53098 7.65856H1.52007L1.5408 7.65202L1.56153 7.64111L1.58226 7.63456L8.77017 4.60733L13.8156 2.48226C15.2217 1.89209 16.2603 1.45791 16.3192 1.43391L16.3879 1.40446Z" fill="#2EAAE0"/>
</svg>
