<svg width="66" height="66" viewBox="0 0 66 66" fill="none" xmlns="http://www.w3.org/2000/svg">
<g filter="url(#filter0_d_906_7328)">
<rect x="6" y="1" width="54" height="54" rx="10" fill="#2EAAE0"/>
</g>
<path d="M46.9444 13.0032C46.4906 13.0349 46.0451 13.1414 45.6259 13.3182C45.2254 13.4757 43.3129 14.2857 40.4059 15.503C37.4989 16.7202 33.7324 18.311 29.9929 19.886C22.5229 23.036 15.1834 26.1297 15.1834 26.1297L15.2689 26.0937C14.9008 26.2247 14.5513 26.4032 14.2294 26.6247C13.9022 26.8316 13.6218 27.1044 13.4059 27.4257C13.0953 27.8888 12.956 28.4459 13.0122 29.0007C13.0717 29.3991 13.2147 29.7804 13.4319 30.1197C13.649 30.459 13.9354 30.7486 14.2722 30.9695C14.5617 31.1769 14.8771 31.3456 15.2104 31.4712H15.2194L22.1089 33.7932C22.4172 34.781 24.2082 40.6692 24.6379 42.0215C24.798 42.636 25.0728 43.2146 25.4479 43.727C25.5927 43.9259 25.7755 44.0942 25.9857 44.222L26.2444 44.3435L26.3277 44.3682L26.2669 44.3502L26.3142 44.3682L26.4784 44.4042C26.8118 44.4948 27.1609 44.511 27.5012 44.4515C27.8414 44.392 28.1644 44.2583 28.4472 44.06L28.4967 44.024L32.5669 40.3317L39.3844 45.5607L39.5419 45.626C39.9593 45.8409 40.417 45.9664 40.8857 45.9944C41.3543 46.0224 41.8237 45.9523 42.2637 45.7886C42.7037 45.6249 43.1048 45.3712 43.4412 45.0438C43.7776 44.7163 44.042 44.3222 44.2174 43.8867L44.2669 43.7585L49.5387 16.7742C49.7032 16.1536 49.711 15.5018 49.5612 14.8775C49.3936 14.2638 48.9996 13.7364 48.4587 13.4015C48.0071 13.1157 47.4782 12.9766 46.9444 13.0032ZM46.8004 15.8967C46.8045 15.981 46.7946 16.0654 46.7712 16.1465V16.16L41.5669 42.8607L41.4027 43.061C41.2947 43.1465 41.2024 43.205 40.7434 43.025L32.4184 36.6372L27.3649 41.2182L28.4247 34.4682C28.4247 34.4682 41.4747 22.2935 42.0462 21.7715C42.6177 21.2495 42.4197 21.1415 42.4197 21.1415C42.4557 20.5047 41.5737 20.9547 41.5737 20.9547L24.3949 31.595V31.5657L16.1577 28.796H16.1352L16.1779 28.7825L16.2207 28.76L16.2634 28.7465L31.0887 22.5027L41.4949 18.1197C44.3952 16.9025 46.5372 16.007 46.6587 15.9575L46.8004 15.8967Z" fill="white"/>
<defs>
<filter id="filter0_d_906_7328" x="0" y="0" width="66" height="66" filterUnits="userSpaceOnUse" color-interpolation-filters="sRGB">
<feFlood flood-opacity="0" result="BackgroundImageFix"/>
<feColorMatrix in="SourceAlpha" type="matrix" values="0 0 0 0 0 0 0 0 0 0 0 0 0 0 0 0 0 0 127 0" result="hardAlpha"/>
<feOffset dy="5"/>
<feGaussianBlur stdDeviation="3"/>
<feComposite in2="hardAlpha" operator="out"/>
<feColorMatrix type="matrix" values="0 0 0 0 0.531844 0 0 0 0 0.64449 0 0 0 0 0.7625 0 0 0 0.3 0"/>
<feBlend mode="normal" in2="BackgroundImageFix" result="effect1_dropShadow_906_7328"/>
<feBlend mode="normal" in="SourceGraphic" in2="effect1_dropShadow_906_7328" result="shape"/>
</filter>
</defs>
</svg>
