<svg width="16" height="16" viewBox="0 0 16 16" fill="none" xmlns="http://www.w3.org/2000/svg">
<path d="M5.66634 12.6667H5.33301C2.66634 12.6667 1.33301 12 1.33301 8.66671V5.33337C1.33301 2.66671 2.66634 1.33337 5.33301 1.33337H10.6663C13.333 1.33337 14.6663 2.66671 14.6663 5.33337V8.66671C14.6663 11.3334 13.333 12.6667 10.6663 12.6667H10.333C10.2296 12.6674 10.1278 12.6918 10.0353 12.7381C9.94289 12.7843 9.86227 12.8511 9.79967 12.9334L8.79967 14.2667C8.71419 14.4015 8.59603 14.5125 8.45617 14.5894C8.31631 14.6663 8.15929 14.7067 7.99967 14.7067C7.84006 14.7067 7.68304 14.6663 7.54318 14.5894C7.40332 14.5125 7.28516 14.4015 7.19967 14.2667L6.19967 12.9334C6.1336 12.855 6.05222 12.7909 5.96051 12.745C5.86881 12.6992 5.76871 12.6725 5.66634 12.6667V12.6667Z" stroke="#F67538" stroke-width="1.5" stroke-linecap="round" stroke-linejoin="round"/>
<path d="M4.66699 5.33337H11.3337" stroke="#F67538" stroke-width="1.5" stroke-linecap="round" stroke-linejoin="round"/>
<path d="M4.66699 8.66663H8.66699" stroke="#F67538" stroke-width="1.5" stroke-linecap="round" stroke-linejoin="round"/>
</svg>
