<svg width="12" height="12" viewBox="0 0 12 12" fill="none" xmlns="http://www.w3.org/2000/svg">
<path d="M3.365 9.85C3.45269 9.74716 3.56291 9.66593 3.6871 9.61262C3.81128 9.5593 3.94609 9.53534 4.08104 9.5426C4.216 9.54985 4.34746 9.58813 4.46521 9.65445C4.58297 9.72077 4.68384 9.81335 4.76 9.925L5.265 10.6C5.34355 10.7231 5.45183 10.8243 5.57985 10.8945C5.70788 10.9647 5.85151 11.0014 5.9975 11.0014C6.14349 11.0014 6.28712 10.9647 6.41515 10.8945C6.54317 10.8243 6.65145 10.7231 6.73 10.6L7.235 9.925C7.31116 9.81335 7.41203 9.72077 7.52979 9.65445C7.64754 9.58813 7.779 9.54985 7.91396 9.5426C8.04891 9.53534 8.18372 9.5593 8.3079 9.61262C8.43209 9.66593 8.54231 9.74716 8.63 9.85C9.52 10.8 10.245 10.485 10.245 9.155V3.52C10.25 1.505 9.78 1 7.89 1H4.11C2.22 1 1.75 1.505 1.75 3.52V9.15C1.75 10.485 2.48 10.795 3.365 9.85Z" stroke="#F67538" stroke-linecap="round" stroke-linejoin="round"/>
<path d="M4.04883 5.5H4.05133" stroke="#F67538" stroke-linecap="round" stroke-linejoin="round"/>
<path d="M5.44922 5.5H8.19922" stroke="#F67538" stroke-linecap="round" stroke-linejoin="round"/>
<path d="M4.04883 3.5H4.05133" stroke="#F67538" stroke-linecap="round" stroke-linejoin="round"/>
<path d="M5.44922 3.5H8.19922" stroke="#F67538" stroke-linecap="round" stroke-linejoin="round"/>
</svg>
