<svg width="16" height="16" viewBox="0 0 16 16" fill="none" xmlns="http://www.w3.org/2000/svg">
<path d="M14 3.98665C11.78 3.76665 9.54667 3.65332 7.32 3.65332C5.99748 3.65345 4.6758 3.7202 3.36 3.85332L2 3.98665" stroke="#F67538" stroke-linecap="round" stroke-linejoin="round"/>
<path d="M5.66602 3.31334L5.81268 2.44C5.91935 1.80667 5.99935 1.33334 7.12602 1.33334H8.87268C9.99935 1.33334 10.086 1.83334 10.186 2.44667L10.3327 3.31334" stroke="#F67538" stroke-linecap="round" stroke-linejoin="round"/>
<path d="M12.5669 6.0931L12.1336 12.8064C12.0603 13.8531 12.0003 14.6664 10.1403 14.6664H5.86026C4.00026 14.6664 3.94026 13.8531 3.86693 12.8064L3.43359 6.0931" stroke="#F67538" stroke-linecap="round" stroke-linejoin="round"/>
<path d="M6.88672 11H9.10672" stroke="#F67538" stroke-linecap="round" stroke-linejoin="round"/>
<path d="M6.33398 8.33334H9.66732" stroke="#F67538" stroke-linecap="round" stroke-linejoin="round"/>
</svg>
