<svg width="16" height="16" viewBox="0 0 16 16" fill="none" xmlns="http://www.w3.org/2000/svg">
<path d="M8 5.16675V8.66675" stroke="#88A4C2" stroke-width="1.5" stroke-linecap="round" stroke-linejoin="round"/>
<path d="M14.0538 5.71993V10.2799C14.0527 10.6481 13.9556 11.0097 13.7721 11.3289C13.5885 11.6481 13.3248 11.9139 13.0071 12.0999L9.0471 14.3866C8.72757 14.5701 8.36555 14.6666 7.9971 14.6666C7.62865 14.6666 7.26662 14.5701 6.9471 14.3866L2.9871 12.0999C2.66828 11.9151 2.40372 11.6496 2.22 11.3301C2.03628 11.0107 1.93986 10.6485 1.94043 10.2799V5.71993C1.94146 5.35172 2.03856 4.99016 2.22212 4.67096C2.40569 4.35177 2.66937 4.08601 2.9871 3.89993L6.9471 1.61326C7.26662 1.4298 7.62865 1.33325 7.9971 1.33325C8.36555 1.33325 8.72757 1.4298 9.0471 1.61326L13.0071 3.89993C13.3254 4.0854 13.5895 4.35103 13.7731 4.67036C13.9568 4.98969 14.0535 5.35156 14.0538 5.71993V5.71993Z" stroke="#88A4C2" stroke-width="1.5" stroke-linecap="round" stroke-linejoin="round"/>
<path d="M8 10.8V10.8667" stroke="#88A4C2" stroke-width="2" stroke-linecap="round" stroke-linejoin="round"/>
</svg>
