<svg width="66" height="66" viewBox="0 0 66 66" fill="none" xmlns="http://www.w3.org/2000/svg">
<g filter="url(#filter0_d_906_7316)">
<rect x="6" y="1" width="54" height="54" rx="10" fill="#07CE00"/>
</g>
<path d="M51.6702 28.1699C51.4813 32.2264 49.9594 36.1074 47.3404 39.2109C44.7215 42.3144 41.1517 44.467 37.1847 45.3352C35.5596 45.6859 33.8941 45.8116 32.2348 45.7087C29.8225 45.5671 27.4617 44.95 25.2887 43.893C25.2083 43.8592 25.1196 43.852 25.0349 43.8726C22.0454 44.5776 19.0564 45.2858 16.0684 45.9968C15.8523 46.0694 15.6163 46.0539 15.4114 45.954C15.2806 45.8868 15.1747 45.7798 15.1088 45.6483C15.0428 45.5168 15.0201 45.3679 15.0445 45.2229C15.1997 44.4061 15.3685 43.5893 15.5372 42.7748C16.0142 40.4543 16.4912 38.1345 16.9682 35.8155C16.9799 35.7386 16.9676 35.66 16.9325 35.5906C16.1232 33.9705 15.5581 32.2393 15.256 30.4537C15.0145 29.0423 14.9435 27.6072 15.0445 26.1789C15.3153 21.6218 17.299 17.3355 20.5975 14.1796C22.4526 12.3699 24.6724 10.9765 27.1086 10.0927C29.5448 9.20886 32.1415 8.85469 34.7254 9.05394C38.3773 9.33371 41.8619 10.6995 44.7312 12.9758C47.6005 15.2521 49.7233 18.3347 50.8264 21.8272C51.4477 23.8822 51.7326 26.024 51.6702 28.1699ZM20.0196 40.9096C20.1029 40.8961 20.152 40.8915 20.2015 40.8802L25.4376 39.6382C25.5041 39.617 25.574 39.6093 25.6435 39.6154C25.7131 39.6216 25.7807 39.6415 25.8424 39.6742C26.1776 39.8542 26.5176 40.0162 26.8641 40.1895C29.9242 41.7337 33.4354 42.1327 36.7639 41.3145C40.2792 40.4388 43.3344 38.2685 45.3184 35.2374C47.3024 32.2063 48.0692 28.538 47.4651 24.966C47.0544 22.4089 45.9349 20.0182 44.2341 18.0652C43.0279 16.6296 41.5474 15.449 39.8796 14.5922C38.2119 13.7353 36.3899 13.2193 34.5205 13.0747C33.2759 12.9645 32.0221 13.0266 30.7945 13.2592C27.2868 13.8947 24.1418 15.8138 21.9725 18.6425C19.8031 21.4713 18.7652 25.0068 19.0611 28.5593C19.15 29.7648 19.3971 30.9531 19.7966 32.0939C20.1622 33.0752 20.5986 34.0288 21.1018 34.9471C21.1684 35.0636 21.1897 35.2005 21.1622 35.3319C20.8277 36.9369 20.4965 38.5416 20.168 40.1466C20.1185 40.3941 20.0736 40.6374 20.0196 40.9096Z" fill="white"/>
<path d="M24.0684 23.0692C24.0676 22.436 24.1977 21.8097 24.4501 21.2289C24.7026 20.6482 25.0721 20.1256 25.5356 19.6942C25.8085 19.4006 26.0985 19.1236 26.4041 18.8641C26.5625 18.7167 26.7543 18.6097 26.9633 18.5532C27.1722 18.4967 27.392 18.4921 27.6032 18.5395C27.8144 18.5869 28.0104 18.6853 28.1751 18.8257C28.3398 18.9661 28.4678 19.1443 28.548 19.3453C29.04 20.4478 29.5286 21.5529 30.0131 22.6599C30.1242 22.8888 30.1668 23.1445 30.1361 23.3971C30.1054 23.6497 30.0023 23.8881 29.8395 24.0837C29.6145 24.392 29.3627 24.6961 29.1287 25.0066C28.9537 25.218 28.8519 25.4801 28.8381 25.7542C28.8243 26.0283 28.8995 26.2997 29.0523 26.5276C29.4778 27.1776 29.9758 27.7769 30.5371 28.314C31.6784 29.499 32.9536 30.5469 34.3373 31.4369C34.5729 31.5842 34.8199 31.7126 35.0756 31.8214C35.3093 31.9309 35.5714 31.9637 35.8248 31.9148C36.0783 31.8659 36.31 31.7381 36.4862 31.5495C36.7652 31.2818 37.033 30.9979 37.3052 30.7211C37.4814 30.5198 37.7132 30.3757 37.9716 30.3064C38.2299 30.2371 38.5033 30.246 38.7565 30.3322C39.9018 30.6675 41.0538 30.9868 42.1991 31.3221C42.4077 31.3768 42.5998 31.4809 42.76 31.6253C42.9201 31.7697 43.0437 31.9503 43.1198 32.1521C43.1958 32.3539 43.2223 32.5707 43.1972 32.7849C43.1721 32.9991 43.0959 33.2044 42.9753 33.3831C42.5448 34.077 42.0189 34.7072 41.4136 35.2552C40.6727 35.8937 39.7362 36.2602 38.7587 36.2945C36.7882 36.3987 34.8326 35.9032 33.1497 34.8729C30.1317 33.1699 27.5624 30.7725 25.6548 27.8795C24.926 26.8061 24.4321 25.5909 24.2057 24.3134C24.1314 23.9061 24.1066 23.4854 24.0684 23.0692Z" fill="white"/>
<defs>
<filter id="filter0_d_906_7316" x="0" y="0" width="66" height="66" filterUnits="userSpaceOnUse" color-interpolation-filters="sRGB">
<feFlood flood-opacity="0" result="BackgroundImageFix"/>
<feColorMatrix in="SourceAlpha" type="matrix" values="0 0 0 0 0 0 0 0 0 0 0 0 0 0 0 0 0 0 127 0" result="hardAlpha"/>
<feOffset dy="5"/>
<feGaussianBlur stdDeviation="3"/>
<feComposite in2="hardAlpha" operator="out"/>
<feColorMatrix type="matrix" values="0 0 0 0 0.531844 0 0 0 0 0.64449 0 0 0 0 0.7625 0 0 0 0.3 0"/>
<feBlend mode="normal" in2="BackgroundImageFix" result="effect1_dropShadow_906_7316"/>
<feBlend mode="normal" in="SourceGraphic" in2="effect1_dropShadow_906_7316" result="shape"/>
</filter>
</defs>
</svg>
