<svg width="16" height="17" viewBox="0 0 16 17" fill="none" xmlns="http://www.w3.org/2000/svg">
<path d="M15.9963 8.36232C15.9139 10.1318 15.2501 11.8248 14.1076 13.1786C12.9651 14.5324 11.4079 15.4715 9.67744 15.8502C8.96854 16.0032 8.24202 16.058 7.51819 16.0131C6.4659 15.9514 5.43605 15.6822 4.48815 15.2211C4.45308 15.2063 4.41441 15.2032 4.37744 15.2122C3.07336 15.5197 1.7695 15.8287 0.466065 16.1388C0.371787 16.1705 0.268858 16.1637 0.179475 16.1201C0.122411 16.0908 0.076203 16.0441 0.0474423 15.9868C0.0186816 15.9294 0.00877584 15.8645 0.0194063 15.8012C0.0871297 15.4449 0.160736 15.0886 0.234349 14.7333C0.442427 13.7211 0.650491 12.7091 0.858569 11.6975C0.863685 11.664 0.858324 11.6297 0.842993 11.5994C0.489971 10.8927 0.243444 10.1375 0.111661 9.35856C0.00634086 8.74288 -0.0246289 8.11687 0.0194063 7.4938C0.137559 5.5059 1.00286 3.63614 2.44176 2.25946C3.25098 1.47003 4.2193 0.862213 5.28202 0.47666C6.34475 0.0911073 7.47749 -0.0633874 8.60465 0.0235316C10.1977 0.145573 11.7177 0.741365 12.9694 1.73433C14.221 2.72729 15.147 4.07201 15.6283 5.5955C15.8993 6.49192 16.0236 7.42623 15.9963 8.36232ZM2.18968 13.9197C2.22599 13.9138 2.2474 13.9118 2.26899 13.9069L4.55309 13.3651C4.5821 13.3558 4.61261 13.3524 4.64295 13.3551C4.67329 13.3578 4.70277 13.3665 4.72969 13.3808C4.87593 13.4593 5.02424 13.53 5.17539 13.6055C6.51026 14.2791 8.04191 14.4532 9.49389 14.0963C11.0273 13.7143 12.3601 12.7675 13.2256 11.4453C14.091 10.1231 14.4255 8.52288 14.162 6.96471C13.9828 5.84928 13.4945 4.80639 12.7525 3.95444C12.2264 3.32821 11.5806 2.81321 10.853 2.43942C10.1255 2.06563 9.33076 1.84054 8.51527 1.77746C7.97236 1.72939 7.42541 1.75651 6.8899 1.85797C5.35975 2.13516 3.98787 2.97233 3.04154 4.20628C2.09521 5.44024 1.64244 6.98253 1.77154 8.53221C1.8103 9.05806 1.91812 9.57643 2.09239 10.0741C2.25188 10.5021 2.44221 10.9181 2.66174 11.3187C2.69079 11.3695 2.70007 11.4292 2.6881 11.4865C2.54218 12.1867 2.39768 12.8867 2.25438 13.5868C2.23278 13.6948 2.21323 13.8009 2.18968 13.9197Z" fill="#07CE00"/>
<path d="M3.95606 6.13729C3.95574 5.86108 4.01248 5.58787 4.12259 5.33455C4.2327 5.08123 4.39391 4.85324 4.59609 4.66504C4.71514 4.53697 4.84163 4.41614 4.97494 4.30297C5.04407 4.23867 5.12774 4.192 5.21887 4.16735C5.31001 4.1427 5.40592 4.14067 5.49804 4.16135C5.59015 4.18204 5.67564 4.22495 5.74748 4.2862C5.81933 4.34745 5.87519 4.4252 5.91019 4.51288C6.12481 4.99382 6.33792 5.47588 6.54926 5.95877C6.59775 6.05863 6.61635 6.17015 6.60294 6.28035C6.58954 6.39054 6.54456 6.49456 6.47354 6.57988C6.37539 6.71434 6.26555 6.847 6.16347 6.98245C6.08716 7.07468 6.04272 7.18902 6.03671 7.30857C6.0307 7.42813 6.0635 7.54654 6.13016 7.64596C6.31578 7.92951 6.53302 8.19091 6.77787 8.42522C7.27571 8.94212 7.83201 9.39924 8.43558 9.78748C8.53835 9.85174 8.64612 9.90775 8.75764 9.95522C8.85961 10.003 8.97393 10.0173 9.08448 9.99595C9.19504 9.97462 9.29611 9.91887 9.37299 9.8366C9.4947 9.71981 9.61151 9.59598 9.73027 9.47525C9.80709 9.38741 9.90822 9.32457 10.0209 9.29434C10.1336 9.2641 10.2529 9.26799 10.3634 9.3056C10.8629 9.45184 11.3655 9.59116 11.8651 9.7374C11.9561 9.76128 12.0399 9.80668 12.1097 9.86967C12.1796 9.93266 12.2335 10.0114 12.2667 10.0995C12.2998 10.1875 12.3114 10.2821 12.3005 10.3755C12.2895 10.469 12.2563 10.5585 12.2037 10.6365C12.0159 10.9391 11.7865 11.214 11.5224 11.4531C11.1992 11.7317 10.7907 11.8915 10.3643 11.9065C9.50473 11.9519 8.65164 11.7358 7.91752 11.2863C6.60101 10.5435 5.48025 9.49764 4.64809 8.23568C4.33019 7.76742 4.11475 7.23733 4.01596 6.68004C3.98357 6.50239 3.97274 6.31887 3.95606 6.13729Z" fill="#07CE00"/>
</svg>
